G75*
%MOIN*%
%OFA0B0*%
%FSLAX25Y25*%
%IPPOS*%
%LPD*%
%AMOC8*
5,1,8,0,0,1.08239X$1,22.5*
%
%ADD10C,0.00000*%
%ADD11C,0.04362*%
%ADD12C,0.07400*%
%ADD13R,0.05118X0.05118*%
%ADD14OC8,0.05118*%
%ADD15R,0.12598X0.12598*%
%ADD16C,0.37402*%
%ADD17C,0.01000*%
%ADD18C,0.02381*%
%ADD19C,0.02400*%
%ADD20C,0.00800*%
%ADD21C,0.01600*%
D10*
X0002500Y0080658D02*
X0202500Y0080658D01*
X0202500Y0255658D01*
X0002500Y0255658D01*
X0002500Y0080658D01*
X0006988Y0090658D02*
X0006990Y0090806D01*
X0006996Y0090954D01*
X0007006Y0091102D01*
X0007020Y0091249D01*
X0007038Y0091396D01*
X0007059Y0091542D01*
X0007085Y0091688D01*
X0007115Y0091833D01*
X0007148Y0091977D01*
X0007186Y0092120D01*
X0007227Y0092262D01*
X0007272Y0092403D01*
X0007320Y0092543D01*
X0007373Y0092682D01*
X0007429Y0092819D01*
X0007489Y0092954D01*
X0007552Y0093088D01*
X0007619Y0093220D01*
X0007690Y0093350D01*
X0007764Y0093478D01*
X0007841Y0093604D01*
X0007922Y0093728D01*
X0008006Y0093850D01*
X0008093Y0093969D01*
X0008184Y0094086D01*
X0008278Y0094201D01*
X0008374Y0094313D01*
X0008474Y0094423D01*
X0008576Y0094529D01*
X0008682Y0094633D01*
X0008790Y0094734D01*
X0008901Y0094832D01*
X0009014Y0094928D01*
X0009130Y0095020D01*
X0009248Y0095109D01*
X0009369Y0095194D01*
X0009492Y0095277D01*
X0009617Y0095356D01*
X0009744Y0095432D01*
X0009873Y0095504D01*
X0010004Y0095573D01*
X0010137Y0095638D01*
X0010272Y0095699D01*
X0010408Y0095757D01*
X0010545Y0095812D01*
X0010684Y0095862D01*
X0010825Y0095909D01*
X0010966Y0095952D01*
X0011109Y0095992D01*
X0011253Y0096027D01*
X0011397Y0096059D01*
X0011543Y0096086D01*
X0011689Y0096110D01*
X0011836Y0096130D01*
X0011983Y0096146D01*
X0012130Y0096158D01*
X0012278Y0096166D01*
X0012426Y0096170D01*
X0012574Y0096170D01*
X0012722Y0096166D01*
X0012870Y0096158D01*
X0013017Y0096146D01*
X0013164Y0096130D01*
X0013311Y0096110D01*
X0013457Y0096086D01*
X0013603Y0096059D01*
X0013747Y0096027D01*
X0013891Y0095992D01*
X0014034Y0095952D01*
X0014175Y0095909D01*
X0014316Y0095862D01*
X0014455Y0095812D01*
X0014592Y0095757D01*
X0014728Y0095699D01*
X0014863Y0095638D01*
X0014996Y0095573D01*
X0015127Y0095504D01*
X0015256Y0095432D01*
X0015383Y0095356D01*
X0015508Y0095277D01*
X0015631Y0095194D01*
X0015752Y0095109D01*
X0015870Y0095020D01*
X0015986Y0094928D01*
X0016099Y0094832D01*
X0016210Y0094734D01*
X0016318Y0094633D01*
X0016424Y0094529D01*
X0016526Y0094423D01*
X0016626Y0094313D01*
X0016722Y0094201D01*
X0016816Y0094086D01*
X0016907Y0093969D01*
X0016994Y0093850D01*
X0017078Y0093728D01*
X0017159Y0093604D01*
X0017236Y0093478D01*
X0017310Y0093350D01*
X0017381Y0093220D01*
X0017448Y0093088D01*
X0017511Y0092954D01*
X0017571Y0092819D01*
X0017627Y0092682D01*
X0017680Y0092543D01*
X0017728Y0092403D01*
X0017773Y0092262D01*
X0017814Y0092120D01*
X0017852Y0091977D01*
X0017885Y0091833D01*
X0017915Y0091688D01*
X0017941Y0091542D01*
X0017962Y0091396D01*
X0017980Y0091249D01*
X0017994Y0091102D01*
X0018004Y0090954D01*
X0018010Y0090806D01*
X0018012Y0090658D01*
X0018010Y0090510D01*
X0018004Y0090362D01*
X0017994Y0090214D01*
X0017980Y0090067D01*
X0017962Y0089920D01*
X0017941Y0089774D01*
X0017915Y0089628D01*
X0017885Y0089483D01*
X0017852Y0089339D01*
X0017814Y0089196D01*
X0017773Y0089054D01*
X0017728Y0088913D01*
X0017680Y0088773D01*
X0017627Y0088634D01*
X0017571Y0088497D01*
X0017511Y0088362D01*
X0017448Y0088228D01*
X0017381Y0088096D01*
X0017310Y0087966D01*
X0017236Y0087838D01*
X0017159Y0087712D01*
X0017078Y0087588D01*
X0016994Y0087466D01*
X0016907Y0087347D01*
X0016816Y0087230D01*
X0016722Y0087115D01*
X0016626Y0087003D01*
X0016526Y0086893D01*
X0016424Y0086787D01*
X0016318Y0086683D01*
X0016210Y0086582D01*
X0016099Y0086484D01*
X0015986Y0086388D01*
X0015870Y0086296D01*
X0015752Y0086207D01*
X0015631Y0086122D01*
X0015508Y0086039D01*
X0015383Y0085960D01*
X0015256Y0085884D01*
X0015127Y0085812D01*
X0014996Y0085743D01*
X0014863Y0085678D01*
X0014728Y0085617D01*
X0014592Y0085559D01*
X0014455Y0085504D01*
X0014316Y0085454D01*
X0014175Y0085407D01*
X0014034Y0085364D01*
X0013891Y0085324D01*
X0013747Y0085289D01*
X0013603Y0085257D01*
X0013457Y0085230D01*
X0013311Y0085206D01*
X0013164Y0085186D01*
X0013017Y0085170D01*
X0012870Y0085158D01*
X0012722Y0085150D01*
X0012574Y0085146D01*
X0012426Y0085146D01*
X0012278Y0085150D01*
X0012130Y0085158D01*
X0011983Y0085170D01*
X0011836Y0085186D01*
X0011689Y0085206D01*
X0011543Y0085230D01*
X0011397Y0085257D01*
X0011253Y0085289D01*
X0011109Y0085324D01*
X0010966Y0085364D01*
X0010825Y0085407D01*
X0010684Y0085454D01*
X0010545Y0085504D01*
X0010408Y0085559D01*
X0010272Y0085617D01*
X0010137Y0085678D01*
X0010004Y0085743D01*
X0009873Y0085812D01*
X0009744Y0085884D01*
X0009617Y0085960D01*
X0009492Y0086039D01*
X0009369Y0086122D01*
X0009248Y0086207D01*
X0009130Y0086296D01*
X0009014Y0086388D01*
X0008901Y0086484D01*
X0008790Y0086582D01*
X0008682Y0086683D01*
X0008576Y0086787D01*
X0008474Y0086893D01*
X0008374Y0087003D01*
X0008278Y0087115D01*
X0008184Y0087230D01*
X0008093Y0087347D01*
X0008006Y0087466D01*
X0007922Y0087588D01*
X0007841Y0087712D01*
X0007764Y0087838D01*
X0007690Y0087966D01*
X0007619Y0088096D01*
X0007552Y0088228D01*
X0007489Y0088362D01*
X0007429Y0088497D01*
X0007373Y0088634D01*
X0007320Y0088773D01*
X0007272Y0088913D01*
X0007227Y0089054D01*
X0007186Y0089196D01*
X0007148Y0089339D01*
X0007115Y0089483D01*
X0007085Y0089628D01*
X0007059Y0089774D01*
X0007038Y0089920D01*
X0007020Y0090067D01*
X0007006Y0090214D01*
X0006996Y0090362D01*
X0006990Y0090510D01*
X0006988Y0090658D01*
X0096988Y0245658D02*
X0096990Y0245806D01*
X0096996Y0245954D01*
X0097006Y0246102D01*
X0097020Y0246249D01*
X0097038Y0246396D01*
X0097059Y0246542D01*
X0097085Y0246688D01*
X0097115Y0246833D01*
X0097148Y0246977D01*
X0097186Y0247120D01*
X0097227Y0247262D01*
X0097272Y0247403D01*
X0097320Y0247543D01*
X0097373Y0247682D01*
X0097429Y0247819D01*
X0097489Y0247954D01*
X0097552Y0248088D01*
X0097619Y0248220D01*
X0097690Y0248350D01*
X0097764Y0248478D01*
X0097841Y0248604D01*
X0097922Y0248728D01*
X0098006Y0248850D01*
X0098093Y0248969D01*
X0098184Y0249086D01*
X0098278Y0249201D01*
X0098374Y0249313D01*
X0098474Y0249423D01*
X0098576Y0249529D01*
X0098682Y0249633D01*
X0098790Y0249734D01*
X0098901Y0249832D01*
X0099014Y0249928D01*
X0099130Y0250020D01*
X0099248Y0250109D01*
X0099369Y0250194D01*
X0099492Y0250277D01*
X0099617Y0250356D01*
X0099744Y0250432D01*
X0099873Y0250504D01*
X0100004Y0250573D01*
X0100137Y0250638D01*
X0100272Y0250699D01*
X0100408Y0250757D01*
X0100545Y0250812D01*
X0100684Y0250862D01*
X0100825Y0250909D01*
X0100966Y0250952D01*
X0101109Y0250992D01*
X0101253Y0251027D01*
X0101397Y0251059D01*
X0101543Y0251086D01*
X0101689Y0251110D01*
X0101836Y0251130D01*
X0101983Y0251146D01*
X0102130Y0251158D01*
X0102278Y0251166D01*
X0102426Y0251170D01*
X0102574Y0251170D01*
X0102722Y0251166D01*
X0102870Y0251158D01*
X0103017Y0251146D01*
X0103164Y0251130D01*
X0103311Y0251110D01*
X0103457Y0251086D01*
X0103603Y0251059D01*
X0103747Y0251027D01*
X0103891Y0250992D01*
X0104034Y0250952D01*
X0104175Y0250909D01*
X0104316Y0250862D01*
X0104455Y0250812D01*
X0104592Y0250757D01*
X0104728Y0250699D01*
X0104863Y0250638D01*
X0104996Y0250573D01*
X0105127Y0250504D01*
X0105256Y0250432D01*
X0105383Y0250356D01*
X0105508Y0250277D01*
X0105631Y0250194D01*
X0105752Y0250109D01*
X0105870Y0250020D01*
X0105986Y0249928D01*
X0106099Y0249832D01*
X0106210Y0249734D01*
X0106318Y0249633D01*
X0106424Y0249529D01*
X0106526Y0249423D01*
X0106626Y0249313D01*
X0106722Y0249201D01*
X0106816Y0249086D01*
X0106907Y0248969D01*
X0106994Y0248850D01*
X0107078Y0248728D01*
X0107159Y0248604D01*
X0107236Y0248478D01*
X0107310Y0248350D01*
X0107381Y0248220D01*
X0107448Y0248088D01*
X0107511Y0247954D01*
X0107571Y0247819D01*
X0107627Y0247682D01*
X0107680Y0247543D01*
X0107728Y0247403D01*
X0107773Y0247262D01*
X0107814Y0247120D01*
X0107852Y0246977D01*
X0107885Y0246833D01*
X0107915Y0246688D01*
X0107941Y0246542D01*
X0107962Y0246396D01*
X0107980Y0246249D01*
X0107994Y0246102D01*
X0108004Y0245954D01*
X0108010Y0245806D01*
X0108012Y0245658D01*
X0108010Y0245510D01*
X0108004Y0245362D01*
X0107994Y0245214D01*
X0107980Y0245067D01*
X0107962Y0244920D01*
X0107941Y0244774D01*
X0107915Y0244628D01*
X0107885Y0244483D01*
X0107852Y0244339D01*
X0107814Y0244196D01*
X0107773Y0244054D01*
X0107728Y0243913D01*
X0107680Y0243773D01*
X0107627Y0243634D01*
X0107571Y0243497D01*
X0107511Y0243362D01*
X0107448Y0243228D01*
X0107381Y0243096D01*
X0107310Y0242966D01*
X0107236Y0242838D01*
X0107159Y0242712D01*
X0107078Y0242588D01*
X0106994Y0242466D01*
X0106907Y0242347D01*
X0106816Y0242230D01*
X0106722Y0242115D01*
X0106626Y0242003D01*
X0106526Y0241893D01*
X0106424Y0241787D01*
X0106318Y0241683D01*
X0106210Y0241582D01*
X0106099Y0241484D01*
X0105986Y0241388D01*
X0105870Y0241296D01*
X0105752Y0241207D01*
X0105631Y0241122D01*
X0105508Y0241039D01*
X0105383Y0240960D01*
X0105256Y0240884D01*
X0105127Y0240812D01*
X0104996Y0240743D01*
X0104863Y0240678D01*
X0104728Y0240617D01*
X0104592Y0240559D01*
X0104455Y0240504D01*
X0104316Y0240454D01*
X0104175Y0240407D01*
X0104034Y0240364D01*
X0103891Y0240324D01*
X0103747Y0240289D01*
X0103603Y0240257D01*
X0103457Y0240230D01*
X0103311Y0240206D01*
X0103164Y0240186D01*
X0103017Y0240170D01*
X0102870Y0240158D01*
X0102722Y0240150D01*
X0102574Y0240146D01*
X0102426Y0240146D01*
X0102278Y0240150D01*
X0102130Y0240158D01*
X0101983Y0240170D01*
X0101836Y0240186D01*
X0101689Y0240206D01*
X0101543Y0240230D01*
X0101397Y0240257D01*
X0101253Y0240289D01*
X0101109Y0240324D01*
X0100966Y0240364D01*
X0100825Y0240407D01*
X0100684Y0240454D01*
X0100545Y0240504D01*
X0100408Y0240559D01*
X0100272Y0240617D01*
X0100137Y0240678D01*
X0100004Y0240743D01*
X0099873Y0240812D01*
X0099744Y0240884D01*
X0099617Y0240960D01*
X0099492Y0241039D01*
X0099369Y0241122D01*
X0099248Y0241207D01*
X0099130Y0241296D01*
X0099014Y0241388D01*
X0098901Y0241484D01*
X0098790Y0241582D01*
X0098682Y0241683D01*
X0098576Y0241787D01*
X0098474Y0241893D01*
X0098374Y0242003D01*
X0098278Y0242115D01*
X0098184Y0242230D01*
X0098093Y0242347D01*
X0098006Y0242466D01*
X0097922Y0242588D01*
X0097841Y0242712D01*
X0097764Y0242838D01*
X0097690Y0242966D01*
X0097619Y0243096D01*
X0097552Y0243228D01*
X0097489Y0243362D01*
X0097429Y0243497D01*
X0097373Y0243634D01*
X0097320Y0243773D01*
X0097272Y0243913D01*
X0097227Y0244054D01*
X0097186Y0244196D01*
X0097148Y0244339D01*
X0097115Y0244483D01*
X0097085Y0244628D01*
X0097059Y0244774D01*
X0097038Y0244920D01*
X0097020Y0245067D01*
X0097006Y0245214D01*
X0096996Y0245362D01*
X0096990Y0245510D01*
X0096988Y0245658D01*
X0176732Y0182036D02*
X0176734Y0182107D01*
X0176740Y0182178D01*
X0176750Y0182249D01*
X0176764Y0182318D01*
X0176781Y0182387D01*
X0176803Y0182455D01*
X0176828Y0182522D01*
X0176857Y0182587D01*
X0176889Y0182650D01*
X0176925Y0182712D01*
X0176964Y0182771D01*
X0177007Y0182828D01*
X0177052Y0182883D01*
X0177101Y0182935D01*
X0177152Y0182984D01*
X0177206Y0183030D01*
X0177263Y0183074D01*
X0177321Y0183114D01*
X0177382Y0183150D01*
X0177445Y0183184D01*
X0177510Y0183213D01*
X0177576Y0183239D01*
X0177644Y0183262D01*
X0177712Y0183280D01*
X0177782Y0183295D01*
X0177852Y0183306D01*
X0177923Y0183313D01*
X0177994Y0183316D01*
X0178065Y0183315D01*
X0178136Y0183310D01*
X0178207Y0183301D01*
X0178277Y0183288D01*
X0178346Y0183272D01*
X0178414Y0183251D01*
X0178481Y0183227D01*
X0178547Y0183199D01*
X0178610Y0183167D01*
X0178672Y0183132D01*
X0178732Y0183094D01*
X0178790Y0183052D01*
X0178845Y0183008D01*
X0178898Y0182960D01*
X0178948Y0182909D01*
X0178995Y0182856D01*
X0179039Y0182800D01*
X0179080Y0182742D01*
X0179118Y0182681D01*
X0179152Y0182619D01*
X0179182Y0182554D01*
X0179209Y0182489D01*
X0179233Y0182421D01*
X0179252Y0182353D01*
X0179268Y0182284D01*
X0179280Y0182213D01*
X0179288Y0182143D01*
X0179292Y0182072D01*
X0179292Y0182000D01*
X0179288Y0181929D01*
X0179280Y0181859D01*
X0179268Y0181788D01*
X0179252Y0181719D01*
X0179233Y0181651D01*
X0179209Y0181583D01*
X0179182Y0181518D01*
X0179152Y0181453D01*
X0179118Y0181391D01*
X0179080Y0181330D01*
X0179039Y0181272D01*
X0178995Y0181216D01*
X0178948Y0181163D01*
X0178898Y0181112D01*
X0178845Y0181064D01*
X0178790Y0181020D01*
X0178732Y0180978D01*
X0178672Y0180940D01*
X0178610Y0180905D01*
X0178547Y0180873D01*
X0178481Y0180845D01*
X0178414Y0180821D01*
X0178346Y0180800D01*
X0178277Y0180784D01*
X0178207Y0180771D01*
X0178136Y0180762D01*
X0178065Y0180757D01*
X0177994Y0180756D01*
X0177923Y0180759D01*
X0177852Y0180766D01*
X0177782Y0180777D01*
X0177712Y0180792D01*
X0177644Y0180810D01*
X0177576Y0180833D01*
X0177510Y0180859D01*
X0177445Y0180888D01*
X0177382Y0180922D01*
X0177321Y0180958D01*
X0177263Y0180998D01*
X0177206Y0181042D01*
X0177152Y0181088D01*
X0177101Y0181137D01*
X0177052Y0181189D01*
X0177007Y0181244D01*
X0176964Y0181301D01*
X0176925Y0181360D01*
X0176889Y0181422D01*
X0176857Y0181485D01*
X0176828Y0181550D01*
X0176803Y0181617D01*
X0176781Y0181685D01*
X0176764Y0181754D01*
X0176750Y0181823D01*
X0176740Y0181894D01*
X0176734Y0181965D01*
X0176732Y0182036D01*
X0176732Y0159280D02*
X0176734Y0159351D01*
X0176740Y0159422D01*
X0176750Y0159493D01*
X0176764Y0159562D01*
X0176781Y0159631D01*
X0176803Y0159699D01*
X0176828Y0159766D01*
X0176857Y0159831D01*
X0176889Y0159894D01*
X0176925Y0159956D01*
X0176964Y0160015D01*
X0177007Y0160072D01*
X0177052Y0160127D01*
X0177101Y0160179D01*
X0177152Y0160228D01*
X0177206Y0160274D01*
X0177263Y0160318D01*
X0177321Y0160358D01*
X0177382Y0160394D01*
X0177445Y0160428D01*
X0177510Y0160457D01*
X0177576Y0160483D01*
X0177644Y0160506D01*
X0177712Y0160524D01*
X0177782Y0160539D01*
X0177852Y0160550D01*
X0177923Y0160557D01*
X0177994Y0160560D01*
X0178065Y0160559D01*
X0178136Y0160554D01*
X0178207Y0160545D01*
X0178277Y0160532D01*
X0178346Y0160516D01*
X0178414Y0160495D01*
X0178481Y0160471D01*
X0178547Y0160443D01*
X0178610Y0160411D01*
X0178672Y0160376D01*
X0178732Y0160338D01*
X0178790Y0160296D01*
X0178845Y0160252D01*
X0178898Y0160204D01*
X0178948Y0160153D01*
X0178995Y0160100D01*
X0179039Y0160044D01*
X0179080Y0159986D01*
X0179118Y0159925D01*
X0179152Y0159863D01*
X0179182Y0159798D01*
X0179209Y0159733D01*
X0179233Y0159665D01*
X0179252Y0159597D01*
X0179268Y0159528D01*
X0179280Y0159457D01*
X0179288Y0159387D01*
X0179292Y0159316D01*
X0179292Y0159244D01*
X0179288Y0159173D01*
X0179280Y0159103D01*
X0179268Y0159032D01*
X0179252Y0158963D01*
X0179233Y0158895D01*
X0179209Y0158827D01*
X0179182Y0158762D01*
X0179152Y0158697D01*
X0179118Y0158635D01*
X0179080Y0158574D01*
X0179039Y0158516D01*
X0178995Y0158460D01*
X0178948Y0158407D01*
X0178898Y0158356D01*
X0178845Y0158308D01*
X0178790Y0158264D01*
X0178732Y0158222D01*
X0178672Y0158184D01*
X0178610Y0158149D01*
X0178547Y0158117D01*
X0178481Y0158089D01*
X0178414Y0158065D01*
X0178346Y0158044D01*
X0178277Y0158028D01*
X0178207Y0158015D01*
X0178136Y0158006D01*
X0178065Y0158001D01*
X0177994Y0158000D01*
X0177923Y0158003D01*
X0177852Y0158010D01*
X0177782Y0158021D01*
X0177712Y0158036D01*
X0177644Y0158054D01*
X0177576Y0158077D01*
X0177510Y0158103D01*
X0177445Y0158132D01*
X0177382Y0158166D01*
X0177321Y0158202D01*
X0177263Y0158242D01*
X0177206Y0158286D01*
X0177152Y0158332D01*
X0177101Y0158381D01*
X0177052Y0158433D01*
X0177007Y0158488D01*
X0176964Y0158545D01*
X0176925Y0158604D01*
X0176889Y0158666D01*
X0176857Y0158729D01*
X0176828Y0158794D01*
X0176803Y0158861D01*
X0176781Y0158929D01*
X0176764Y0158998D01*
X0176750Y0159067D01*
X0176740Y0159138D01*
X0176734Y0159209D01*
X0176732Y0159280D01*
X0186988Y0090658D02*
X0186990Y0090806D01*
X0186996Y0090954D01*
X0187006Y0091102D01*
X0187020Y0091249D01*
X0187038Y0091396D01*
X0187059Y0091542D01*
X0187085Y0091688D01*
X0187115Y0091833D01*
X0187148Y0091977D01*
X0187186Y0092120D01*
X0187227Y0092262D01*
X0187272Y0092403D01*
X0187320Y0092543D01*
X0187373Y0092682D01*
X0187429Y0092819D01*
X0187489Y0092954D01*
X0187552Y0093088D01*
X0187619Y0093220D01*
X0187690Y0093350D01*
X0187764Y0093478D01*
X0187841Y0093604D01*
X0187922Y0093728D01*
X0188006Y0093850D01*
X0188093Y0093969D01*
X0188184Y0094086D01*
X0188278Y0094201D01*
X0188374Y0094313D01*
X0188474Y0094423D01*
X0188576Y0094529D01*
X0188682Y0094633D01*
X0188790Y0094734D01*
X0188901Y0094832D01*
X0189014Y0094928D01*
X0189130Y0095020D01*
X0189248Y0095109D01*
X0189369Y0095194D01*
X0189492Y0095277D01*
X0189617Y0095356D01*
X0189744Y0095432D01*
X0189873Y0095504D01*
X0190004Y0095573D01*
X0190137Y0095638D01*
X0190272Y0095699D01*
X0190408Y0095757D01*
X0190545Y0095812D01*
X0190684Y0095862D01*
X0190825Y0095909D01*
X0190966Y0095952D01*
X0191109Y0095992D01*
X0191253Y0096027D01*
X0191397Y0096059D01*
X0191543Y0096086D01*
X0191689Y0096110D01*
X0191836Y0096130D01*
X0191983Y0096146D01*
X0192130Y0096158D01*
X0192278Y0096166D01*
X0192426Y0096170D01*
X0192574Y0096170D01*
X0192722Y0096166D01*
X0192870Y0096158D01*
X0193017Y0096146D01*
X0193164Y0096130D01*
X0193311Y0096110D01*
X0193457Y0096086D01*
X0193603Y0096059D01*
X0193747Y0096027D01*
X0193891Y0095992D01*
X0194034Y0095952D01*
X0194175Y0095909D01*
X0194316Y0095862D01*
X0194455Y0095812D01*
X0194592Y0095757D01*
X0194728Y0095699D01*
X0194863Y0095638D01*
X0194996Y0095573D01*
X0195127Y0095504D01*
X0195256Y0095432D01*
X0195383Y0095356D01*
X0195508Y0095277D01*
X0195631Y0095194D01*
X0195752Y0095109D01*
X0195870Y0095020D01*
X0195986Y0094928D01*
X0196099Y0094832D01*
X0196210Y0094734D01*
X0196318Y0094633D01*
X0196424Y0094529D01*
X0196526Y0094423D01*
X0196626Y0094313D01*
X0196722Y0094201D01*
X0196816Y0094086D01*
X0196907Y0093969D01*
X0196994Y0093850D01*
X0197078Y0093728D01*
X0197159Y0093604D01*
X0197236Y0093478D01*
X0197310Y0093350D01*
X0197381Y0093220D01*
X0197448Y0093088D01*
X0197511Y0092954D01*
X0197571Y0092819D01*
X0197627Y0092682D01*
X0197680Y0092543D01*
X0197728Y0092403D01*
X0197773Y0092262D01*
X0197814Y0092120D01*
X0197852Y0091977D01*
X0197885Y0091833D01*
X0197915Y0091688D01*
X0197941Y0091542D01*
X0197962Y0091396D01*
X0197980Y0091249D01*
X0197994Y0091102D01*
X0198004Y0090954D01*
X0198010Y0090806D01*
X0198012Y0090658D01*
X0198010Y0090510D01*
X0198004Y0090362D01*
X0197994Y0090214D01*
X0197980Y0090067D01*
X0197962Y0089920D01*
X0197941Y0089774D01*
X0197915Y0089628D01*
X0197885Y0089483D01*
X0197852Y0089339D01*
X0197814Y0089196D01*
X0197773Y0089054D01*
X0197728Y0088913D01*
X0197680Y0088773D01*
X0197627Y0088634D01*
X0197571Y0088497D01*
X0197511Y0088362D01*
X0197448Y0088228D01*
X0197381Y0088096D01*
X0197310Y0087966D01*
X0197236Y0087838D01*
X0197159Y0087712D01*
X0197078Y0087588D01*
X0196994Y0087466D01*
X0196907Y0087347D01*
X0196816Y0087230D01*
X0196722Y0087115D01*
X0196626Y0087003D01*
X0196526Y0086893D01*
X0196424Y0086787D01*
X0196318Y0086683D01*
X0196210Y0086582D01*
X0196099Y0086484D01*
X0195986Y0086388D01*
X0195870Y0086296D01*
X0195752Y0086207D01*
X0195631Y0086122D01*
X0195508Y0086039D01*
X0195383Y0085960D01*
X0195256Y0085884D01*
X0195127Y0085812D01*
X0194996Y0085743D01*
X0194863Y0085678D01*
X0194728Y0085617D01*
X0194592Y0085559D01*
X0194455Y0085504D01*
X0194316Y0085454D01*
X0194175Y0085407D01*
X0194034Y0085364D01*
X0193891Y0085324D01*
X0193747Y0085289D01*
X0193603Y0085257D01*
X0193457Y0085230D01*
X0193311Y0085206D01*
X0193164Y0085186D01*
X0193017Y0085170D01*
X0192870Y0085158D01*
X0192722Y0085150D01*
X0192574Y0085146D01*
X0192426Y0085146D01*
X0192278Y0085150D01*
X0192130Y0085158D01*
X0191983Y0085170D01*
X0191836Y0085186D01*
X0191689Y0085206D01*
X0191543Y0085230D01*
X0191397Y0085257D01*
X0191253Y0085289D01*
X0191109Y0085324D01*
X0190966Y0085364D01*
X0190825Y0085407D01*
X0190684Y0085454D01*
X0190545Y0085504D01*
X0190408Y0085559D01*
X0190272Y0085617D01*
X0190137Y0085678D01*
X0190004Y0085743D01*
X0189873Y0085812D01*
X0189744Y0085884D01*
X0189617Y0085960D01*
X0189492Y0086039D01*
X0189369Y0086122D01*
X0189248Y0086207D01*
X0189130Y0086296D01*
X0189014Y0086388D01*
X0188901Y0086484D01*
X0188790Y0086582D01*
X0188682Y0086683D01*
X0188576Y0086787D01*
X0188474Y0086893D01*
X0188374Y0087003D01*
X0188278Y0087115D01*
X0188184Y0087230D01*
X0188093Y0087347D01*
X0188006Y0087466D01*
X0187922Y0087588D01*
X0187841Y0087712D01*
X0187764Y0087838D01*
X0187690Y0087966D01*
X0187619Y0088096D01*
X0187552Y0088228D01*
X0187489Y0088362D01*
X0187429Y0088497D01*
X0187373Y0088634D01*
X0187320Y0088773D01*
X0187272Y0088913D01*
X0187227Y0089054D01*
X0187186Y0089196D01*
X0187148Y0089339D01*
X0187115Y0089483D01*
X0187085Y0089628D01*
X0187059Y0089774D01*
X0187038Y0089920D01*
X0187020Y0090067D01*
X0187006Y0090214D01*
X0186996Y0090362D01*
X0186990Y0090510D01*
X0186988Y0090658D01*
D11*
X0190319Y0153650D02*
X0194681Y0153650D01*
X0178224Y0153650D02*
X0173862Y0153650D01*
X0173862Y0187666D02*
X0178224Y0187666D01*
X0190319Y0187666D02*
X0194681Y0187666D01*
D12*
X0145000Y0183158D03*
X0145000Y0173158D03*
X0145000Y0163158D03*
X0145000Y0153158D03*
X0145000Y0143158D03*
X0145000Y0133158D03*
X0145000Y0123158D03*
X0142500Y0103158D03*
X0152500Y0103158D03*
X0122500Y0103158D03*
X0112500Y0103158D03*
X0102500Y0103158D03*
X0082500Y0103158D03*
X0072500Y0103158D03*
X0062500Y0103158D03*
X0052500Y0103158D03*
X0042500Y0103158D03*
X0032500Y0103158D03*
X0145000Y0193158D03*
X0145000Y0203158D03*
X0145000Y0213158D03*
D13*
X0175000Y0104595D03*
D14*
X0175000Y0096721D03*
D15*
X0027500Y0118965D03*
X0027500Y0182351D03*
D16*
X0027500Y0150658D03*
D17*
X0028000Y0150554D02*
X0051082Y0150554D01*
X0051089Y0150547D02*
X0052005Y0150168D01*
X0052021Y0150168D01*
X0052900Y0149288D01*
X0052900Y0137580D01*
X0052889Y0137569D01*
X0052509Y0136654D01*
X0052509Y0135663D01*
X0052889Y0134747D01*
X0053589Y0134047D01*
X0054505Y0133668D01*
X0055495Y0133668D01*
X0056411Y0134047D01*
X0057111Y0134747D01*
X0057491Y0135663D01*
X0057491Y0136654D01*
X0057111Y0137569D01*
X0057100Y0137580D01*
X0057100Y0151028D01*
X0055870Y0152258D01*
X0054991Y0153137D01*
X0054991Y0153154D01*
X0054611Y0154069D01*
X0053911Y0154770D01*
X0052995Y0155149D01*
X0052005Y0155149D01*
X0051089Y0154770D01*
X0050389Y0154069D01*
X0050009Y0153154D01*
X0050009Y0152163D01*
X0050389Y0151247D01*
X0051089Y0150547D01*
X0050262Y0151552D02*
X0047700Y0151552D01*
X0047701Y0151540D02*
X0047547Y0153297D01*
X0047241Y0155035D01*
X0046784Y0156738D01*
X0046181Y0158396D01*
X0045435Y0159995D01*
X0044553Y0161522D01*
X0043542Y0162967D01*
X0042408Y0164319D01*
X0041160Y0165566D01*
X0039809Y0166700D01*
X0038364Y0167712D01*
X0036837Y0168594D01*
X0035238Y0169339D01*
X0033580Y0169942D01*
X0031876Y0170399D01*
X0030139Y0170705D01*
X0028382Y0170859D01*
X0028000Y0170859D01*
X0028000Y0151158D01*
X0047701Y0151158D01*
X0047701Y0151540D01*
X0047612Y0152551D02*
X0050009Y0152551D01*
X0050173Y0153549D02*
X0047503Y0153549D01*
X0047327Y0154548D02*
X0050868Y0154548D01*
X0054132Y0154548D02*
X0085368Y0154548D01*
X0085389Y0154497D02*
X0086089Y0153797D01*
X0087005Y0153418D01*
X0087995Y0153418D01*
X0088911Y0153797D01*
X0089611Y0154497D01*
X0089991Y0155413D01*
X0089991Y0156404D01*
X0089611Y0157319D01*
X0088911Y0158020D01*
X0087995Y0158399D01*
X0087005Y0158399D01*
X0086089Y0158020D01*
X0085389Y0157319D01*
X0085009Y0156404D01*
X0085009Y0155413D01*
X0085389Y0154497D01*
X0085009Y0155546D02*
X0047104Y0155546D01*
X0046836Y0156545D02*
X0085068Y0156545D01*
X0085613Y0157544D02*
X0046491Y0157544D01*
X0046113Y0158542D02*
X0133250Y0158542D01*
X0133250Y0157544D02*
X0089387Y0157544D01*
X0089932Y0156545D02*
X0133250Y0156545D01*
X0133250Y0155546D02*
X0089991Y0155546D01*
X0089632Y0154548D02*
X0133250Y0154548D01*
X0133250Y0153549D02*
X0088314Y0153549D01*
X0086686Y0153549D02*
X0054827Y0153549D01*
X0055577Y0152551D02*
X0133250Y0152551D01*
X0133250Y0151552D02*
X0084228Y0151552D01*
X0083995Y0151649D02*
X0084911Y0151270D01*
X0085611Y0150569D01*
X0085991Y0149654D01*
X0085991Y0148663D01*
X0085611Y0147747D01*
X0084911Y0147047D01*
X0083995Y0146668D01*
X0083005Y0146668D01*
X0082089Y0147047D01*
X0081389Y0147747D01*
X0081009Y0148663D01*
X0081009Y0149654D01*
X0081389Y0150569D01*
X0082089Y0151270D01*
X0083005Y0151649D01*
X0083995Y0151649D01*
X0082772Y0151552D02*
X0056576Y0151552D01*
X0057100Y0150554D02*
X0081382Y0150554D01*
X0081009Y0149555D02*
X0057100Y0149555D01*
X0057100Y0148557D02*
X0081053Y0148557D01*
X0081578Y0147558D02*
X0057100Y0147558D01*
X0057100Y0146560D02*
X0133250Y0146560D01*
X0133250Y0147558D02*
X0085422Y0147558D01*
X0085947Y0148557D02*
X0133250Y0148557D01*
X0133250Y0149555D02*
X0085991Y0149555D01*
X0085618Y0150554D02*
X0133250Y0150554D01*
X0133250Y0145561D02*
X0057100Y0145561D01*
X0057100Y0144563D02*
X0133250Y0144563D01*
X0133250Y0144411D02*
X0133631Y0143492D01*
X0134334Y0142789D01*
X0136084Y0141039D01*
X0137003Y0140658D01*
X0137997Y0140658D01*
X0138916Y0141039D01*
X0139619Y0141742D01*
X0140000Y0142661D01*
X0140000Y0143655D01*
X0139619Y0144574D01*
X0138250Y0145944D01*
X0138250Y0177655D01*
X0137869Y0178574D01*
X0134416Y0182028D01*
X0133497Y0182408D01*
X0132503Y0182408D01*
X0131584Y0182028D01*
X0130881Y0181324D01*
X0130500Y0180405D01*
X0130500Y0179411D01*
X0130881Y0178492D01*
X0133250Y0176123D01*
X0133250Y0144411D01*
X0133601Y0143564D02*
X0057100Y0143564D01*
X0057100Y0142566D02*
X0134557Y0142566D01*
X0135555Y0141567D02*
X0057100Y0141567D01*
X0057100Y0140569D02*
X0140661Y0140569D01*
X0140761Y0140326D02*
X0142168Y0138919D01*
X0144005Y0138158D01*
X0142168Y0137397D01*
X0140761Y0135990D01*
X0140000Y0134153D01*
X0140000Y0132164D01*
X0140761Y0130326D01*
X0142168Y0128919D01*
X0144005Y0128158D01*
X0142168Y0127397D01*
X0140761Y0125990D01*
X0140000Y0124153D01*
X0140000Y0122164D01*
X0140761Y0120326D01*
X0142168Y0118919D01*
X0144005Y0118158D01*
X0145995Y0118158D01*
X0147832Y0118919D01*
X0149239Y0120326D01*
X0150000Y0122164D01*
X0150000Y0124153D01*
X0149239Y0125990D01*
X0147832Y0127397D01*
X0145995Y0128158D01*
X0144005Y0128158D01*
X0145995Y0128158D01*
X0147832Y0128919D01*
X0149239Y0130326D01*
X0150000Y0132164D01*
X0150000Y0134153D01*
X0149239Y0135990D01*
X0147832Y0137397D01*
X0145995Y0138158D01*
X0144005Y0138158D01*
X0145995Y0138158D01*
X0147832Y0138919D01*
X0149239Y0140326D01*
X0150000Y0142164D01*
X0150000Y0144153D01*
X0149239Y0145990D01*
X0147832Y0147397D01*
X0146182Y0148081D01*
X0146218Y0148086D01*
X0146996Y0148339D01*
X0147725Y0148711D01*
X0148388Y0149192D01*
X0148966Y0149771D01*
X0149447Y0150433D01*
X0149819Y0151162D01*
X0150072Y0151940D01*
X0150186Y0152658D01*
X0145500Y0152658D01*
X0145500Y0153658D01*
X0150186Y0153658D01*
X0150072Y0154376D01*
X0149819Y0155154D01*
X0149447Y0155884D01*
X0148966Y0156546D01*
X0148388Y0157124D01*
X0147725Y0157606D01*
X0146996Y0157977D01*
X0146218Y0158230D01*
X0146182Y0158236D01*
X0147832Y0158919D01*
X0149239Y0160326D01*
X0150000Y0162164D01*
X0150000Y0164153D01*
X0149239Y0165990D01*
X0147832Y0167397D01*
X0145995Y0168158D01*
X0144005Y0168158D01*
X0142168Y0167397D01*
X0140761Y0165990D01*
X0140000Y0164153D01*
X0140000Y0162164D01*
X0140761Y0160326D01*
X0142168Y0158919D01*
X0143818Y0158236D01*
X0143782Y0158230D01*
X0143004Y0157977D01*
X0142275Y0157606D01*
X0141612Y0157124D01*
X0141034Y0156546D01*
X0140553Y0155884D01*
X0140181Y0155154D01*
X0139928Y0154376D01*
X0139814Y0153658D01*
X0144500Y0153658D01*
X0144500Y0152658D01*
X0139814Y0152658D01*
X0139928Y0151940D01*
X0140181Y0151162D01*
X0140553Y0150433D01*
X0141034Y0149771D01*
X0141612Y0149192D01*
X0142275Y0148711D01*
X0143004Y0148339D01*
X0143782Y0148086D01*
X0143818Y0148081D01*
X0142168Y0147397D01*
X0140761Y0145990D01*
X0140000Y0144153D01*
X0140000Y0142164D01*
X0140761Y0140326D01*
X0141517Y0139570D02*
X0057100Y0139570D01*
X0057100Y0138572D02*
X0143007Y0138572D01*
X0142594Y0137573D02*
X0057107Y0137573D01*
X0057491Y0136575D02*
X0141346Y0136575D01*
X0140590Y0135576D02*
X0057455Y0135576D01*
X0056942Y0134578D02*
X0140176Y0134578D01*
X0140000Y0133579D02*
X0038320Y0133579D01*
X0038364Y0133605D02*
X0039809Y0134617D01*
X0041160Y0135750D01*
X0042408Y0136998D01*
X0043542Y0138349D01*
X0044553Y0139794D01*
X0045435Y0141322D01*
X0046181Y0142920D01*
X0046784Y0144578D01*
X0047032Y0145504D01*
X0047139Y0145247D01*
X0047839Y0144547D01*
X0048755Y0144168D01*
X0049745Y0144168D01*
X0050661Y0144547D01*
X0051361Y0145247D01*
X0051741Y0146163D01*
X0051741Y0147154D01*
X0051361Y0148069D01*
X0050661Y0148770D01*
X0049745Y0149149D01*
X0048755Y0149149D01*
X0047839Y0148770D01*
X0047591Y0148521D01*
X0047701Y0149776D01*
X0047701Y0150158D01*
X0028000Y0150158D01*
X0028000Y0130457D01*
X0028382Y0130457D01*
X0030139Y0130611D01*
X0031876Y0130917D01*
X0033580Y0131374D01*
X0035238Y0131977D01*
X0036837Y0132723D01*
X0038364Y0133605D01*
X0039754Y0134578D02*
X0053058Y0134578D01*
X0052545Y0135576D02*
X0040953Y0135576D01*
X0041985Y0136575D02*
X0052509Y0136575D01*
X0052893Y0137573D02*
X0042891Y0137573D01*
X0043698Y0138572D02*
X0052900Y0138572D01*
X0052900Y0139570D02*
X0044397Y0139570D01*
X0045001Y0140569D02*
X0052900Y0140569D01*
X0052900Y0141567D02*
X0045550Y0141567D01*
X0046016Y0142566D02*
X0052900Y0142566D01*
X0052900Y0143564D02*
X0046415Y0143564D01*
X0046779Y0144563D02*
X0047823Y0144563D01*
X0050677Y0144563D02*
X0052900Y0144563D01*
X0052900Y0145561D02*
X0051491Y0145561D01*
X0051741Y0146560D02*
X0052900Y0146560D01*
X0052900Y0147558D02*
X0051573Y0147558D01*
X0050873Y0148557D02*
X0052900Y0148557D01*
X0052633Y0149555D02*
X0047681Y0149555D01*
X0047627Y0148557D02*
X0047594Y0148557D01*
X0045647Y0159541D02*
X0133250Y0159541D01*
X0133250Y0160539D02*
X0045121Y0160539D01*
X0044543Y0161538D02*
X0133250Y0161538D01*
X0133250Y0162536D02*
X0043844Y0162536D01*
X0043066Y0163535D02*
X0111722Y0163535D01*
X0112005Y0163418D02*
X0112995Y0163418D01*
X0113911Y0163797D01*
X0114611Y0164497D01*
X0114991Y0165413D01*
X0114991Y0166404D01*
X0114611Y0167319D01*
X0113911Y0168020D01*
X0112995Y0168399D01*
X0112005Y0168399D01*
X0111089Y0168020D01*
X0110678Y0167608D01*
X0105704Y0167608D01*
X0090241Y0183072D01*
X0090241Y0183654D01*
X0089861Y0184569D01*
X0089161Y0185270D01*
X0088245Y0185649D01*
X0087255Y0185649D01*
X0086339Y0185270D01*
X0085639Y0184569D01*
X0085259Y0183654D01*
X0085259Y0182663D01*
X0085639Y0181747D01*
X0086339Y0181047D01*
X0087255Y0180668D01*
X0087836Y0180668D01*
X0104296Y0164208D01*
X0110678Y0164208D01*
X0111089Y0163797D01*
X0112005Y0163418D01*
X0113278Y0163535D02*
X0133250Y0163535D01*
X0133250Y0164533D02*
X0114626Y0164533D01*
X0114991Y0165532D02*
X0133250Y0165532D01*
X0133250Y0166530D02*
X0114938Y0166530D01*
X0114402Y0167529D02*
X0133250Y0167529D01*
X0133250Y0168527D02*
X0104785Y0168527D01*
X0103787Y0169526D02*
X0133250Y0169526D01*
X0133250Y0170524D02*
X0102788Y0170524D01*
X0101790Y0171523D02*
X0133250Y0171523D01*
X0133250Y0172521D02*
X0100791Y0172521D01*
X0099793Y0173520D02*
X0133250Y0173520D01*
X0133250Y0174518D02*
X0098794Y0174518D01*
X0097796Y0175517D02*
X0133250Y0175517D01*
X0132857Y0176515D02*
X0096797Y0176515D01*
X0095799Y0177514D02*
X0131859Y0177514D01*
X0130872Y0178512D02*
X0094800Y0178512D01*
X0093802Y0179511D02*
X0130500Y0179511D01*
X0130543Y0180509D02*
X0092803Y0180509D01*
X0091805Y0181508D02*
X0131064Y0181508D01*
X0134936Y0181508D02*
X0140272Y0181508D01*
X0140000Y0182164D02*
X0140761Y0180326D01*
X0142168Y0178919D01*
X0144005Y0178158D01*
X0142168Y0177397D01*
X0140761Y0175990D01*
X0140000Y0174153D01*
X0140000Y0172164D01*
X0140761Y0170326D01*
X0142168Y0168919D01*
X0144005Y0168158D01*
X0145995Y0168158D01*
X0147832Y0168919D01*
X0149239Y0170326D01*
X0150000Y0172164D01*
X0150000Y0174153D01*
X0149239Y0175990D01*
X0147832Y0177397D01*
X0145995Y0178158D01*
X0144005Y0178158D01*
X0145995Y0178158D01*
X0147832Y0178919D01*
X0149239Y0180326D01*
X0150000Y0182164D01*
X0150000Y0184153D01*
X0149239Y0185990D01*
X0147832Y0187397D01*
X0145995Y0188158D01*
X0144005Y0188158D01*
X0142168Y0187397D01*
X0140761Y0185990D01*
X0140000Y0184153D01*
X0140000Y0182164D01*
X0140000Y0182506D02*
X0090806Y0182506D01*
X0090241Y0183505D02*
X0140000Y0183505D01*
X0140145Y0184503D02*
X0089889Y0184503D01*
X0088600Y0185502D02*
X0140559Y0185502D01*
X0141271Y0186500D02*
X0045600Y0186500D01*
X0045600Y0185502D02*
X0086900Y0185502D01*
X0085611Y0184503D02*
X0045600Y0184503D01*
X0045600Y0184080D02*
X0045600Y0205028D01*
X0044370Y0206258D01*
X0035370Y0215258D01*
X0020370Y0215258D01*
X0012350Y0223278D01*
X0012350Y0231278D01*
X0010000Y0233628D01*
X0010000Y0237873D01*
X0014286Y0242158D01*
X0060214Y0242158D01*
X0066724Y0235649D01*
X0065755Y0235649D01*
X0064839Y0235270D01*
X0064139Y0234569D01*
X0063759Y0233654D01*
X0063759Y0232663D01*
X0064139Y0231747D01*
X0064839Y0231047D01*
X0065295Y0230858D01*
X0057955Y0230858D01*
X0058411Y0231047D01*
X0059111Y0231747D01*
X0059491Y0232663D01*
X0059491Y0233654D01*
X0059111Y0234569D01*
X0058411Y0235270D01*
X0057495Y0235649D01*
X0056505Y0235649D01*
X0055752Y0235337D01*
X0055991Y0235913D01*
X0055991Y0236904D01*
X0055611Y0237819D01*
X0054911Y0238520D01*
X0053995Y0238899D01*
X0053005Y0238899D01*
X0052089Y0238520D01*
X0051389Y0237819D01*
X0051009Y0236904D01*
X0051009Y0235913D01*
X0051389Y0234997D01*
X0052089Y0234297D01*
X0053005Y0233918D01*
X0053995Y0233918D01*
X0054748Y0234229D01*
X0054509Y0233654D01*
X0054509Y0232663D01*
X0054889Y0231747D01*
X0055589Y0231047D01*
X0056045Y0230858D01*
X0049296Y0230858D01*
X0048300Y0229862D01*
X0045546Y0227108D01*
X0026072Y0227108D01*
X0025661Y0227520D01*
X0024745Y0227899D01*
X0023755Y0227899D01*
X0022839Y0227520D01*
X0022139Y0226819D01*
X0021759Y0225904D01*
X0021759Y0224913D01*
X0022139Y0223997D01*
X0022839Y0223297D01*
X0023755Y0222918D01*
X0024745Y0222918D01*
X0025661Y0223297D01*
X0026072Y0223708D01*
X0046954Y0223708D01*
X0050704Y0227458D01*
X0091046Y0227458D01*
X0095509Y0222995D01*
X0095509Y0222413D01*
X0095889Y0221497D01*
X0096589Y0220797D01*
X0097505Y0220418D01*
X0098495Y0220418D01*
X0099411Y0220797D01*
X0100111Y0221497D01*
X0100491Y0222413D01*
X0100491Y0223404D01*
X0100111Y0224319D01*
X0099411Y0225020D01*
X0098495Y0225399D01*
X0097914Y0225399D01*
X0092454Y0230858D01*
X0067205Y0230858D01*
X0067661Y0231047D01*
X0068361Y0231747D01*
X0068741Y0232663D01*
X0068741Y0233632D01*
X0068834Y0233539D01*
X0069753Y0233158D01*
X0092747Y0233158D01*
X0093666Y0233539D01*
X0094369Y0234242D01*
X0094750Y0235161D01*
X0094750Y0236155D01*
X0094369Y0237074D01*
X0093666Y0237778D01*
X0092747Y0238158D01*
X0073076Y0238158D01*
X0073411Y0238297D01*
X0074111Y0238997D01*
X0074491Y0239913D01*
X0074491Y0240904D01*
X0074111Y0241819D01*
X0074092Y0241839D01*
X0074505Y0241668D01*
X0075495Y0241668D01*
X0076411Y0242047D01*
X0077111Y0242747D01*
X0077491Y0243663D01*
X0077491Y0244654D01*
X0077111Y0245569D01*
X0076411Y0246270D01*
X0075495Y0246649D01*
X0074505Y0246649D01*
X0073589Y0246270D01*
X0072889Y0245569D01*
X0072509Y0244654D01*
X0072509Y0243663D01*
X0072889Y0242747D01*
X0072908Y0242728D01*
X0072495Y0242899D01*
X0071505Y0242899D01*
X0070589Y0242520D01*
X0069889Y0241819D01*
X0069509Y0240904D01*
X0069509Y0239934D01*
X0062666Y0246778D01*
X0061747Y0247158D01*
X0012753Y0247158D01*
X0011834Y0246778D01*
X0011131Y0246074D01*
X0005381Y0240324D01*
X0005000Y0239405D01*
X0005000Y0232661D01*
X0005381Y0231742D01*
X0006084Y0231039D01*
X0007003Y0230658D01*
X0007030Y0230658D01*
X0008150Y0229538D01*
X0008150Y0221538D01*
X0017400Y0212288D01*
X0018630Y0211058D01*
X0021400Y0211058D01*
X0021400Y0206080D01*
X0021389Y0206069D01*
X0021009Y0205154D01*
X0021009Y0204163D01*
X0021389Y0203247D01*
X0022089Y0202547D01*
X0023005Y0202168D01*
X0023995Y0202168D01*
X0024911Y0202547D01*
X0025611Y0203247D01*
X0025991Y0204163D01*
X0025991Y0205154D01*
X0025611Y0206069D01*
X0025600Y0206080D01*
X0025600Y0211058D01*
X0033630Y0211058D01*
X0041400Y0203288D01*
X0041400Y0184080D01*
X0041389Y0184069D01*
X0041009Y0183154D01*
X0041009Y0182163D01*
X0041389Y0181247D01*
X0042089Y0180547D01*
X0043005Y0180168D01*
X0043995Y0180168D01*
X0044911Y0180547D01*
X0045611Y0181247D01*
X0045991Y0182163D01*
X0045991Y0183154D01*
X0045611Y0184069D01*
X0045600Y0184080D01*
X0045845Y0183505D02*
X0085259Y0183505D01*
X0085324Y0182506D02*
X0045991Y0182506D01*
X0045719Y0181508D02*
X0085878Y0181508D01*
X0087995Y0180509D02*
X0044820Y0180509D01*
X0042180Y0180509D02*
X0039991Y0180509D01*
X0039991Y0180163D02*
X0039991Y0181154D01*
X0039611Y0182069D01*
X0039300Y0182380D01*
X0039300Y0202904D01*
X0033741Y0208463D01*
X0033741Y0208904D01*
X0033361Y0209819D01*
X0032661Y0210520D01*
X0031745Y0210899D01*
X0030755Y0210899D01*
X0029839Y0210520D01*
X0029139Y0209819D01*
X0028759Y0208904D01*
X0028759Y0207913D01*
X0029139Y0206997D01*
X0029839Y0206297D01*
X0030755Y0205918D01*
X0031195Y0205918D01*
X0035700Y0201413D01*
X0035700Y0182380D01*
X0035389Y0182069D01*
X0035099Y0181370D01*
X0035099Y0189189D01*
X0034338Y0189950D01*
X0020662Y0189950D01*
X0019901Y0189189D01*
X0019901Y0175513D01*
X0020662Y0174752D01*
X0034338Y0174752D01*
X0035099Y0175513D01*
X0035099Y0179946D01*
X0035389Y0179247D01*
X0036089Y0178547D01*
X0037005Y0178168D01*
X0037995Y0178168D01*
X0038911Y0178547D01*
X0039611Y0179247D01*
X0039991Y0180163D01*
X0039720Y0179511D02*
X0088993Y0179511D01*
X0089992Y0178512D02*
X0038827Y0178512D01*
X0037500Y0180658D02*
X0037500Y0202158D01*
X0031250Y0208408D01*
X0028943Y0207469D02*
X0025600Y0207469D01*
X0025600Y0206471D02*
X0029665Y0206471D01*
X0028759Y0208468D02*
X0025600Y0208468D01*
X0025600Y0209466D02*
X0028992Y0209466D01*
X0029784Y0210465D02*
X0025600Y0210465D01*
X0021400Y0210465D02*
X0004000Y0210465D01*
X0004000Y0211463D02*
X0018225Y0211463D01*
X0017227Y0212462D02*
X0004000Y0212462D01*
X0004000Y0213460D02*
X0016228Y0213460D01*
X0015230Y0214459D02*
X0004000Y0214459D01*
X0004000Y0215457D02*
X0014231Y0215457D01*
X0013233Y0216456D02*
X0004000Y0216456D01*
X0004000Y0217454D02*
X0012234Y0217454D01*
X0011236Y0218453D02*
X0004000Y0218453D01*
X0004000Y0219451D02*
X0010237Y0219451D01*
X0009239Y0220450D02*
X0004000Y0220450D01*
X0004000Y0221448D02*
X0008240Y0221448D01*
X0008150Y0222447D02*
X0004000Y0222447D01*
X0004000Y0223445D02*
X0008150Y0223445D01*
X0008150Y0224444D02*
X0004000Y0224444D01*
X0004000Y0225442D02*
X0008150Y0225442D01*
X0008150Y0226441D02*
X0004000Y0226441D01*
X0004000Y0227439D02*
X0008150Y0227439D01*
X0008150Y0228438D02*
X0004000Y0228438D01*
X0004000Y0229436D02*
X0008150Y0229436D01*
X0007253Y0230435D02*
X0004000Y0230435D01*
X0004000Y0231433D02*
X0005689Y0231433D01*
X0005095Y0232432D02*
X0004000Y0232432D01*
X0004000Y0233430D02*
X0005000Y0233430D01*
X0005000Y0234429D02*
X0004000Y0234429D01*
X0004000Y0235427D02*
X0005000Y0235427D01*
X0005000Y0236426D02*
X0004000Y0236426D01*
X0004000Y0237424D02*
X0005000Y0237424D01*
X0005000Y0238423D02*
X0004000Y0238423D01*
X0004000Y0239421D02*
X0005007Y0239421D01*
X0005476Y0240420D02*
X0004000Y0240420D01*
X0004000Y0241418D02*
X0006475Y0241418D01*
X0007473Y0242417D02*
X0004000Y0242417D01*
X0004000Y0243415D02*
X0008472Y0243415D01*
X0009470Y0244414D02*
X0004000Y0244414D01*
X0004000Y0245413D02*
X0010469Y0245413D01*
X0011467Y0246411D02*
X0004000Y0246411D01*
X0004000Y0247410D02*
X0067509Y0247410D01*
X0067509Y0247163D02*
X0067889Y0246247D01*
X0068589Y0245547D01*
X0069505Y0245168D01*
X0070495Y0245168D01*
X0071411Y0245547D01*
X0072111Y0246247D01*
X0072491Y0247163D01*
X0072491Y0248154D01*
X0072111Y0249069D01*
X0071411Y0249770D01*
X0070495Y0250149D01*
X0069505Y0250149D01*
X0068589Y0249770D01*
X0068143Y0249323D01*
X0068491Y0250163D01*
X0068491Y0251154D01*
X0068111Y0252069D01*
X0067411Y0252770D01*
X0066495Y0253149D01*
X0065505Y0253149D01*
X0064589Y0252770D01*
X0063889Y0252069D01*
X0063509Y0251154D01*
X0063509Y0250163D01*
X0063889Y0249247D01*
X0064589Y0248547D01*
X0065505Y0248168D01*
X0066495Y0248168D01*
X0067411Y0248547D01*
X0067857Y0248993D01*
X0067509Y0248154D01*
X0067509Y0247163D01*
X0067821Y0246411D02*
X0063033Y0246411D01*
X0064031Y0245413D02*
X0068913Y0245413D01*
X0071087Y0245413D02*
X0072824Y0245413D01*
X0072509Y0244414D02*
X0065030Y0244414D01*
X0066028Y0243415D02*
X0072612Y0243415D01*
X0070487Y0242417D02*
X0067027Y0242417D01*
X0068025Y0241418D02*
X0069723Y0241418D01*
X0069509Y0240420D02*
X0069024Y0240420D01*
X0073537Y0238423D02*
X0201000Y0238423D01*
X0201000Y0239421D02*
X0105766Y0239421D01*
X0106472Y0239714D02*
X0108444Y0241686D01*
X0109512Y0244263D01*
X0109512Y0247053D01*
X0108444Y0249630D01*
X0106472Y0251602D01*
X0103895Y0252670D01*
X0101105Y0252670D01*
X0098528Y0251602D01*
X0096556Y0249630D01*
X0095488Y0247053D01*
X0095488Y0244263D01*
X0096556Y0241686D01*
X0098528Y0239714D01*
X0101105Y0238646D01*
X0103895Y0238646D01*
X0106472Y0239714D01*
X0107178Y0240420D02*
X0131216Y0240420D01*
X0130889Y0240747D02*
X0131589Y0240047D01*
X0132505Y0239668D01*
X0133495Y0239668D01*
X0134411Y0240047D01*
X0135111Y0240747D01*
X0135491Y0241663D01*
X0135491Y0242654D01*
X0135111Y0243569D01*
X0134411Y0244270D01*
X0133495Y0244649D01*
X0132505Y0244649D01*
X0131589Y0244270D01*
X0130889Y0243569D01*
X0130509Y0242654D01*
X0130509Y0241663D01*
X0130889Y0240747D01*
X0130611Y0241418D02*
X0108177Y0241418D01*
X0108747Y0242417D02*
X0130509Y0242417D01*
X0130825Y0243415D02*
X0109161Y0243415D01*
X0109512Y0244414D02*
X0131938Y0244414D01*
X0134062Y0244414D02*
X0201000Y0244414D01*
X0201000Y0243415D02*
X0135175Y0243415D01*
X0135491Y0242417D02*
X0201000Y0242417D01*
X0201000Y0241418D02*
X0135389Y0241418D01*
X0134784Y0240420D02*
X0201000Y0240420D01*
X0201000Y0237424D02*
X0134756Y0237424D01*
X0134411Y0237770D02*
X0133495Y0238149D01*
X0132505Y0238149D01*
X0131589Y0237770D01*
X0130889Y0237069D01*
X0130509Y0236154D01*
X0130509Y0235163D01*
X0130889Y0234247D01*
X0131589Y0233547D01*
X0132505Y0233168D01*
X0133495Y0233168D01*
X0134411Y0233547D01*
X0135111Y0234247D01*
X0135491Y0235163D01*
X0135491Y0236154D01*
X0135111Y0237069D01*
X0134411Y0237770D01*
X0135378Y0236426D02*
X0201000Y0236426D01*
X0201000Y0235427D02*
X0135491Y0235427D01*
X0135187Y0234429D02*
X0201000Y0234429D01*
X0201000Y0233430D02*
X0134130Y0233430D01*
X0131870Y0233430D02*
X0093405Y0233430D01*
X0094447Y0234429D02*
X0130813Y0234429D01*
X0130509Y0235427D02*
X0094750Y0235427D01*
X0094638Y0236426D02*
X0130622Y0236426D01*
X0131244Y0237424D02*
X0094019Y0237424D01*
X0097822Y0240420D02*
X0074491Y0240420D01*
X0074287Y0239421D02*
X0099234Y0239421D01*
X0096823Y0241418D02*
X0074277Y0241418D01*
X0076781Y0242417D02*
X0096253Y0242417D01*
X0095839Y0243415D02*
X0077388Y0243415D01*
X0077491Y0244414D02*
X0095488Y0244414D01*
X0095488Y0245413D02*
X0077176Y0245413D01*
X0076069Y0246411D02*
X0095488Y0246411D01*
X0095636Y0247410D02*
X0072491Y0247410D01*
X0072385Y0248408D02*
X0096050Y0248408D01*
X0096463Y0249407D02*
X0071774Y0249407D01*
X0072179Y0246411D02*
X0073931Y0246411D01*
X0068226Y0249407D02*
X0068177Y0249407D01*
X0068491Y0250405D02*
X0097331Y0250405D01*
X0098329Y0251404D02*
X0068387Y0251404D01*
X0067778Y0252402D02*
X0100459Y0252402D01*
X0104541Y0252402D02*
X0150722Y0252402D01*
X0150389Y0252069D02*
X0150009Y0251154D01*
X0150009Y0250163D01*
X0150389Y0249247D01*
X0151089Y0248547D01*
X0152005Y0248168D01*
X0152995Y0248168D01*
X0153911Y0248547D01*
X0154611Y0249247D01*
X0154991Y0250163D01*
X0154991Y0251154D01*
X0154611Y0252069D01*
X0153911Y0252770D01*
X0152995Y0253149D01*
X0152005Y0253149D01*
X0151089Y0252770D01*
X0150389Y0252069D01*
X0150113Y0251404D02*
X0106671Y0251404D01*
X0107669Y0250405D02*
X0150009Y0250405D01*
X0150323Y0249407D02*
X0108537Y0249407D01*
X0108950Y0248408D02*
X0151424Y0248408D01*
X0153576Y0248408D02*
X0201000Y0248408D01*
X0201000Y0247410D02*
X0109364Y0247410D01*
X0109512Y0246411D02*
X0201000Y0246411D01*
X0201000Y0245413D02*
X0109512Y0245413D01*
X0094874Y0228438D02*
X0130509Y0228438D01*
X0130509Y0228654D02*
X0130509Y0227663D01*
X0130889Y0226747D01*
X0131589Y0226047D01*
X0132505Y0225668D01*
X0133495Y0225668D01*
X0134411Y0226047D01*
X0135111Y0226747D01*
X0135491Y0227663D01*
X0135491Y0228654D01*
X0135111Y0229569D01*
X0134411Y0230270D01*
X0133495Y0230649D01*
X0132505Y0230649D01*
X0131589Y0230270D01*
X0130889Y0229569D01*
X0130509Y0228654D01*
X0130834Y0229436D02*
X0093876Y0229436D01*
X0092877Y0230435D02*
X0131988Y0230435D01*
X0134012Y0230435D02*
X0201000Y0230435D01*
X0201000Y0231433D02*
X0068047Y0231433D01*
X0068645Y0232432D02*
X0201000Y0232432D01*
X0201000Y0229436D02*
X0135166Y0229436D01*
X0135491Y0228438D02*
X0201000Y0228438D01*
X0201000Y0227439D02*
X0135398Y0227439D01*
X0134805Y0226441D02*
X0183747Y0226441D01*
X0184084Y0226778D02*
X0183381Y0226074D01*
X0183000Y0225155D01*
X0183000Y0195661D01*
X0183381Y0194742D01*
X0184084Y0194039D01*
X0185003Y0193658D01*
X0185997Y0193658D01*
X0186916Y0194039D01*
X0187619Y0194742D01*
X0188000Y0195661D01*
X0188000Y0225155D01*
X0187619Y0226074D01*
X0186916Y0226778D01*
X0185997Y0227158D01*
X0185003Y0227158D01*
X0184084Y0226778D01*
X0183119Y0225442D02*
X0097870Y0225442D01*
X0096871Y0226441D02*
X0131195Y0226441D01*
X0130602Y0227439D02*
X0095873Y0227439D01*
X0093062Y0225442D02*
X0085871Y0225442D01*
X0085991Y0225154D02*
X0085611Y0226069D01*
X0084911Y0226770D01*
X0083995Y0227149D01*
X0083005Y0227149D01*
X0082089Y0226770D01*
X0081389Y0226069D01*
X0081009Y0225154D01*
X0081009Y0224163D01*
X0081389Y0223247D01*
X0082089Y0222547D01*
X0083005Y0222168D01*
X0083995Y0222168D01*
X0084911Y0222547D01*
X0085611Y0223247D01*
X0085991Y0224163D01*
X0085991Y0225154D01*
X0085991Y0224444D02*
X0090013Y0224444D01*
X0090339Y0224770D02*
X0089639Y0224069D01*
X0089259Y0223154D01*
X0089259Y0222171D01*
X0088911Y0222520D01*
X0087995Y0222899D01*
X0087005Y0222899D01*
X0086089Y0222520D01*
X0085389Y0221819D01*
X0085009Y0220904D01*
X0085009Y0219913D01*
X0085389Y0218997D01*
X0086089Y0218297D01*
X0087005Y0217918D01*
X0087995Y0217918D01*
X0088911Y0218297D01*
X0089611Y0218997D01*
X0089950Y0219815D01*
X0089950Y0201630D01*
X0089639Y0201319D01*
X0089259Y0200404D01*
X0089259Y0199413D01*
X0089639Y0198497D01*
X0090339Y0197797D01*
X0091255Y0197418D01*
X0092245Y0197418D01*
X0093161Y0197797D01*
X0093861Y0198497D01*
X0094241Y0199413D01*
X0094241Y0200404D01*
X0093861Y0201319D01*
X0093550Y0201630D01*
X0093550Y0220936D01*
X0093861Y0221247D01*
X0094241Y0222163D01*
X0094241Y0223154D01*
X0093861Y0224069D01*
X0093161Y0224770D01*
X0092245Y0225149D01*
X0091255Y0225149D01*
X0090339Y0224770D01*
X0089380Y0223445D02*
X0085693Y0223445D01*
X0086016Y0222447D02*
X0084669Y0222447D01*
X0085235Y0221448D02*
X0079173Y0221448D01*
X0079411Y0221547D02*
X0080111Y0222247D01*
X0080491Y0223163D01*
X0080491Y0224154D01*
X0080111Y0225069D01*
X0079411Y0225770D01*
X0078495Y0226149D01*
X0077505Y0226149D01*
X0076589Y0225770D01*
X0075889Y0225069D01*
X0075509Y0224154D01*
X0075509Y0223303D01*
X0074704Y0224108D01*
X0071954Y0226858D01*
X0051546Y0226858D01*
X0050550Y0225862D01*
X0047550Y0222862D01*
X0047550Y0220480D01*
X0047139Y0220069D01*
X0046759Y0219154D01*
X0046759Y0218163D01*
X0047139Y0217247D01*
X0047839Y0216547D01*
X0048755Y0216168D01*
X0049745Y0216168D01*
X0050661Y0216547D01*
X0051361Y0217247D01*
X0051741Y0218163D01*
X0051741Y0219154D01*
X0051361Y0220069D01*
X0050950Y0220480D01*
X0050950Y0221454D01*
X0052954Y0223458D01*
X0070546Y0223458D01*
X0072300Y0221704D01*
X0072300Y0215230D01*
X0071889Y0214819D01*
X0071509Y0213904D01*
X0071509Y0212913D01*
X0071889Y0211997D01*
X0072589Y0211297D01*
X0073505Y0210918D01*
X0074495Y0210918D01*
X0075411Y0211297D01*
X0076111Y0211997D01*
X0076491Y0212913D01*
X0076491Y0213904D01*
X0076111Y0214819D01*
X0075700Y0215230D01*
X0075700Y0222703D01*
X0075889Y0222247D01*
X0076589Y0221547D01*
X0077505Y0221168D01*
X0078495Y0221168D01*
X0079411Y0221547D01*
X0080194Y0222447D02*
X0082331Y0222447D01*
X0081307Y0223445D02*
X0080491Y0223445D01*
X0080370Y0224444D02*
X0081009Y0224444D01*
X0081129Y0225442D02*
X0079738Y0225442D01*
X0081760Y0226441D02*
X0072371Y0226441D01*
X0073370Y0225442D02*
X0076262Y0225442D01*
X0075630Y0224444D02*
X0074369Y0224444D01*
X0075367Y0223445D02*
X0075509Y0223445D01*
X0075700Y0222447D02*
X0075806Y0222447D01*
X0075700Y0221448D02*
X0076827Y0221448D01*
X0075700Y0220450D02*
X0085009Y0220450D01*
X0085201Y0219451D02*
X0075700Y0219451D01*
X0075700Y0218453D02*
X0085933Y0218453D01*
X0089067Y0218453D02*
X0089950Y0218453D01*
X0089950Y0219451D02*
X0089799Y0219451D01*
X0089950Y0217454D02*
X0075700Y0217454D01*
X0075700Y0216456D02*
X0089950Y0216456D01*
X0089950Y0215457D02*
X0075700Y0215457D01*
X0076261Y0214459D02*
X0089950Y0214459D01*
X0089950Y0213460D02*
X0076491Y0213460D01*
X0076304Y0212462D02*
X0089950Y0212462D01*
X0089950Y0211463D02*
X0075577Y0211463D01*
X0072423Y0211463D02*
X0070466Y0211463D01*
X0070491Y0211404D02*
X0070111Y0212319D01*
X0069411Y0213020D01*
X0069053Y0213168D01*
X0069495Y0213168D01*
X0070411Y0213547D01*
X0071111Y0214247D01*
X0071491Y0215163D01*
X0071491Y0216154D01*
X0071111Y0217069D01*
X0070411Y0217770D01*
X0069495Y0218149D01*
X0068505Y0218149D01*
X0067589Y0217770D01*
X0066889Y0217069D01*
X0066509Y0216154D01*
X0066509Y0215163D01*
X0066889Y0214247D01*
X0067589Y0213547D01*
X0067947Y0213399D01*
X0067505Y0213399D01*
X0066589Y0213020D01*
X0065889Y0212319D01*
X0065509Y0211404D01*
X0065509Y0210413D01*
X0065857Y0209573D01*
X0065411Y0210020D01*
X0064495Y0210399D01*
X0063505Y0210399D01*
X0062589Y0210020D01*
X0061889Y0209319D01*
X0061509Y0208404D01*
X0061509Y0207413D01*
X0061680Y0207000D01*
X0061411Y0207270D01*
X0060495Y0207649D01*
X0059505Y0207649D01*
X0058589Y0207270D01*
X0057889Y0206569D01*
X0057509Y0205654D01*
X0057509Y0204663D01*
X0057550Y0204566D01*
X0056745Y0204899D01*
X0055755Y0204899D01*
X0054839Y0204520D01*
X0054139Y0203819D01*
X0053759Y0202904D01*
X0053759Y0201913D01*
X0054139Y0200997D01*
X0054839Y0200297D01*
X0055755Y0199918D01*
X0056745Y0199918D01*
X0057661Y0200297D01*
X0058361Y0200997D01*
X0058741Y0201913D01*
X0058741Y0202904D01*
X0058700Y0203001D01*
X0059505Y0202668D01*
X0060495Y0202668D01*
X0061411Y0203047D01*
X0062111Y0203747D01*
X0062491Y0204663D01*
X0062491Y0205654D01*
X0062319Y0206066D01*
X0062589Y0205797D01*
X0063505Y0205418D01*
X0064495Y0205418D01*
X0065411Y0205797D01*
X0066111Y0206497D01*
X0066491Y0207413D01*
X0066491Y0208404D01*
X0066143Y0209243D01*
X0066589Y0208797D01*
X0067505Y0208418D01*
X0068495Y0208418D01*
X0069411Y0208797D01*
X0070111Y0209497D01*
X0070491Y0210413D01*
X0070491Y0211404D01*
X0070491Y0210465D02*
X0089950Y0210465D01*
X0089950Y0209466D02*
X0070080Y0209466D01*
X0068616Y0208468D02*
X0089950Y0208468D01*
X0089950Y0207469D02*
X0066491Y0207469D01*
X0066464Y0208468D02*
X0067384Y0208468D01*
X0066085Y0206471D02*
X0089950Y0206471D01*
X0089950Y0205472D02*
X0064627Y0205472D01*
X0063373Y0205472D02*
X0062491Y0205472D01*
X0062412Y0204474D02*
X0089950Y0204474D01*
X0089950Y0203475D02*
X0061839Y0203475D01*
X0061509Y0207469D02*
X0060929Y0207469D01*
X0061536Y0208468D02*
X0042160Y0208468D01*
X0041162Y0209466D02*
X0062036Y0209466D01*
X0065509Y0210465D02*
X0040163Y0210465D01*
X0039165Y0211463D02*
X0065534Y0211463D01*
X0066031Y0212462D02*
X0038166Y0212462D01*
X0037168Y0213460D02*
X0067798Y0213460D01*
X0066801Y0214459D02*
X0036169Y0214459D01*
X0035661Y0215797D02*
X0034745Y0215418D01*
X0033755Y0215418D01*
X0032839Y0215797D01*
X0032139Y0216497D01*
X0031759Y0217413D01*
X0031759Y0218404D01*
X0032139Y0219319D01*
X0032839Y0220020D01*
X0033755Y0220399D01*
X0034745Y0220399D01*
X0035661Y0220020D01*
X0036361Y0219319D01*
X0036741Y0218404D01*
X0036741Y0217413D01*
X0036361Y0216497D01*
X0035661Y0215797D01*
X0034841Y0215457D02*
X0040159Y0215457D01*
X0040255Y0215418D02*
X0041245Y0215418D01*
X0042161Y0215797D01*
X0042861Y0216497D01*
X0043241Y0217413D01*
X0043241Y0218404D01*
X0042861Y0219319D01*
X0042161Y0220020D01*
X0041245Y0220399D01*
X0040255Y0220399D01*
X0039339Y0220020D01*
X0038639Y0219319D01*
X0038259Y0218404D01*
X0038259Y0217413D01*
X0038639Y0216497D01*
X0039339Y0215797D01*
X0040255Y0215418D01*
X0041341Y0215457D02*
X0066509Y0215457D01*
X0066635Y0216456D02*
X0056191Y0216456D01*
X0056411Y0216547D02*
X0057111Y0217247D01*
X0057491Y0218163D01*
X0057491Y0219154D01*
X0057111Y0220069D01*
X0056411Y0220770D01*
X0055495Y0221149D01*
X0054505Y0221149D01*
X0053589Y0220770D01*
X0052889Y0220069D01*
X0052509Y0219154D01*
X0052509Y0218163D01*
X0052889Y0217247D01*
X0053589Y0216547D01*
X0054505Y0216168D01*
X0055495Y0216168D01*
X0056411Y0216547D01*
X0057197Y0217454D02*
X0067274Y0217454D01*
X0068339Y0218547D02*
X0067639Y0219247D01*
X0067259Y0220163D01*
X0067259Y0221154D01*
X0067639Y0222069D01*
X0068339Y0222770D01*
X0069255Y0223149D01*
X0070245Y0223149D01*
X0071161Y0222770D01*
X0071861Y0222069D01*
X0072241Y0221154D01*
X0072241Y0220163D01*
X0071861Y0219247D01*
X0071161Y0218547D01*
X0070245Y0218168D01*
X0069255Y0218168D01*
X0068339Y0218547D01*
X0068566Y0218453D02*
X0057491Y0218453D01*
X0057367Y0219451D02*
X0067554Y0219451D01*
X0067259Y0220450D02*
X0056731Y0220450D01*
X0053269Y0220450D02*
X0050981Y0220450D01*
X0050950Y0221448D02*
X0067382Y0221448D01*
X0068016Y0222447D02*
X0051943Y0222447D01*
X0052941Y0223445D02*
X0070559Y0223445D01*
X0071484Y0222447D02*
X0071557Y0222447D01*
X0072118Y0221448D02*
X0072300Y0221448D01*
X0072300Y0220450D02*
X0072241Y0220450D01*
X0072300Y0219451D02*
X0071946Y0219451D01*
X0072300Y0218453D02*
X0070934Y0218453D01*
X0070726Y0217454D02*
X0072300Y0217454D01*
X0072300Y0216456D02*
X0071365Y0216456D01*
X0071491Y0215457D02*
X0072300Y0215457D01*
X0071739Y0214459D02*
X0071199Y0214459D01*
X0071509Y0213460D02*
X0070202Y0213460D01*
X0069969Y0212462D02*
X0071696Y0212462D01*
X0059071Y0207469D02*
X0043159Y0207469D01*
X0044157Y0206471D02*
X0057848Y0206471D01*
X0057509Y0205472D02*
X0045156Y0205472D01*
X0045600Y0204474D02*
X0054793Y0204474D01*
X0053996Y0203475D02*
X0045600Y0203475D01*
X0045600Y0202477D02*
X0053759Y0202477D01*
X0053940Y0201478D02*
X0045600Y0201478D01*
X0045600Y0200480D02*
X0054656Y0200480D01*
X0057844Y0200480D02*
X0089291Y0200480D01*
X0089259Y0199481D02*
X0045600Y0199481D01*
X0045600Y0198482D02*
X0089653Y0198482D01*
X0091094Y0197484D02*
X0045600Y0197484D01*
X0045600Y0196485D02*
X0141256Y0196485D01*
X0140761Y0195990D02*
X0140000Y0194153D01*
X0140000Y0192164D01*
X0140761Y0190326D01*
X0142168Y0188919D01*
X0144005Y0188158D01*
X0145995Y0188158D01*
X0147832Y0188919D01*
X0149239Y0190326D01*
X0150000Y0192164D01*
X0150000Y0194153D01*
X0149239Y0195990D01*
X0147832Y0197397D01*
X0145995Y0198158D01*
X0144005Y0198158D01*
X0142168Y0197397D01*
X0140761Y0195990D01*
X0140553Y0195487D02*
X0045600Y0195487D01*
X0045600Y0194488D02*
X0140139Y0194488D01*
X0140000Y0193490D02*
X0045600Y0193490D01*
X0045600Y0192491D02*
X0140000Y0192491D01*
X0140278Y0191493D02*
X0045600Y0191493D01*
X0045600Y0190494D02*
X0140691Y0190494D01*
X0141591Y0189496D02*
X0045600Y0189496D01*
X0045600Y0188497D02*
X0143186Y0188497D01*
X0142414Y0187499D02*
X0045600Y0187499D01*
X0041400Y0187499D02*
X0039300Y0187499D01*
X0039300Y0188497D02*
X0041400Y0188497D01*
X0041400Y0189496D02*
X0039300Y0189496D01*
X0039300Y0190494D02*
X0041400Y0190494D01*
X0041400Y0191493D02*
X0039300Y0191493D01*
X0039300Y0192491D02*
X0041400Y0192491D01*
X0041400Y0193490D02*
X0039300Y0193490D01*
X0039300Y0194488D02*
X0041400Y0194488D01*
X0041400Y0195487D02*
X0039300Y0195487D01*
X0039300Y0196485D02*
X0041400Y0196485D01*
X0041400Y0197484D02*
X0039300Y0197484D01*
X0039300Y0198482D02*
X0041400Y0198482D01*
X0041400Y0199481D02*
X0039300Y0199481D01*
X0039300Y0200480D02*
X0041400Y0200480D01*
X0041400Y0201478D02*
X0039300Y0201478D01*
X0039300Y0202477D02*
X0041400Y0202477D01*
X0041213Y0203475D02*
X0038729Y0203475D01*
X0037730Y0204474D02*
X0040215Y0204474D01*
X0039216Y0205472D02*
X0036732Y0205472D01*
X0035733Y0206471D02*
X0038218Y0206471D01*
X0037219Y0207469D02*
X0034735Y0207469D01*
X0033741Y0208468D02*
X0036221Y0208468D01*
X0035222Y0209466D02*
X0033508Y0209466D01*
X0034224Y0210465D02*
X0032716Y0210465D01*
X0033659Y0215457D02*
X0028591Y0215457D01*
X0028495Y0215418D02*
X0029411Y0215797D01*
X0030111Y0216497D01*
X0030491Y0217413D01*
X0030491Y0218404D01*
X0030111Y0219319D01*
X0029411Y0220020D01*
X0028495Y0220399D01*
X0027505Y0220399D01*
X0026589Y0220020D01*
X0025889Y0219319D01*
X0025509Y0218404D01*
X0025509Y0217413D01*
X0025889Y0216497D01*
X0026589Y0215797D01*
X0027505Y0215418D01*
X0028495Y0215418D01*
X0027409Y0215457D02*
X0020171Y0215457D01*
X0019172Y0216456D02*
X0025930Y0216456D01*
X0025509Y0217454D02*
X0018174Y0217454D01*
X0017175Y0218453D02*
X0025530Y0218453D01*
X0026021Y0219451D02*
X0016177Y0219451D01*
X0015178Y0220450D02*
X0047519Y0220450D01*
X0047550Y0221448D02*
X0018923Y0221448D01*
X0019161Y0221547D02*
X0019861Y0222247D01*
X0020241Y0223163D01*
X0020241Y0224154D01*
X0019861Y0225069D01*
X0019161Y0225770D01*
X0018245Y0226149D01*
X0017255Y0226149D01*
X0016339Y0225770D01*
X0015639Y0225069D01*
X0015259Y0224154D01*
X0015259Y0223163D01*
X0015639Y0222247D01*
X0016339Y0221547D01*
X0017255Y0221168D01*
X0018245Y0221168D01*
X0019161Y0221547D01*
X0019944Y0222447D02*
X0047550Y0222447D01*
X0048133Y0223445D02*
X0025809Y0223445D01*
X0022691Y0223445D02*
X0020241Y0223445D01*
X0020120Y0224444D02*
X0021954Y0224444D01*
X0021759Y0225442D02*
X0019488Y0225442D01*
X0020339Y0227797D02*
X0021255Y0227418D01*
X0022245Y0227418D01*
X0023161Y0227797D01*
X0023861Y0228497D01*
X0024241Y0229413D01*
X0024241Y0230404D01*
X0023861Y0231319D01*
X0023161Y0232020D01*
X0022245Y0232399D01*
X0021255Y0232399D01*
X0020339Y0232020D01*
X0019639Y0231319D01*
X0019259Y0230404D01*
X0019259Y0229413D01*
X0019639Y0228497D01*
X0020339Y0227797D01*
X0019698Y0228438D02*
X0012350Y0228438D01*
X0012350Y0229436D02*
X0019259Y0229436D01*
X0019272Y0230435D02*
X0012350Y0230435D01*
X0012195Y0231433D02*
X0015953Y0231433D01*
X0015639Y0231747D02*
X0016339Y0231047D01*
X0017255Y0230668D01*
X0018245Y0230668D01*
X0019161Y0231047D01*
X0019861Y0231747D01*
X0020241Y0232663D01*
X0020241Y0233654D01*
X0019861Y0234569D01*
X0019161Y0235270D01*
X0018245Y0235649D01*
X0017255Y0235649D01*
X0016339Y0235270D01*
X0015639Y0234569D01*
X0015259Y0233654D01*
X0015259Y0232663D01*
X0015639Y0231747D01*
X0015355Y0232432D02*
X0011196Y0232432D01*
X0010198Y0233430D02*
X0015259Y0233430D01*
X0015581Y0234429D02*
X0010000Y0234429D01*
X0010000Y0235427D02*
X0016720Y0235427D01*
X0017255Y0236918D02*
X0016339Y0237297D01*
X0015639Y0237997D01*
X0015259Y0238913D01*
X0015259Y0239904D01*
X0015639Y0240819D01*
X0016339Y0241520D01*
X0017255Y0241899D01*
X0018245Y0241899D01*
X0019161Y0241520D01*
X0019861Y0240819D01*
X0020241Y0239904D01*
X0020241Y0238913D01*
X0019893Y0238073D01*
X0020339Y0238520D01*
X0021255Y0238899D01*
X0022245Y0238899D01*
X0023161Y0238520D01*
X0023861Y0237819D01*
X0024241Y0236904D01*
X0024241Y0235913D01*
X0023861Y0234997D01*
X0023161Y0234297D01*
X0022245Y0233918D01*
X0021255Y0233918D01*
X0020339Y0234297D01*
X0019639Y0234997D01*
X0019259Y0235913D01*
X0019259Y0236904D01*
X0019607Y0237743D01*
X0019161Y0237297D01*
X0018245Y0236918D01*
X0017255Y0236918D01*
X0016212Y0237424D02*
X0010000Y0237424D01*
X0010000Y0236426D02*
X0019259Y0236426D01*
X0019288Y0237424D02*
X0019475Y0237424D01*
X0020038Y0238423D02*
X0020243Y0238423D01*
X0020241Y0239421D02*
X0062951Y0239421D01*
X0063950Y0238423D02*
X0055007Y0238423D01*
X0055775Y0237424D02*
X0064948Y0237424D01*
X0065947Y0236426D02*
X0055991Y0236426D01*
X0055970Y0235427D02*
X0055789Y0235427D01*
X0058030Y0235427D02*
X0065220Y0235427D01*
X0064081Y0234429D02*
X0059169Y0234429D01*
X0059491Y0233430D02*
X0063759Y0233430D01*
X0063855Y0232432D02*
X0059395Y0232432D01*
X0058797Y0231433D02*
X0064453Y0231433D01*
X0068741Y0233430D02*
X0069095Y0233430D01*
X0061953Y0240420D02*
X0020027Y0240420D01*
X0019262Y0241418D02*
X0060954Y0241418D01*
X0064924Y0248408D02*
X0004000Y0248408D01*
X0004000Y0249407D02*
X0063823Y0249407D01*
X0063509Y0250405D02*
X0004000Y0250405D01*
X0004000Y0251404D02*
X0063613Y0251404D01*
X0064222Y0252402D02*
X0004000Y0252402D01*
X0004000Y0253401D02*
X0201000Y0253401D01*
X0201000Y0254158D02*
X0064275Y0254158D01*
X0064023Y0253905D01*
X0010977Y0253905D01*
X0010725Y0254158D01*
X0004000Y0254158D01*
X0004000Y0082158D01*
X0201000Y0082158D01*
X0201000Y0254158D01*
X0201000Y0252402D02*
X0154278Y0252402D01*
X0154887Y0251404D02*
X0201000Y0251404D01*
X0201000Y0250405D02*
X0154991Y0250405D01*
X0154677Y0249407D02*
X0201000Y0249407D01*
X0201000Y0226441D02*
X0187253Y0226441D01*
X0187881Y0225442D02*
X0201000Y0225442D01*
X0201000Y0224444D02*
X0188000Y0224444D01*
X0188000Y0223445D02*
X0201000Y0223445D01*
X0201000Y0222447D02*
X0188000Y0222447D01*
X0188000Y0221448D02*
X0201000Y0221448D01*
X0201000Y0220450D02*
X0188000Y0220450D01*
X0188000Y0219451D02*
X0201000Y0219451D01*
X0201000Y0218453D02*
X0188000Y0218453D01*
X0188000Y0217454D02*
X0201000Y0217454D01*
X0201000Y0216456D02*
X0188000Y0216456D01*
X0188000Y0215457D02*
X0201000Y0215457D01*
X0201000Y0214459D02*
X0188000Y0214459D01*
X0188000Y0213460D02*
X0201000Y0213460D01*
X0201000Y0212462D02*
X0188000Y0212462D01*
X0188000Y0211463D02*
X0201000Y0211463D01*
X0201000Y0210465D02*
X0188000Y0210465D01*
X0188000Y0209466D02*
X0201000Y0209466D01*
X0201000Y0208468D02*
X0188000Y0208468D01*
X0188000Y0207469D02*
X0201000Y0207469D01*
X0201000Y0206471D02*
X0188000Y0206471D01*
X0188000Y0205472D02*
X0201000Y0205472D01*
X0201000Y0204474D02*
X0188000Y0204474D01*
X0188000Y0203475D02*
X0201000Y0203475D01*
X0201000Y0202477D02*
X0188000Y0202477D01*
X0188000Y0201478D02*
X0201000Y0201478D01*
X0201000Y0200480D02*
X0188000Y0200480D01*
X0188000Y0199481D02*
X0201000Y0199481D01*
X0201000Y0198482D02*
X0188000Y0198482D01*
X0188000Y0197484D02*
X0201000Y0197484D01*
X0201000Y0196485D02*
X0188000Y0196485D01*
X0187928Y0195487D02*
X0201000Y0195487D01*
X0201000Y0194488D02*
X0187366Y0194488D01*
X0188575Y0190928D02*
X0187972Y0190525D01*
X0187460Y0190013D01*
X0187057Y0189410D01*
X0186779Y0188740D01*
X0186638Y0188029D01*
X0186638Y0187757D01*
X0192409Y0187757D01*
X0192409Y0191347D01*
X0189956Y0191347D01*
X0189245Y0191206D01*
X0188575Y0190928D01*
X0187941Y0190494D02*
X0180602Y0190494D01*
X0180571Y0190525D02*
X0179968Y0190928D01*
X0179298Y0191206D01*
X0178587Y0191347D01*
X0176134Y0191347D01*
X0176134Y0187757D01*
X0175953Y0187757D01*
X0175953Y0191347D01*
X0173500Y0191347D01*
X0172788Y0191206D01*
X0172119Y0190928D01*
X0171516Y0190525D01*
X0171003Y0190013D01*
X0170600Y0189410D01*
X0170323Y0188740D01*
X0170181Y0188029D01*
X0170181Y0187757D01*
X0175953Y0187757D01*
X0175953Y0187575D01*
X0176134Y0187575D01*
X0176134Y0184089D01*
X0175655Y0183611D01*
X0175232Y0182589D01*
X0175232Y0181483D01*
X0175655Y0180462D01*
X0176437Y0179680D01*
X0177459Y0179257D01*
X0178565Y0179257D01*
X0179586Y0179680D01*
X0180368Y0180462D01*
X0180791Y0181483D01*
X0180791Y0182589D01*
X0180368Y0183611D01*
X0179690Y0184289D01*
X0179968Y0184404D01*
X0180571Y0184807D01*
X0181084Y0185319D01*
X0181487Y0185922D01*
X0181764Y0186592D01*
X0181905Y0187303D01*
X0181905Y0187575D01*
X0176134Y0187575D01*
X0176134Y0187757D01*
X0181905Y0187757D01*
X0181905Y0188029D01*
X0181764Y0188740D01*
X0181487Y0189410D01*
X0181084Y0190013D01*
X0180571Y0190525D01*
X0181429Y0189496D02*
X0187114Y0189496D01*
X0186731Y0188497D02*
X0181812Y0188497D01*
X0181905Y0187499D02*
X0186638Y0187499D01*
X0186638Y0187575D02*
X0186638Y0187303D01*
X0186779Y0186592D01*
X0187057Y0185922D01*
X0187460Y0185319D01*
X0187972Y0184807D01*
X0188575Y0184404D01*
X0189245Y0184126D01*
X0189956Y0183985D01*
X0192409Y0183985D01*
X0192409Y0187575D01*
X0192591Y0187575D01*
X0192591Y0187757D01*
X0192409Y0187757D01*
X0192409Y0187575D01*
X0186638Y0187575D01*
X0186817Y0186500D02*
X0181726Y0186500D01*
X0181206Y0185502D02*
X0187338Y0185502D01*
X0188426Y0184503D02*
X0180117Y0184503D01*
X0180412Y0183505D02*
X0201000Y0183505D01*
X0201000Y0184503D02*
X0196574Y0184503D01*
X0196425Y0184404D02*
X0197028Y0184807D01*
X0197540Y0185319D01*
X0197943Y0185922D01*
X0198221Y0186592D01*
X0198362Y0187303D01*
X0198362Y0187575D01*
X0192591Y0187575D01*
X0192591Y0183985D01*
X0195044Y0183985D01*
X0195755Y0184126D01*
X0196425Y0184404D01*
X0197662Y0185502D02*
X0201000Y0185502D01*
X0201000Y0186500D02*
X0198183Y0186500D01*
X0198362Y0187499D02*
X0201000Y0187499D01*
X0201000Y0188497D02*
X0198269Y0188497D01*
X0198221Y0188740D02*
X0197943Y0189410D01*
X0197540Y0190013D01*
X0197028Y0190525D01*
X0196425Y0190928D01*
X0195755Y0191206D01*
X0195044Y0191347D01*
X0192591Y0191347D01*
X0192591Y0187757D01*
X0198362Y0187757D01*
X0198362Y0188029D01*
X0198221Y0188740D01*
X0197886Y0189496D02*
X0201000Y0189496D01*
X0201000Y0190494D02*
X0197059Y0190494D01*
X0201000Y0191493D02*
X0149722Y0191493D01*
X0150000Y0192491D02*
X0201000Y0192491D01*
X0201000Y0193490D02*
X0150000Y0193490D01*
X0149861Y0194488D02*
X0183634Y0194488D01*
X0183072Y0195487D02*
X0149447Y0195487D01*
X0148744Y0196485D02*
X0183000Y0196485D01*
X0183000Y0197484D02*
X0147622Y0197484D01*
X0146778Y0198482D02*
X0183000Y0198482D01*
X0183000Y0199481D02*
X0148394Y0199481D01*
X0147832Y0198919D02*
X0149239Y0200326D01*
X0150000Y0202164D01*
X0150000Y0204153D01*
X0149239Y0205990D01*
X0147832Y0207397D01*
X0145995Y0208158D01*
X0144005Y0208158D01*
X0142168Y0207397D01*
X0140761Y0205990D01*
X0140000Y0204153D01*
X0140000Y0202164D01*
X0140761Y0200326D01*
X0142168Y0198919D01*
X0144005Y0198158D01*
X0145995Y0198158D01*
X0147832Y0198919D01*
X0149302Y0200480D02*
X0183000Y0200480D01*
X0183000Y0201478D02*
X0149716Y0201478D01*
X0150000Y0202477D02*
X0183000Y0202477D01*
X0183000Y0203475D02*
X0150000Y0203475D01*
X0149867Y0204474D02*
X0183000Y0204474D01*
X0183000Y0205472D02*
X0149453Y0205472D01*
X0148759Y0206471D02*
X0183000Y0206471D01*
X0183000Y0207469D02*
X0147658Y0207469D01*
X0146742Y0208468D02*
X0183000Y0208468D01*
X0183000Y0209466D02*
X0148379Y0209466D01*
X0147832Y0208919D02*
X0149239Y0210326D01*
X0150000Y0212164D01*
X0150000Y0214153D01*
X0149239Y0215990D01*
X0147832Y0217397D01*
X0145995Y0218158D01*
X0144005Y0218158D01*
X0142168Y0217397D01*
X0140761Y0215990D01*
X0140000Y0214153D01*
X0140000Y0212164D01*
X0140761Y0210326D01*
X0142168Y0208919D01*
X0144005Y0208158D01*
X0145995Y0208158D01*
X0147832Y0208919D01*
X0149296Y0210465D02*
X0183000Y0210465D01*
X0183000Y0211463D02*
X0149710Y0211463D01*
X0150000Y0212462D02*
X0183000Y0212462D01*
X0183000Y0213460D02*
X0150000Y0213460D01*
X0149873Y0214459D02*
X0183000Y0214459D01*
X0183000Y0215457D02*
X0149460Y0215457D01*
X0148774Y0216456D02*
X0183000Y0216456D01*
X0183000Y0217454D02*
X0147694Y0217454D01*
X0142306Y0217454D02*
X0093550Y0217454D01*
X0093550Y0216456D02*
X0141226Y0216456D01*
X0140540Y0215457D02*
X0093550Y0215457D01*
X0093550Y0214459D02*
X0140127Y0214459D01*
X0140000Y0213460D02*
X0093550Y0213460D01*
X0093550Y0212462D02*
X0140000Y0212462D01*
X0140290Y0211463D02*
X0093550Y0211463D01*
X0093550Y0210465D02*
X0140704Y0210465D01*
X0141621Y0209466D02*
X0093550Y0209466D01*
X0093550Y0208468D02*
X0143258Y0208468D01*
X0142342Y0207469D02*
X0093550Y0207469D01*
X0093550Y0206471D02*
X0141241Y0206471D01*
X0140547Y0205472D02*
X0093550Y0205472D01*
X0093550Y0204474D02*
X0140133Y0204474D01*
X0140000Y0203475D02*
X0093550Y0203475D01*
X0093550Y0202477D02*
X0140000Y0202477D01*
X0140284Y0201478D02*
X0093702Y0201478D01*
X0094209Y0200480D02*
X0140698Y0200480D01*
X0141606Y0199481D02*
X0094241Y0199481D01*
X0093847Y0198482D02*
X0143222Y0198482D01*
X0142378Y0197484D02*
X0092406Y0197484D01*
X0091750Y0199908D02*
X0091750Y0222658D01*
X0093487Y0224444D02*
X0094060Y0224444D01*
X0094120Y0223445D02*
X0095059Y0223445D01*
X0095509Y0222447D02*
X0094241Y0222447D01*
X0093945Y0221448D02*
X0095938Y0221448D01*
X0097427Y0220450D02*
X0093550Y0220450D01*
X0093550Y0219451D02*
X0100201Y0219451D01*
X0100389Y0218997D02*
X0101089Y0218297D01*
X0102005Y0217918D01*
X0102995Y0217918D01*
X0103911Y0218297D01*
X0104611Y0218997D01*
X0104991Y0219913D01*
X0104991Y0220904D01*
X0104611Y0221819D01*
X0103911Y0222520D01*
X0102995Y0222899D01*
X0102005Y0222899D01*
X0101089Y0222520D01*
X0100389Y0221819D01*
X0100009Y0220904D01*
X0100009Y0219913D01*
X0100389Y0218997D01*
X0100933Y0218453D02*
X0093550Y0218453D01*
X0089259Y0222447D02*
X0088984Y0222447D01*
X0092063Y0226441D02*
X0085240Y0226441D01*
X0091065Y0227439D02*
X0050685Y0227439D01*
X0051128Y0226441D02*
X0049687Y0226441D01*
X0050130Y0225442D02*
X0048688Y0225442D01*
X0049131Y0224444D02*
X0047690Y0224444D01*
X0045877Y0227439D02*
X0025741Y0227439D01*
X0023802Y0228438D02*
X0046876Y0228438D01*
X0047874Y0229436D02*
X0024241Y0229436D01*
X0024228Y0230435D02*
X0048873Y0230435D01*
X0051957Y0234429D02*
X0023293Y0234429D01*
X0024040Y0235427D02*
X0051210Y0235427D01*
X0051009Y0236426D02*
X0024241Y0236426D01*
X0024025Y0237424D02*
X0051225Y0237424D01*
X0051993Y0238423D02*
X0023257Y0238423D01*
X0019460Y0235427D02*
X0018780Y0235427D01*
X0019919Y0234429D02*
X0020207Y0234429D01*
X0020241Y0233430D02*
X0054509Y0233430D01*
X0054605Y0232432D02*
X0020145Y0232432D01*
X0019753Y0231433D02*
X0019547Y0231433D01*
X0023747Y0231433D02*
X0055203Y0231433D01*
X0052633Y0219451D02*
X0051617Y0219451D01*
X0051741Y0218453D02*
X0052509Y0218453D01*
X0052803Y0217454D02*
X0051447Y0217454D01*
X0050441Y0216456D02*
X0053809Y0216456D01*
X0048059Y0216456D02*
X0042820Y0216456D01*
X0043241Y0217454D02*
X0047053Y0217454D01*
X0046759Y0218453D02*
X0043220Y0218453D01*
X0042729Y0219451D02*
X0046883Y0219451D01*
X0038771Y0219451D02*
X0036229Y0219451D01*
X0036720Y0218453D02*
X0038280Y0218453D01*
X0038259Y0217454D02*
X0036741Y0217454D01*
X0036320Y0216456D02*
X0038680Y0216456D01*
X0032180Y0216456D02*
X0030070Y0216456D01*
X0030491Y0217454D02*
X0031759Y0217454D01*
X0031780Y0218453D02*
X0030470Y0218453D01*
X0029979Y0219451D02*
X0032271Y0219451D01*
X0022759Y0227439D02*
X0022298Y0227439D01*
X0021982Y0226441D02*
X0012350Y0226441D01*
X0012350Y0227439D02*
X0021202Y0227439D01*
X0016577Y0221448D02*
X0014180Y0221448D01*
X0013181Y0222447D02*
X0015556Y0222447D01*
X0015259Y0223445D02*
X0012350Y0223445D01*
X0012350Y0224444D02*
X0015380Y0224444D01*
X0016012Y0225442D02*
X0012350Y0225442D01*
X0010550Y0238423D02*
X0015462Y0238423D01*
X0015259Y0239421D02*
X0011549Y0239421D01*
X0012547Y0240420D02*
X0015473Y0240420D01*
X0016238Y0241418D02*
X0013546Y0241418D01*
X0021400Y0209466D02*
X0004000Y0209466D01*
X0004000Y0208468D02*
X0021400Y0208468D01*
X0021400Y0207469D02*
X0004000Y0207469D01*
X0004000Y0206471D02*
X0021400Y0206471D01*
X0021141Y0205472D02*
X0004000Y0205472D01*
X0004000Y0204474D02*
X0021009Y0204474D01*
X0021294Y0203475D02*
X0004000Y0203475D01*
X0004000Y0202477D02*
X0022259Y0202477D01*
X0024741Y0202477D02*
X0034636Y0202477D01*
X0033638Y0203475D02*
X0025706Y0203475D01*
X0025991Y0204474D02*
X0032639Y0204474D01*
X0031640Y0205472D02*
X0025859Y0205472D01*
X0035635Y0201478D02*
X0004000Y0201478D01*
X0004000Y0200480D02*
X0035700Y0200480D01*
X0035700Y0199481D02*
X0004000Y0199481D01*
X0004000Y0198482D02*
X0035700Y0198482D01*
X0035700Y0197484D02*
X0004000Y0197484D01*
X0004000Y0196485D02*
X0035700Y0196485D01*
X0035700Y0195487D02*
X0004000Y0195487D01*
X0004000Y0194488D02*
X0035700Y0194488D01*
X0035700Y0193490D02*
X0004000Y0193490D01*
X0004000Y0192491D02*
X0035700Y0192491D01*
X0035700Y0191493D02*
X0004000Y0191493D01*
X0004000Y0190494D02*
X0035700Y0190494D01*
X0035700Y0189496D02*
X0034792Y0189496D01*
X0035099Y0188497D02*
X0035700Y0188497D01*
X0035700Y0187499D02*
X0035099Y0187499D01*
X0035099Y0186500D02*
X0035700Y0186500D01*
X0035700Y0185502D02*
X0035099Y0185502D01*
X0035099Y0184503D02*
X0035700Y0184503D01*
X0035700Y0183505D02*
X0035099Y0183505D01*
X0035099Y0182506D02*
X0035700Y0182506D01*
X0035156Y0181508D02*
X0035099Y0181508D01*
X0035099Y0179511D02*
X0035280Y0179511D01*
X0035099Y0178512D02*
X0036172Y0178512D01*
X0035099Y0177514D02*
X0090990Y0177514D01*
X0091989Y0176515D02*
X0035099Y0176515D01*
X0035099Y0175517D02*
X0092987Y0175517D01*
X0093986Y0174518D02*
X0004000Y0174518D01*
X0004000Y0173520D02*
X0094984Y0173520D01*
X0095983Y0172521D02*
X0004000Y0172521D01*
X0004000Y0171523D02*
X0096981Y0171523D01*
X0097980Y0170524D02*
X0031166Y0170524D01*
X0034725Y0169526D02*
X0098978Y0169526D01*
X0099977Y0168527D02*
X0036952Y0168527D01*
X0038625Y0167529D02*
X0100975Y0167529D01*
X0101974Y0166530D02*
X0040011Y0166530D01*
X0041195Y0165532D02*
X0102972Y0165532D01*
X0103971Y0164533D02*
X0042193Y0164533D01*
X0041281Y0181508D02*
X0039844Y0181508D01*
X0039300Y0182506D02*
X0041009Y0182506D01*
X0041155Y0183505D02*
X0039300Y0183505D01*
X0039300Y0184503D02*
X0041400Y0184503D01*
X0041400Y0185502D02*
X0039300Y0185502D01*
X0039300Y0186500D02*
X0041400Y0186500D01*
X0028000Y0170524D02*
X0027000Y0170524D01*
X0027000Y0170859D02*
X0026618Y0170859D01*
X0024861Y0170705D01*
X0023124Y0170399D01*
X0021420Y0169942D01*
X0019762Y0169339D01*
X0018163Y0168594D01*
X0016636Y0167712D01*
X0015191Y0166700D01*
X0013840Y0165566D01*
X0012592Y0164319D01*
X0011458Y0162967D01*
X0010447Y0161522D01*
X0009565Y0159995D01*
X0008819Y0158396D01*
X0008216Y0156738D01*
X0007759Y0155035D01*
X0007453Y0153297D01*
X0007299Y0151540D01*
X0007299Y0151158D01*
X0027000Y0151158D01*
X0027000Y0150158D01*
X0028000Y0150158D01*
X0028000Y0151158D01*
X0027000Y0151158D01*
X0027000Y0170859D01*
X0027000Y0169526D02*
X0028000Y0169526D01*
X0028000Y0168527D02*
X0027000Y0168527D01*
X0027000Y0167529D02*
X0028000Y0167529D01*
X0028000Y0166530D02*
X0027000Y0166530D01*
X0027000Y0165532D02*
X0028000Y0165532D01*
X0028000Y0164533D02*
X0027000Y0164533D01*
X0027000Y0163535D02*
X0028000Y0163535D01*
X0028000Y0162536D02*
X0027000Y0162536D01*
X0027000Y0161538D02*
X0028000Y0161538D01*
X0028000Y0160539D02*
X0027000Y0160539D01*
X0027000Y0159541D02*
X0028000Y0159541D01*
X0028000Y0158542D02*
X0027000Y0158542D01*
X0027000Y0157544D02*
X0028000Y0157544D01*
X0028000Y0156545D02*
X0027000Y0156545D01*
X0027000Y0155546D02*
X0028000Y0155546D01*
X0028000Y0154548D02*
X0027000Y0154548D01*
X0027000Y0153549D02*
X0028000Y0153549D01*
X0028000Y0152551D02*
X0027000Y0152551D01*
X0027000Y0151552D02*
X0028000Y0151552D01*
X0027000Y0150554D02*
X0004000Y0150554D01*
X0004000Y0151552D02*
X0007300Y0151552D01*
X0007388Y0152551D02*
X0004000Y0152551D01*
X0004000Y0153549D02*
X0007497Y0153549D01*
X0007673Y0154548D02*
X0004000Y0154548D01*
X0004000Y0155546D02*
X0007896Y0155546D01*
X0008164Y0156545D02*
X0004000Y0156545D01*
X0004000Y0157544D02*
X0008509Y0157544D01*
X0008887Y0158542D02*
X0004000Y0158542D01*
X0004000Y0159541D02*
X0009353Y0159541D01*
X0009879Y0160539D02*
X0004000Y0160539D01*
X0004000Y0161538D02*
X0010457Y0161538D01*
X0011156Y0162536D02*
X0004000Y0162536D01*
X0004000Y0163535D02*
X0011934Y0163535D01*
X0012807Y0164533D02*
X0004000Y0164533D01*
X0004000Y0165532D02*
X0013805Y0165532D01*
X0014989Y0166530D02*
X0004000Y0166530D01*
X0004000Y0167529D02*
X0016375Y0167529D01*
X0018048Y0168527D02*
X0004000Y0168527D01*
X0004000Y0169526D02*
X0020275Y0169526D01*
X0023834Y0170524D02*
X0004000Y0170524D01*
X0004000Y0175517D02*
X0019901Y0175517D01*
X0019901Y0176515D02*
X0004000Y0176515D01*
X0004000Y0177514D02*
X0019901Y0177514D01*
X0019901Y0178512D02*
X0004000Y0178512D01*
X0004000Y0179511D02*
X0019901Y0179511D01*
X0019901Y0180509D02*
X0004000Y0180509D01*
X0004000Y0181508D02*
X0019901Y0181508D01*
X0019901Y0182506D02*
X0004000Y0182506D01*
X0004000Y0183505D02*
X0019901Y0183505D01*
X0019901Y0184503D02*
X0004000Y0184503D01*
X0004000Y0185502D02*
X0019901Y0185502D01*
X0019901Y0186500D02*
X0004000Y0186500D01*
X0004000Y0187499D02*
X0019901Y0187499D01*
X0019901Y0188497D02*
X0004000Y0188497D01*
X0004000Y0189496D02*
X0020208Y0189496D01*
X0027000Y0150158D02*
X0007299Y0150158D01*
X0007299Y0149776D01*
X0007453Y0148019D01*
X0007759Y0146282D01*
X0008216Y0144578D01*
X0008819Y0142920D01*
X0009565Y0141322D01*
X0010447Y0139794D01*
X0011458Y0138349D01*
X0012592Y0136998D01*
X0013840Y0135750D01*
X0015191Y0134617D01*
X0016636Y0133605D01*
X0018163Y0132723D01*
X0019762Y0131977D01*
X0021420Y0131374D01*
X0023124Y0130917D01*
X0024861Y0130611D01*
X0026618Y0130457D01*
X0027000Y0130457D01*
X0027000Y0150158D01*
X0027000Y0149555D02*
X0028000Y0149555D01*
X0028000Y0148557D02*
X0027000Y0148557D01*
X0027000Y0147558D02*
X0028000Y0147558D01*
X0028000Y0146560D02*
X0027000Y0146560D01*
X0027000Y0145561D02*
X0028000Y0145561D01*
X0028000Y0144563D02*
X0027000Y0144563D01*
X0027000Y0143564D02*
X0028000Y0143564D01*
X0028000Y0142566D02*
X0027000Y0142566D01*
X0027000Y0141567D02*
X0028000Y0141567D01*
X0028000Y0140569D02*
X0027000Y0140569D01*
X0027000Y0139570D02*
X0028000Y0139570D01*
X0028000Y0138572D02*
X0027000Y0138572D01*
X0027000Y0137573D02*
X0028000Y0137573D01*
X0028000Y0136575D02*
X0027000Y0136575D01*
X0027000Y0135576D02*
X0028000Y0135576D01*
X0028000Y0134578D02*
X0027000Y0134578D01*
X0027000Y0133579D02*
X0028000Y0133579D01*
X0028000Y0132581D02*
X0027000Y0132581D01*
X0027000Y0131582D02*
X0028000Y0131582D01*
X0028000Y0130584D02*
X0027000Y0130584D01*
X0025174Y0130584D02*
X0020152Y0130584D01*
X0019995Y0130649D02*
X0019005Y0130649D01*
X0018089Y0130270D01*
X0017389Y0129569D01*
X0017009Y0128654D01*
X0017009Y0127663D01*
X0017389Y0126747D01*
X0018089Y0126047D01*
X0019005Y0125668D01*
X0019901Y0125668D01*
X0019901Y0112128D01*
X0020662Y0111366D01*
X0034338Y0111366D01*
X0035099Y0112128D01*
X0035099Y0113836D01*
X0035505Y0113668D01*
X0036495Y0113668D01*
X0037411Y0114047D01*
X0038111Y0114747D01*
X0038491Y0115663D01*
X0038491Y0116654D01*
X0038111Y0117569D01*
X0037411Y0118270D01*
X0036495Y0118649D01*
X0035505Y0118649D01*
X0035099Y0118481D01*
X0035099Y0125803D01*
X0034338Y0126564D01*
X0021428Y0126564D01*
X0021611Y0126747D01*
X0021991Y0127663D01*
X0021991Y0128654D01*
X0021611Y0129569D01*
X0020911Y0130270D01*
X0019995Y0130649D01*
X0018848Y0130584D02*
X0004000Y0130584D01*
X0004000Y0131582D02*
X0020847Y0131582D01*
X0021595Y0129585D02*
X0141502Y0129585D01*
X0140654Y0130584D02*
X0029826Y0130584D01*
X0034152Y0131582D02*
X0140241Y0131582D01*
X0140000Y0132581D02*
X0036532Y0132581D01*
X0038589Y0127270D02*
X0037889Y0126569D01*
X0037509Y0125654D01*
X0037509Y0124663D01*
X0037889Y0123747D01*
X0038589Y0123047D01*
X0039505Y0122668D01*
X0040495Y0122668D01*
X0041411Y0123047D01*
X0042111Y0123747D01*
X0042491Y0124663D01*
X0042491Y0125654D01*
X0042111Y0126569D01*
X0041411Y0127270D01*
X0040495Y0127649D01*
X0039505Y0127649D01*
X0038589Y0127270D01*
X0039359Y0127588D02*
X0021960Y0127588D01*
X0021991Y0128587D02*
X0142971Y0128587D01*
X0142629Y0127588D02*
X0040641Y0127588D01*
X0042091Y0126590D02*
X0141360Y0126590D01*
X0140596Y0125591D02*
X0042491Y0125591D01*
X0042462Y0124593D02*
X0085399Y0124593D01*
X0085131Y0124324D02*
X0084750Y0123405D01*
X0084750Y0122411D01*
X0085131Y0121492D01*
X0090584Y0116039D01*
X0091503Y0115658D01*
X0093708Y0115658D01*
X0093500Y0115155D01*
X0093500Y0114161D01*
X0093881Y0113242D01*
X0095584Y0111539D01*
X0096503Y0111158D01*
X0097497Y0111158D01*
X0148503Y0111158D01*
X0149497Y0111158D01*
X0150416Y0111539D01*
X0162119Y0123242D01*
X0162500Y0124161D01*
X0162500Y0139123D01*
X0170619Y0147242D01*
X0171000Y0148161D01*
X0171000Y0151308D01*
X0171003Y0151304D01*
X0171516Y0150791D01*
X0172119Y0150388D01*
X0172788Y0150111D01*
X0173500Y0149969D01*
X0175953Y0149969D01*
X0175953Y0153560D01*
X0176134Y0153560D01*
X0176134Y0153741D01*
X0175953Y0153741D01*
X0175953Y0157331D01*
X0173500Y0157331D01*
X0172788Y0157190D01*
X0172119Y0156912D01*
X0171516Y0156510D01*
X0171003Y0155997D01*
X0171000Y0155992D01*
X0171000Y0175655D01*
X0170619Y0176574D01*
X0168666Y0178528D01*
X0167747Y0178908D01*
X0166753Y0178908D01*
X0165834Y0178528D01*
X0165131Y0177824D01*
X0164750Y0176905D01*
X0164750Y0175911D01*
X0165131Y0174992D01*
X0166000Y0174123D01*
X0166000Y0149694D01*
X0158584Y0142278D01*
X0157881Y0141574D01*
X0157500Y0140655D01*
X0157500Y0125694D01*
X0147964Y0116158D01*
X0134036Y0116158D01*
X0134619Y0116742D01*
X0135000Y0117661D01*
X0135000Y0118655D01*
X0134619Y0119574D01*
X0133916Y0120278D01*
X0132997Y0120658D01*
X0093036Y0120658D01*
X0088666Y0125028D01*
X0087747Y0125408D01*
X0086753Y0125408D01*
X0085834Y0125028D01*
X0085131Y0124324D01*
X0084828Y0123594D02*
X0041958Y0123594D01*
X0043415Y0122596D02*
X0035099Y0122596D01*
X0035099Y0123594D02*
X0038042Y0123594D01*
X0037538Y0124593D02*
X0035099Y0124593D01*
X0035099Y0125591D02*
X0037509Y0125591D01*
X0037909Y0126590D02*
X0021454Y0126590D01*
X0019901Y0125591D02*
X0004000Y0125591D01*
X0004000Y0124593D02*
X0019901Y0124593D01*
X0019901Y0123594D02*
X0004000Y0123594D01*
X0004000Y0122596D02*
X0019901Y0122596D01*
X0019901Y0121597D02*
X0004000Y0121597D01*
X0004000Y0120599D02*
X0019901Y0120599D01*
X0019901Y0119600D02*
X0004000Y0119600D01*
X0004000Y0118602D02*
X0019901Y0118602D01*
X0019901Y0117603D02*
X0004000Y0117603D01*
X0004000Y0116605D02*
X0019901Y0116605D01*
X0019901Y0115606D02*
X0004000Y0115606D01*
X0004000Y0114608D02*
X0019901Y0114608D01*
X0019901Y0113609D02*
X0004000Y0113609D01*
X0004000Y0112611D02*
X0019901Y0112611D01*
X0020416Y0111612D02*
X0004000Y0111612D01*
X0004000Y0110613D02*
X0024420Y0110613D01*
X0024505Y0110649D02*
X0023589Y0110270D01*
X0022889Y0109569D01*
X0022509Y0108654D01*
X0022509Y0107663D01*
X0022889Y0106747D01*
X0023589Y0106047D01*
X0024505Y0105668D01*
X0025495Y0105668D01*
X0026411Y0106047D01*
X0027111Y0106747D01*
X0027491Y0107663D01*
X0027491Y0108654D01*
X0027111Y0109569D01*
X0026411Y0110270D01*
X0025495Y0110649D01*
X0024505Y0110649D01*
X0025580Y0110613D02*
X0042051Y0110613D01*
X0041796Y0110358D02*
X0040800Y0109362D01*
X0040800Y0107866D01*
X0039668Y0107397D01*
X0038261Y0105990D01*
X0037500Y0104153D01*
X0036739Y0105990D01*
X0035332Y0107397D01*
X0033495Y0108158D01*
X0031505Y0108158D01*
X0029668Y0107397D01*
X0028261Y0105990D01*
X0027500Y0104153D01*
X0027500Y0102164D01*
X0028261Y0100326D01*
X0029668Y0098919D01*
X0031505Y0098158D01*
X0033495Y0098158D01*
X0035332Y0098919D01*
X0036739Y0100326D01*
X0037500Y0102164D01*
X0037500Y0104153D01*
X0037500Y0102164D01*
X0038261Y0100326D01*
X0039668Y0098919D01*
X0041505Y0098158D01*
X0043495Y0098158D01*
X0045332Y0098919D01*
X0046739Y0100326D01*
X0047500Y0102164D01*
X0047500Y0104153D01*
X0046739Y0105990D01*
X0045332Y0107397D01*
X0044200Y0107866D01*
X0044200Y0107954D01*
X0046700Y0110454D01*
X0046700Y0118836D01*
X0047111Y0119247D01*
X0047491Y0120163D01*
X0047491Y0121154D01*
X0047111Y0122069D01*
X0046411Y0122770D01*
X0045495Y0123149D01*
X0044505Y0123149D01*
X0043589Y0122770D01*
X0042889Y0122069D01*
X0042509Y0121154D01*
X0042509Y0120163D01*
X0042889Y0119247D01*
X0043300Y0118836D01*
X0043300Y0111862D01*
X0041796Y0110358D01*
X0041053Y0109615D02*
X0027065Y0109615D01*
X0027491Y0108616D02*
X0040800Y0108616D01*
X0040201Y0107618D02*
X0034799Y0107618D01*
X0036110Y0106619D02*
X0038890Y0106619D01*
X0038108Y0105621D02*
X0036892Y0105621D01*
X0037305Y0104622D02*
X0037695Y0104622D01*
X0037500Y0103624D02*
X0037500Y0103624D01*
X0037500Y0102625D02*
X0037500Y0102625D01*
X0037278Y0101627D02*
X0037722Y0101627D01*
X0038136Y0100628D02*
X0036864Y0100628D01*
X0036043Y0099630D02*
X0038957Y0099630D01*
X0040363Y0098631D02*
X0034637Y0098631D01*
X0030363Y0098631D02*
X0004000Y0098631D01*
X0004000Y0097633D02*
X0011016Y0097633D01*
X0011105Y0097670D02*
X0008528Y0096602D01*
X0006556Y0094630D01*
X0005488Y0092053D01*
X0005488Y0089263D01*
X0006556Y0086686D01*
X0008528Y0084714D01*
X0011105Y0083646D01*
X0013895Y0083646D01*
X0016472Y0084714D01*
X0018444Y0086686D01*
X0019512Y0089263D01*
X0019512Y0092053D01*
X0018444Y0094630D01*
X0016472Y0096602D01*
X0013895Y0097670D01*
X0011105Y0097670D01*
X0008605Y0096634D02*
X0004000Y0096634D01*
X0004000Y0095636D02*
X0007561Y0095636D01*
X0006563Y0094637D02*
X0004000Y0094637D01*
X0004000Y0093639D02*
X0006145Y0093639D01*
X0005732Y0092640D02*
X0004000Y0092640D01*
X0004000Y0091642D02*
X0005488Y0091642D01*
X0005488Y0090643D02*
X0004000Y0090643D01*
X0004000Y0089645D02*
X0005488Y0089645D01*
X0005744Y0088646D02*
X0004000Y0088646D01*
X0004000Y0087648D02*
X0006157Y0087648D01*
X0006593Y0086649D02*
X0004000Y0086649D01*
X0004000Y0085651D02*
X0007591Y0085651D01*
X0008677Y0084652D02*
X0004000Y0084652D01*
X0004000Y0083654D02*
X0011088Y0083654D01*
X0013912Y0083654D02*
X0191088Y0083654D01*
X0191105Y0083646D02*
X0193895Y0083646D01*
X0196472Y0084714D01*
X0198444Y0086686D01*
X0199512Y0089263D01*
X0199512Y0092053D01*
X0198444Y0094630D01*
X0196472Y0096602D01*
X0193895Y0097670D01*
X0191105Y0097670D01*
X0188528Y0096602D01*
X0186556Y0094630D01*
X0185488Y0092053D01*
X0185488Y0089263D01*
X0186556Y0086686D01*
X0188528Y0084714D01*
X0191105Y0083646D01*
X0193912Y0083654D02*
X0201000Y0083654D01*
X0201000Y0084652D02*
X0196323Y0084652D01*
X0197409Y0085651D02*
X0201000Y0085651D01*
X0201000Y0086649D02*
X0198407Y0086649D01*
X0198843Y0087648D02*
X0201000Y0087648D01*
X0201000Y0088646D02*
X0199256Y0088646D01*
X0199512Y0089645D02*
X0201000Y0089645D01*
X0201000Y0090643D02*
X0199512Y0090643D01*
X0199512Y0091642D02*
X0201000Y0091642D01*
X0201000Y0092640D02*
X0199268Y0092640D01*
X0198855Y0093639D02*
X0201000Y0093639D01*
X0201000Y0094637D02*
X0198437Y0094637D01*
X0197439Y0095636D02*
X0201000Y0095636D01*
X0201000Y0096634D02*
X0196395Y0096634D01*
X0193984Y0097633D02*
X0201000Y0097633D01*
X0201000Y0098631D02*
X0178830Y0098631D01*
X0179059Y0098402D02*
X0176725Y0100736D01*
X0178098Y0100736D01*
X0178859Y0101498D01*
X0178859Y0107693D01*
X0178098Y0108454D01*
X0171902Y0108454D01*
X0171141Y0107693D01*
X0171141Y0101498D01*
X0171902Y0100736D01*
X0173275Y0100736D01*
X0170941Y0098402D01*
X0170941Y0096959D01*
X0174762Y0096959D01*
X0174762Y0096483D01*
X0175238Y0096483D01*
X0175238Y0092662D01*
X0176681Y0092662D01*
X0179059Y0095040D01*
X0179059Y0096483D01*
X0175238Y0096483D01*
X0175238Y0096959D01*
X0179059Y0096959D01*
X0179059Y0098402D01*
X0179059Y0097633D02*
X0191016Y0097633D01*
X0188605Y0096634D02*
X0175238Y0096634D01*
X0174762Y0096634D02*
X0016395Y0096634D01*
X0017439Y0095636D02*
X0170941Y0095636D01*
X0170941Y0095040D02*
X0173319Y0092662D01*
X0174762Y0092662D01*
X0174762Y0096483D01*
X0170941Y0096483D01*
X0170941Y0095040D01*
X0171343Y0094637D02*
X0018437Y0094637D01*
X0018855Y0093639D02*
X0172342Y0093639D01*
X0174762Y0093639D02*
X0175238Y0093639D01*
X0175238Y0094637D02*
X0174762Y0094637D01*
X0174762Y0095636D02*
X0175238Y0095636D01*
X0177658Y0093639D02*
X0186145Y0093639D01*
X0185732Y0092640D02*
X0019268Y0092640D01*
X0019512Y0091642D02*
X0185488Y0091642D01*
X0185488Y0090643D02*
X0019512Y0090643D01*
X0019512Y0089645D02*
X0185488Y0089645D01*
X0185744Y0088646D02*
X0019256Y0088646D01*
X0018843Y0087648D02*
X0186157Y0087648D01*
X0186593Y0086649D02*
X0018407Y0086649D01*
X0017409Y0085651D02*
X0187591Y0085651D01*
X0188677Y0084652D02*
X0016323Y0084652D01*
X0013984Y0097633D02*
X0170941Y0097633D01*
X0171170Y0098631D02*
X0155070Y0098631D01*
X0155225Y0098711D02*
X0155888Y0099192D01*
X0156466Y0099771D01*
X0156947Y0100433D01*
X0157319Y0101162D01*
X0157572Y0101940D01*
X0157686Y0102658D01*
X0153000Y0102658D01*
X0153000Y0097973D01*
X0153718Y0098086D01*
X0154496Y0098339D01*
X0155225Y0098711D01*
X0156326Y0099630D02*
X0172168Y0099630D01*
X0173167Y0100628D02*
X0157047Y0100628D01*
X0157470Y0101627D02*
X0171141Y0101627D01*
X0171141Y0102625D02*
X0157680Y0102625D01*
X0157686Y0103658D02*
X0157572Y0104376D01*
X0157319Y0105154D01*
X0156947Y0105884D01*
X0156466Y0106546D01*
X0155888Y0107124D01*
X0155225Y0107606D01*
X0154496Y0107977D01*
X0153718Y0108230D01*
X0153000Y0108344D01*
X0153000Y0103658D01*
X0157686Y0103658D01*
X0157492Y0104622D02*
X0171141Y0104622D01*
X0171141Y0103624D02*
X0153000Y0103624D01*
X0153000Y0103658D02*
X0153000Y0102658D01*
X0152000Y0102658D01*
X0152000Y0097973D01*
X0151282Y0098086D01*
X0150504Y0098339D01*
X0149775Y0098711D01*
X0149112Y0099192D01*
X0148534Y0099771D01*
X0148053Y0100433D01*
X0147681Y0101162D01*
X0147428Y0101940D01*
X0147422Y0101976D01*
X0146739Y0100326D01*
X0145332Y0098919D01*
X0143495Y0098158D01*
X0141505Y0098158D01*
X0139668Y0098919D01*
X0138261Y0100326D01*
X0137500Y0102164D01*
X0137500Y0104153D01*
X0138261Y0105990D01*
X0139668Y0107397D01*
X0141505Y0108158D01*
X0143495Y0108158D01*
X0145332Y0107397D01*
X0146739Y0105990D01*
X0147422Y0104340D01*
X0147428Y0104376D01*
X0147681Y0105154D01*
X0148053Y0105884D01*
X0148534Y0106546D01*
X0149112Y0107124D01*
X0149775Y0107606D01*
X0150504Y0107977D01*
X0151282Y0108230D01*
X0152000Y0108344D01*
X0152000Y0103658D01*
X0153000Y0103658D01*
X0153000Y0104622D02*
X0152000Y0104622D01*
X0152000Y0105621D02*
X0153000Y0105621D01*
X0153000Y0106619D02*
X0152000Y0106619D01*
X0152000Y0107618D02*
X0153000Y0107618D01*
X0155201Y0107618D02*
X0171141Y0107618D01*
X0171141Y0106619D02*
X0156393Y0106619D01*
X0157081Y0105621D02*
X0171141Y0105621D01*
X0176833Y0100628D02*
X0201000Y0100628D01*
X0201000Y0099630D02*
X0177832Y0099630D01*
X0178859Y0101627D02*
X0201000Y0101627D01*
X0201000Y0102625D02*
X0178859Y0102625D01*
X0178859Y0103624D02*
X0201000Y0103624D01*
X0201000Y0104622D02*
X0178859Y0104622D01*
X0178859Y0105621D02*
X0201000Y0105621D01*
X0201000Y0106619D02*
X0178859Y0106619D01*
X0178859Y0107618D02*
X0201000Y0107618D01*
X0201000Y0108616D02*
X0134991Y0108616D01*
X0134991Y0108654D02*
X0134991Y0107663D01*
X0134611Y0106747D01*
X0133911Y0106047D01*
X0132995Y0105668D01*
X0132005Y0105668D01*
X0131089Y0106047D01*
X0130389Y0106747D01*
X0130009Y0107663D01*
X0130009Y0108654D01*
X0130389Y0109569D01*
X0131089Y0110270D01*
X0132005Y0110649D01*
X0132995Y0110649D01*
X0133911Y0110270D01*
X0134611Y0109569D01*
X0134991Y0108654D01*
X0134972Y0107618D02*
X0140201Y0107618D01*
X0138890Y0106619D02*
X0134483Y0106619D01*
X0134565Y0109615D02*
X0201000Y0109615D01*
X0201000Y0110613D02*
X0133080Y0110613D01*
X0131920Y0110613D02*
X0057449Y0110613D01*
X0056700Y0111362D02*
X0056700Y0118836D01*
X0057111Y0119247D01*
X0057491Y0120163D01*
X0057491Y0121154D01*
X0057111Y0122069D01*
X0056411Y0122770D01*
X0055495Y0123149D01*
X0054505Y0123149D01*
X0053589Y0122770D01*
X0052889Y0122069D01*
X0052509Y0121154D01*
X0052509Y0120163D01*
X0052889Y0119247D01*
X0053300Y0118836D01*
X0053300Y0109954D01*
X0054296Y0108958D01*
X0057969Y0105285D01*
X0057500Y0104153D01*
X0056739Y0105990D01*
X0055332Y0107397D01*
X0053495Y0108158D01*
X0051505Y0108158D01*
X0049668Y0107397D01*
X0048261Y0105990D01*
X0047500Y0104153D01*
X0047500Y0102164D01*
X0048261Y0100326D01*
X0049668Y0098919D01*
X0051505Y0098158D01*
X0053495Y0098158D01*
X0055332Y0098919D01*
X0056739Y0100326D01*
X0057500Y0102164D01*
X0057500Y0104153D01*
X0057500Y0102164D01*
X0058261Y0100326D01*
X0059668Y0098919D01*
X0061505Y0098158D01*
X0063495Y0098158D01*
X0065332Y0098919D01*
X0066739Y0100326D01*
X0067500Y0102164D01*
X0067500Y0104153D01*
X0066739Y0105990D01*
X0065332Y0107397D01*
X0063495Y0108158D01*
X0061505Y0108158D01*
X0060373Y0107689D01*
X0056700Y0111362D01*
X0056700Y0111612D02*
X0095511Y0111612D01*
X0094512Y0112611D02*
X0056700Y0112611D01*
X0056700Y0113609D02*
X0093729Y0113609D01*
X0093500Y0114608D02*
X0056700Y0114608D01*
X0056700Y0115606D02*
X0093687Y0115606D01*
X0090018Y0116605D02*
X0056700Y0116605D01*
X0056700Y0117603D02*
X0089020Y0117603D01*
X0088021Y0118602D02*
X0056700Y0118602D01*
X0057257Y0119600D02*
X0087023Y0119600D01*
X0086024Y0120599D02*
X0057491Y0120599D01*
X0057307Y0121597D02*
X0085087Y0121597D01*
X0084750Y0122596D02*
X0056585Y0122596D01*
X0053415Y0122596D02*
X0046585Y0122596D01*
X0047307Y0121597D02*
X0052693Y0121597D01*
X0052509Y0120599D02*
X0047491Y0120599D01*
X0047257Y0119600D02*
X0052742Y0119600D01*
X0053300Y0118602D02*
X0046700Y0118602D01*
X0046700Y0117603D02*
X0053300Y0117603D01*
X0053300Y0116605D02*
X0046700Y0116605D01*
X0046700Y0115606D02*
X0053300Y0115606D01*
X0053300Y0114608D02*
X0046700Y0114608D01*
X0046700Y0113609D02*
X0053300Y0113609D01*
X0053300Y0112611D02*
X0046700Y0112611D01*
X0046700Y0111612D02*
X0053300Y0111612D01*
X0053300Y0110613D02*
X0046700Y0110613D01*
X0045861Y0109615D02*
X0053639Y0109615D01*
X0054296Y0108958D02*
X0054296Y0108958D01*
X0054638Y0108616D02*
X0044862Y0108616D01*
X0044799Y0107618D02*
X0050201Y0107618D01*
X0048890Y0106619D02*
X0046110Y0106619D01*
X0046892Y0105621D02*
X0048108Y0105621D01*
X0047695Y0104622D02*
X0047305Y0104622D01*
X0047500Y0103624D02*
X0047500Y0103624D01*
X0047500Y0102625D02*
X0047500Y0102625D01*
X0047278Y0101627D02*
X0047722Y0101627D01*
X0048136Y0100628D02*
X0046864Y0100628D01*
X0046043Y0099630D02*
X0048957Y0099630D01*
X0050363Y0098631D02*
X0044637Y0098631D01*
X0054637Y0098631D02*
X0060363Y0098631D01*
X0058957Y0099630D02*
X0056043Y0099630D01*
X0056864Y0100628D02*
X0058136Y0100628D01*
X0057722Y0101627D02*
X0057278Y0101627D01*
X0057500Y0102625D02*
X0057500Y0102625D01*
X0057500Y0103624D02*
X0057500Y0103624D01*
X0057305Y0104622D02*
X0057695Y0104622D01*
X0057633Y0105621D02*
X0056892Y0105621D01*
X0056635Y0106619D02*
X0056110Y0106619D01*
X0055636Y0107618D02*
X0054799Y0107618D01*
X0058447Y0109615D02*
X0130435Y0109615D01*
X0130009Y0108616D02*
X0059446Y0108616D01*
X0064799Y0107618D02*
X0070201Y0107618D01*
X0069668Y0107397D02*
X0071505Y0108158D01*
X0073495Y0108158D01*
X0075332Y0107397D01*
X0076739Y0105990D01*
X0077422Y0104340D01*
X0077428Y0104376D01*
X0077681Y0105154D01*
X0078053Y0105884D01*
X0078534Y0106546D01*
X0079112Y0107124D01*
X0079775Y0107606D01*
X0080504Y0107977D01*
X0081282Y0108230D01*
X0082000Y0108344D01*
X0082000Y0103658D01*
X0083000Y0103658D01*
X0087686Y0103658D01*
X0087572Y0104376D01*
X0087319Y0105154D01*
X0086947Y0105884D01*
X0086466Y0106546D01*
X0085888Y0107124D01*
X0085225Y0107606D01*
X0084496Y0107977D01*
X0083718Y0108230D01*
X0083000Y0108344D01*
X0083000Y0103658D01*
X0083000Y0102658D01*
X0083000Y0097973D01*
X0083718Y0098086D01*
X0084496Y0098339D01*
X0085225Y0098711D01*
X0085888Y0099192D01*
X0086466Y0099771D01*
X0086947Y0100433D01*
X0087319Y0101162D01*
X0087572Y0101940D01*
X0087686Y0102658D01*
X0083000Y0102658D01*
X0082000Y0102658D01*
X0082000Y0097973D01*
X0081282Y0098086D01*
X0080504Y0098339D01*
X0079775Y0098711D01*
X0079112Y0099192D01*
X0078534Y0099771D01*
X0078053Y0100433D01*
X0077681Y0101162D01*
X0077428Y0101940D01*
X0077422Y0101976D01*
X0076739Y0100326D01*
X0075332Y0098919D01*
X0073495Y0098158D01*
X0071505Y0098158D01*
X0069668Y0098919D01*
X0068261Y0100326D01*
X0067500Y0102164D01*
X0067500Y0104153D01*
X0068261Y0105990D01*
X0069668Y0107397D01*
X0068890Y0106619D02*
X0066110Y0106619D01*
X0066892Y0105621D02*
X0068108Y0105621D01*
X0067695Y0104622D02*
X0067305Y0104622D01*
X0067500Y0103624D02*
X0067500Y0103624D01*
X0067500Y0102625D02*
X0067500Y0102625D01*
X0067278Y0101627D02*
X0067722Y0101627D01*
X0068136Y0100628D02*
X0066864Y0100628D01*
X0066043Y0099630D02*
X0068957Y0099630D01*
X0070363Y0098631D02*
X0064637Y0098631D01*
X0074637Y0098631D02*
X0079930Y0098631D01*
X0078674Y0099630D02*
X0076043Y0099630D01*
X0076864Y0100628D02*
X0077953Y0100628D01*
X0077530Y0101627D02*
X0077278Y0101627D01*
X0077305Y0104622D02*
X0077508Y0104622D01*
X0077919Y0105621D02*
X0076892Y0105621D01*
X0076110Y0106619D02*
X0078607Y0106619D01*
X0079799Y0107618D02*
X0074799Y0107618D01*
X0082000Y0107618D02*
X0083000Y0107618D01*
X0083000Y0106619D02*
X0082000Y0106619D01*
X0082000Y0105621D02*
X0083000Y0105621D01*
X0083000Y0104622D02*
X0082000Y0104622D01*
X0083000Y0103624D02*
X0097500Y0103624D01*
X0097500Y0104153D02*
X0097500Y0102164D01*
X0098261Y0100326D01*
X0099668Y0098919D01*
X0101505Y0098158D01*
X0103495Y0098158D01*
X0105332Y0098919D01*
X0106739Y0100326D01*
X0107500Y0102164D01*
X0107500Y0104153D01*
X0106739Y0105990D01*
X0105332Y0107397D01*
X0103495Y0108158D01*
X0101505Y0108158D01*
X0099668Y0107397D01*
X0098261Y0105990D01*
X0097500Y0104153D01*
X0097695Y0104622D02*
X0087492Y0104622D01*
X0087081Y0105621D02*
X0098108Y0105621D01*
X0098890Y0106619D02*
X0086393Y0106619D01*
X0085201Y0107618D02*
X0100201Y0107618D01*
X0097500Y0102625D02*
X0087680Y0102625D01*
X0087470Y0101627D02*
X0097722Y0101627D01*
X0098136Y0100628D02*
X0087047Y0100628D01*
X0086326Y0099630D02*
X0098957Y0099630D01*
X0100363Y0098631D02*
X0085070Y0098631D01*
X0083000Y0098631D02*
X0082000Y0098631D01*
X0082000Y0099630D02*
X0083000Y0099630D01*
X0083000Y0100628D02*
X0082000Y0100628D01*
X0082000Y0101627D02*
X0083000Y0101627D01*
X0083000Y0102625D02*
X0082000Y0102625D01*
X0092097Y0121597D02*
X0140235Y0121597D01*
X0140000Y0122596D02*
X0091098Y0122596D01*
X0090100Y0123594D02*
X0140000Y0123594D01*
X0140182Y0124593D02*
X0089101Y0124593D01*
X0104799Y0107618D02*
X0110201Y0107618D01*
X0109668Y0107397D02*
X0108261Y0105990D01*
X0107500Y0104153D01*
X0107500Y0102164D01*
X0108261Y0100326D01*
X0109668Y0098919D01*
X0111505Y0098158D01*
X0113495Y0098158D01*
X0115332Y0098919D01*
X0116739Y0100326D01*
X0117422Y0101976D01*
X0117428Y0101940D01*
X0117681Y0101162D01*
X0118053Y0100433D01*
X0118534Y0099771D01*
X0119112Y0099192D01*
X0119775Y0098711D01*
X0120504Y0098339D01*
X0121282Y0098086D01*
X0122000Y0097973D01*
X0122000Y0102658D01*
X0123000Y0102658D01*
X0123000Y0097973D01*
X0123718Y0098086D01*
X0124496Y0098339D01*
X0125225Y0098711D01*
X0125888Y0099192D01*
X0126466Y0099771D01*
X0126947Y0100433D01*
X0127319Y0101162D01*
X0127572Y0101940D01*
X0127686Y0102658D01*
X0123000Y0102658D01*
X0123000Y0103658D01*
X0127686Y0103658D01*
X0127572Y0104376D01*
X0127319Y0105154D01*
X0126947Y0105884D01*
X0126466Y0106546D01*
X0125888Y0107124D01*
X0125225Y0107606D01*
X0124496Y0107977D01*
X0123718Y0108230D01*
X0123000Y0108344D01*
X0123000Y0103658D01*
X0122000Y0103658D01*
X0122000Y0108344D01*
X0121282Y0108230D01*
X0120504Y0107977D01*
X0119775Y0107606D01*
X0119112Y0107124D01*
X0118534Y0106546D01*
X0118053Y0105884D01*
X0117681Y0105154D01*
X0117428Y0104376D01*
X0117422Y0104340D01*
X0116739Y0105990D01*
X0115332Y0107397D01*
X0113495Y0108158D01*
X0111505Y0108158D01*
X0109668Y0107397D01*
X0108890Y0106619D02*
X0106110Y0106619D01*
X0106892Y0105621D02*
X0108108Y0105621D01*
X0107695Y0104622D02*
X0107305Y0104622D01*
X0107500Y0103624D02*
X0107500Y0103624D01*
X0107500Y0102625D02*
X0107500Y0102625D01*
X0107278Y0101627D02*
X0107722Y0101627D01*
X0108136Y0100628D02*
X0106864Y0100628D01*
X0106043Y0099630D02*
X0108957Y0099630D01*
X0110363Y0098631D02*
X0104637Y0098631D01*
X0114637Y0098631D02*
X0119930Y0098631D01*
X0118674Y0099630D02*
X0116043Y0099630D01*
X0116864Y0100628D02*
X0117953Y0100628D01*
X0117530Y0101627D02*
X0117278Y0101627D01*
X0117305Y0104622D02*
X0117508Y0104622D01*
X0117919Y0105621D02*
X0116892Y0105621D01*
X0116110Y0106619D02*
X0118607Y0106619D01*
X0119799Y0107618D02*
X0114799Y0107618D01*
X0122000Y0107618D02*
X0123000Y0107618D01*
X0123000Y0106619D02*
X0122000Y0106619D01*
X0122000Y0105621D02*
X0123000Y0105621D01*
X0123000Y0104622D02*
X0122000Y0104622D01*
X0123000Y0103624D02*
X0137500Y0103624D01*
X0137500Y0102625D02*
X0127680Y0102625D01*
X0127470Y0101627D02*
X0137722Y0101627D01*
X0138136Y0100628D02*
X0127047Y0100628D01*
X0126326Y0099630D02*
X0138957Y0099630D01*
X0140363Y0098631D02*
X0125070Y0098631D01*
X0123000Y0098631D02*
X0122000Y0098631D01*
X0122000Y0099630D02*
X0123000Y0099630D01*
X0123000Y0100628D02*
X0122000Y0100628D01*
X0122000Y0101627D02*
X0123000Y0101627D01*
X0123000Y0102625D02*
X0122000Y0102625D01*
X0127081Y0105621D02*
X0138108Y0105621D01*
X0137695Y0104622D02*
X0127492Y0104622D01*
X0126393Y0106619D02*
X0130517Y0106619D01*
X0130028Y0107618D02*
X0125201Y0107618D01*
X0134482Y0116605D02*
X0148411Y0116605D01*
X0149409Y0117603D02*
X0134976Y0117603D01*
X0135000Y0118602D02*
X0142935Y0118602D01*
X0141487Y0119600D02*
X0134594Y0119600D01*
X0133141Y0120599D02*
X0140648Y0120599D01*
X0147065Y0118602D02*
X0150408Y0118602D01*
X0151406Y0119600D02*
X0148513Y0119600D01*
X0149352Y0120599D02*
X0152405Y0120599D01*
X0153403Y0121597D02*
X0149765Y0121597D01*
X0150000Y0122596D02*
X0154402Y0122596D01*
X0155400Y0123594D02*
X0150000Y0123594D01*
X0149818Y0124593D02*
X0156399Y0124593D01*
X0157397Y0125591D02*
X0149404Y0125591D01*
X0148640Y0126590D02*
X0157500Y0126590D01*
X0157500Y0127588D02*
X0147371Y0127588D01*
X0147029Y0128587D02*
X0157500Y0128587D01*
X0157500Y0129585D02*
X0148498Y0129585D01*
X0149346Y0130584D02*
X0157500Y0130584D01*
X0157500Y0131582D02*
X0149759Y0131582D01*
X0150000Y0132581D02*
X0157500Y0132581D01*
X0157500Y0133579D02*
X0150000Y0133579D01*
X0149824Y0134578D02*
X0157500Y0134578D01*
X0157500Y0135576D02*
X0149410Y0135576D01*
X0148654Y0136575D02*
X0157500Y0136575D01*
X0157500Y0137573D02*
X0147406Y0137573D01*
X0146993Y0138572D02*
X0157500Y0138572D01*
X0157500Y0139570D02*
X0148483Y0139570D01*
X0149339Y0140569D02*
X0157500Y0140569D01*
X0157878Y0141567D02*
X0149753Y0141567D01*
X0150000Y0142566D02*
X0158872Y0142566D01*
X0159871Y0143564D02*
X0150000Y0143564D01*
X0149830Y0144563D02*
X0160869Y0144563D01*
X0161868Y0145561D02*
X0149416Y0145561D01*
X0148669Y0146560D02*
X0162866Y0146560D01*
X0163865Y0147558D02*
X0147442Y0147558D01*
X0147424Y0148557D02*
X0164863Y0148557D01*
X0165862Y0149555D02*
X0148751Y0149555D01*
X0149509Y0150554D02*
X0166000Y0150554D01*
X0166000Y0151552D02*
X0149946Y0151552D01*
X0150169Y0152551D02*
X0166000Y0152551D01*
X0166000Y0153549D02*
X0145500Y0153549D01*
X0144500Y0153549D02*
X0138250Y0153549D01*
X0138250Y0152551D02*
X0139831Y0152551D01*
X0140054Y0151552D02*
X0138250Y0151552D01*
X0138250Y0150554D02*
X0140491Y0150554D01*
X0141249Y0149555D02*
X0138250Y0149555D01*
X0138250Y0148557D02*
X0142576Y0148557D01*
X0142558Y0147558D02*
X0138250Y0147558D01*
X0138250Y0146560D02*
X0141331Y0146560D01*
X0140584Y0145561D02*
X0138632Y0145561D01*
X0139624Y0144563D02*
X0140170Y0144563D01*
X0140000Y0143564D02*
X0140000Y0143564D01*
X0139961Y0142566D02*
X0140000Y0142566D01*
X0140247Y0141567D02*
X0139445Y0141567D01*
X0139984Y0154548D02*
X0138250Y0154548D01*
X0138250Y0155546D02*
X0140381Y0155546D01*
X0141033Y0156545D02*
X0138250Y0156545D01*
X0138250Y0157544D02*
X0142189Y0157544D01*
X0143079Y0158542D02*
X0138250Y0158542D01*
X0138250Y0159541D02*
X0141547Y0159541D01*
X0140673Y0160539D02*
X0138250Y0160539D01*
X0138250Y0161538D02*
X0140259Y0161538D01*
X0140000Y0162536D02*
X0138250Y0162536D01*
X0138250Y0163535D02*
X0140000Y0163535D01*
X0140158Y0164533D02*
X0138250Y0164533D01*
X0138250Y0165532D02*
X0140571Y0165532D01*
X0141301Y0166530D02*
X0138250Y0166530D01*
X0138250Y0167529D02*
X0142486Y0167529D01*
X0143115Y0168527D02*
X0138250Y0168527D01*
X0138250Y0169526D02*
X0141561Y0169526D01*
X0140679Y0170524D02*
X0138250Y0170524D01*
X0138250Y0171523D02*
X0140265Y0171523D01*
X0140000Y0172521D02*
X0138250Y0172521D01*
X0138250Y0173520D02*
X0140000Y0173520D01*
X0140151Y0174518D02*
X0138250Y0174518D01*
X0138250Y0175517D02*
X0140565Y0175517D01*
X0141286Y0176515D02*
X0138250Y0176515D01*
X0138250Y0177514D02*
X0142450Y0177514D01*
X0143151Y0178512D02*
X0137895Y0178512D01*
X0136933Y0179511D02*
X0141576Y0179511D01*
X0140685Y0180509D02*
X0135934Y0180509D01*
X0146849Y0178512D02*
X0165819Y0178512D01*
X0165002Y0177514D02*
X0147550Y0177514D01*
X0148714Y0176515D02*
X0164750Y0176515D01*
X0164913Y0175517D02*
X0149435Y0175517D01*
X0149849Y0174518D02*
X0165604Y0174518D01*
X0166000Y0173520D02*
X0150000Y0173520D01*
X0150000Y0172521D02*
X0166000Y0172521D01*
X0166000Y0171523D02*
X0149735Y0171523D01*
X0149321Y0170524D02*
X0166000Y0170524D01*
X0166000Y0169526D02*
X0148439Y0169526D01*
X0146885Y0168527D02*
X0166000Y0168527D01*
X0166000Y0167529D02*
X0147514Y0167529D01*
X0148699Y0166530D02*
X0166000Y0166530D01*
X0166000Y0165532D02*
X0149429Y0165532D01*
X0149842Y0164533D02*
X0166000Y0164533D01*
X0166000Y0163535D02*
X0150000Y0163535D01*
X0150000Y0162536D02*
X0166000Y0162536D01*
X0166000Y0161538D02*
X0149741Y0161538D01*
X0149327Y0160539D02*
X0166000Y0160539D01*
X0166000Y0159541D02*
X0148453Y0159541D01*
X0146921Y0158542D02*
X0166000Y0158542D01*
X0166000Y0157544D02*
X0147811Y0157544D01*
X0148967Y0156545D02*
X0166000Y0156545D01*
X0166000Y0155546D02*
X0149619Y0155546D01*
X0150016Y0154548D02*
X0166000Y0154548D01*
X0171000Y0156545D02*
X0171569Y0156545D01*
X0171000Y0157544D02*
X0175818Y0157544D01*
X0175655Y0157706D02*
X0176134Y0157227D01*
X0176134Y0153741D01*
X0181905Y0153741D01*
X0181905Y0154013D01*
X0181764Y0154724D01*
X0181487Y0155394D01*
X0181084Y0155997D01*
X0180571Y0156510D01*
X0179968Y0156912D01*
X0179690Y0157028D01*
X0180368Y0157706D01*
X0180791Y0158727D01*
X0180791Y0159833D01*
X0180368Y0160855D01*
X0179586Y0161637D01*
X0178565Y0162060D01*
X0177459Y0162060D01*
X0176437Y0161637D01*
X0175655Y0160855D01*
X0175232Y0159833D01*
X0175232Y0158727D01*
X0175655Y0157706D01*
X0175309Y0158542D02*
X0171000Y0158542D01*
X0171000Y0159541D02*
X0175232Y0159541D01*
X0175525Y0160539D02*
X0171000Y0160539D01*
X0171000Y0161538D02*
X0176338Y0161538D01*
X0176134Y0156545D02*
X0175953Y0156545D01*
X0175953Y0155546D02*
X0176134Y0155546D01*
X0176134Y0154548D02*
X0175953Y0154548D01*
X0175953Y0153549D02*
X0176134Y0153549D01*
X0176134Y0153560D02*
X0176134Y0149969D01*
X0178587Y0149969D01*
X0179298Y0150111D01*
X0179968Y0150388D01*
X0180571Y0150791D01*
X0181084Y0151304D01*
X0181487Y0151907D01*
X0181764Y0152577D01*
X0181905Y0153288D01*
X0181905Y0153560D01*
X0176134Y0153560D01*
X0176134Y0152551D02*
X0175953Y0152551D01*
X0175953Y0151552D02*
X0176134Y0151552D01*
X0176134Y0150554D02*
X0175953Y0150554D01*
X0174995Y0148149D02*
X0174005Y0148149D01*
X0173089Y0147770D01*
X0172389Y0147069D01*
X0172009Y0146154D01*
X0172009Y0145163D01*
X0172389Y0144247D01*
X0173089Y0143547D01*
X0174005Y0143168D01*
X0174995Y0143168D01*
X0175911Y0143547D01*
X0176611Y0144247D01*
X0176991Y0145163D01*
X0176991Y0146154D01*
X0176611Y0147069D01*
X0175911Y0147770D01*
X0174995Y0148149D01*
X0176122Y0147558D02*
X0201000Y0147558D01*
X0201000Y0146560D02*
X0176822Y0146560D01*
X0176991Y0145561D02*
X0201000Y0145561D01*
X0201000Y0144563D02*
X0176742Y0144563D01*
X0175928Y0143564D02*
X0201000Y0143564D01*
X0201000Y0142566D02*
X0192614Y0142566D01*
X0192411Y0142770D02*
X0191495Y0143149D01*
X0190505Y0143149D01*
X0189589Y0142770D01*
X0188889Y0142069D01*
X0188509Y0141154D01*
X0188509Y0140163D01*
X0188889Y0139247D01*
X0189589Y0138547D01*
X0190505Y0138168D01*
X0191495Y0138168D01*
X0192411Y0138547D01*
X0193111Y0139247D01*
X0193491Y0140163D01*
X0193491Y0141154D01*
X0193111Y0142069D01*
X0192411Y0142770D01*
X0193319Y0141567D02*
X0201000Y0141567D01*
X0201000Y0140569D02*
X0193491Y0140569D01*
X0193245Y0139570D02*
X0201000Y0139570D01*
X0201000Y0138572D02*
X0192436Y0138572D01*
X0189564Y0138572D02*
X0176491Y0138572D01*
X0176491Y0138654D02*
X0176111Y0139569D01*
X0175411Y0140270D01*
X0174495Y0140649D01*
X0173505Y0140649D01*
X0172589Y0140270D01*
X0171889Y0139569D01*
X0171509Y0138654D01*
X0171509Y0137663D01*
X0171889Y0136747D01*
X0172589Y0136047D01*
X0173505Y0135668D01*
X0174495Y0135668D01*
X0175411Y0136047D01*
X0176111Y0136747D01*
X0176491Y0137663D01*
X0176491Y0138654D01*
X0176110Y0139570D02*
X0188755Y0139570D01*
X0188509Y0140569D02*
X0174688Y0140569D01*
X0173312Y0140569D02*
X0163946Y0140569D01*
X0164505Y0140149D02*
X0163589Y0139770D01*
X0162889Y0139069D01*
X0162509Y0138154D01*
X0162509Y0137163D01*
X0162889Y0136247D01*
X0163589Y0135547D01*
X0164505Y0135168D01*
X0165495Y0135168D01*
X0166411Y0135547D01*
X0167111Y0136247D01*
X0167491Y0137163D01*
X0167491Y0138154D01*
X0167111Y0139069D01*
X0166411Y0139770D01*
X0165495Y0140149D01*
X0164505Y0140149D01*
X0163390Y0139570D02*
X0162948Y0139570D01*
X0162683Y0138572D02*
X0162500Y0138572D01*
X0162500Y0137573D02*
X0162509Y0137573D01*
X0162500Y0136575D02*
X0162753Y0136575D01*
X0162500Y0135576D02*
X0163560Y0135576D01*
X0162500Y0134578D02*
X0195833Y0134578D01*
X0196005Y0134649D02*
X0195089Y0134270D01*
X0194389Y0133569D01*
X0194009Y0132654D01*
X0194009Y0131663D01*
X0194389Y0130747D01*
X0195089Y0130047D01*
X0196005Y0129668D01*
X0196995Y0129668D01*
X0197911Y0130047D01*
X0198611Y0130747D01*
X0198991Y0131663D01*
X0198991Y0132654D01*
X0198611Y0133569D01*
X0197911Y0134270D01*
X0196995Y0134649D01*
X0196005Y0134649D01*
X0197167Y0134578D02*
X0201000Y0134578D01*
X0201000Y0135576D02*
X0166440Y0135576D01*
X0167247Y0136575D02*
X0172061Y0136575D01*
X0171546Y0137573D02*
X0167491Y0137573D01*
X0167317Y0138572D02*
X0171509Y0138572D01*
X0171890Y0139570D02*
X0166610Y0139570D01*
X0164945Y0141567D02*
X0188681Y0141567D01*
X0189386Y0142566D02*
X0165943Y0142566D01*
X0166942Y0143564D02*
X0173072Y0143564D01*
X0172258Y0144563D02*
X0167940Y0144563D01*
X0168939Y0145561D02*
X0172009Y0145561D01*
X0172178Y0146560D02*
X0169937Y0146560D01*
X0170750Y0147558D02*
X0172878Y0147558D01*
X0171000Y0148557D02*
X0201000Y0148557D01*
X0201000Y0149555D02*
X0171000Y0149555D01*
X0171000Y0150554D02*
X0171870Y0150554D01*
X0180216Y0150554D02*
X0188327Y0150554D01*
X0188575Y0150388D02*
X0187972Y0150791D01*
X0187460Y0151304D01*
X0187057Y0151907D01*
X0186779Y0152577D01*
X0186638Y0153288D01*
X0186638Y0153560D01*
X0192409Y0153560D01*
X0192409Y0153741D01*
X0186638Y0153741D01*
X0186638Y0154013D01*
X0186779Y0154724D01*
X0187057Y0155394D01*
X0187460Y0155997D01*
X0187972Y0156510D01*
X0188575Y0156912D01*
X0189245Y0157190D01*
X0189956Y0157331D01*
X0192409Y0157331D01*
X0192409Y0153741D01*
X0192591Y0153741D01*
X0198362Y0153741D01*
X0198362Y0154013D01*
X0198221Y0154724D01*
X0197943Y0155394D01*
X0197540Y0155997D01*
X0197028Y0156510D01*
X0196425Y0156912D01*
X0195755Y0157190D01*
X0195044Y0157331D01*
X0192591Y0157331D01*
X0192591Y0153741D01*
X0192591Y0153560D01*
X0198362Y0153560D01*
X0198362Y0153288D01*
X0198221Y0152577D01*
X0197943Y0151907D01*
X0197540Y0151304D01*
X0197028Y0150791D01*
X0196425Y0150388D01*
X0195755Y0150111D01*
X0195044Y0149969D01*
X0192591Y0149969D01*
X0192591Y0153560D01*
X0192409Y0153560D01*
X0192409Y0149969D01*
X0189956Y0149969D01*
X0189245Y0150111D01*
X0188575Y0150388D01*
X0187293Y0151552D02*
X0181250Y0151552D01*
X0181753Y0152551D02*
X0186790Y0152551D01*
X0186638Y0153549D02*
X0181905Y0153549D01*
X0181799Y0154548D02*
X0186744Y0154548D01*
X0187159Y0155546D02*
X0181385Y0155546D01*
X0180518Y0156545D02*
X0188025Y0156545D01*
X0192409Y0156545D02*
X0192591Y0156545D01*
X0192591Y0155546D02*
X0192409Y0155546D01*
X0192409Y0154548D02*
X0192591Y0154548D01*
X0192591Y0153549D02*
X0192409Y0153549D01*
X0192409Y0152551D02*
X0192591Y0152551D01*
X0192591Y0151552D02*
X0192409Y0151552D01*
X0192409Y0150554D02*
X0192591Y0150554D01*
X0196673Y0150554D02*
X0201000Y0150554D01*
X0201000Y0151552D02*
X0197707Y0151552D01*
X0198210Y0152551D02*
X0201000Y0152551D01*
X0201000Y0153549D02*
X0198362Y0153549D01*
X0198256Y0154548D02*
X0201000Y0154548D01*
X0201000Y0155546D02*
X0197841Y0155546D01*
X0196975Y0156545D02*
X0201000Y0156545D01*
X0201000Y0157544D02*
X0180206Y0157544D01*
X0180715Y0158542D02*
X0201000Y0158542D01*
X0201000Y0159541D02*
X0180791Y0159541D01*
X0180499Y0160539D02*
X0201000Y0160539D01*
X0201000Y0161538D02*
X0179685Y0161538D01*
X0179245Y0167168D02*
X0178255Y0167168D01*
X0177339Y0167547D01*
X0176639Y0168247D01*
X0176259Y0169163D01*
X0176259Y0170154D01*
X0176639Y0171069D01*
X0177050Y0171480D01*
X0177050Y0172336D01*
X0176639Y0172747D01*
X0176259Y0173663D01*
X0176259Y0174654D01*
X0176639Y0175569D01*
X0177339Y0176270D01*
X0178255Y0176649D01*
X0179245Y0176649D01*
X0180161Y0176270D01*
X0180861Y0175569D01*
X0181241Y0174654D01*
X0181241Y0173663D01*
X0180861Y0172747D01*
X0180450Y0172336D01*
X0180450Y0171480D01*
X0180861Y0171069D01*
X0181241Y0170154D01*
X0181241Y0169163D01*
X0180861Y0168247D01*
X0180161Y0167547D01*
X0179245Y0167168D01*
X0180117Y0167529D02*
X0201000Y0167529D01*
X0201000Y0168527D02*
X0180977Y0168527D01*
X0181241Y0169526D02*
X0201000Y0169526D01*
X0201000Y0170524D02*
X0181087Y0170524D01*
X0180450Y0171523D02*
X0201000Y0171523D01*
X0201000Y0172521D02*
X0180635Y0172521D01*
X0181181Y0173520D02*
X0201000Y0173520D01*
X0201000Y0174518D02*
X0181241Y0174518D01*
X0180883Y0175517D02*
X0201000Y0175517D01*
X0201000Y0176515D02*
X0179568Y0176515D01*
X0177932Y0176515D02*
X0170644Y0176515D01*
X0171000Y0175517D02*
X0176617Y0175517D01*
X0176259Y0174518D02*
X0171000Y0174518D01*
X0171000Y0173520D02*
X0176319Y0173520D01*
X0176865Y0172521D02*
X0171000Y0172521D01*
X0171000Y0171523D02*
X0177050Y0171523D01*
X0176413Y0170524D02*
X0171000Y0170524D01*
X0171000Y0169526D02*
X0176259Y0169526D01*
X0176523Y0168527D02*
X0171000Y0168527D01*
X0171000Y0167529D02*
X0177383Y0167529D01*
X0171000Y0166530D02*
X0201000Y0166530D01*
X0201000Y0165532D02*
X0171000Y0165532D01*
X0171000Y0164533D02*
X0201000Y0164533D01*
X0201000Y0163535D02*
X0171000Y0163535D01*
X0171000Y0162536D02*
X0201000Y0162536D01*
X0201000Y0177514D02*
X0169680Y0177514D01*
X0168681Y0178512D02*
X0201000Y0178512D01*
X0201000Y0179511D02*
X0179178Y0179511D01*
X0180388Y0180509D02*
X0201000Y0180509D01*
X0201000Y0181508D02*
X0180791Y0181508D01*
X0180791Y0182506D02*
X0201000Y0182506D01*
X0192591Y0184503D02*
X0192409Y0184503D01*
X0192409Y0185502D02*
X0192591Y0185502D01*
X0192591Y0186500D02*
X0192409Y0186500D01*
X0192409Y0187499D02*
X0192591Y0187499D01*
X0192591Y0188497D02*
X0192409Y0188497D01*
X0192409Y0189496D02*
X0192591Y0189496D01*
X0192591Y0190494D02*
X0192409Y0190494D01*
X0176845Y0179511D02*
X0148424Y0179511D01*
X0149315Y0180509D02*
X0175636Y0180509D01*
X0175232Y0181508D02*
X0149728Y0181508D01*
X0150000Y0182506D02*
X0175232Y0182506D01*
X0175612Y0183505D02*
X0150000Y0183505D01*
X0149855Y0184503D02*
X0171970Y0184503D01*
X0172119Y0184404D02*
X0172788Y0184126D01*
X0173500Y0183985D01*
X0175953Y0183985D01*
X0175953Y0187575D01*
X0170181Y0187575D01*
X0170181Y0187303D01*
X0170323Y0186592D01*
X0170600Y0185922D01*
X0171003Y0185319D01*
X0171516Y0184807D01*
X0172119Y0184404D01*
X0170881Y0185502D02*
X0149441Y0185502D01*
X0148729Y0186500D02*
X0170361Y0186500D01*
X0170181Y0187499D02*
X0147586Y0187499D01*
X0146814Y0188497D02*
X0170274Y0188497D01*
X0170658Y0189496D02*
X0148409Y0189496D01*
X0149309Y0190494D02*
X0171485Y0190494D01*
X0175953Y0190494D02*
X0176134Y0190494D01*
X0176134Y0189496D02*
X0175953Y0189496D01*
X0175953Y0188497D02*
X0176134Y0188497D01*
X0176134Y0187499D02*
X0175953Y0187499D01*
X0175953Y0186500D02*
X0176134Y0186500D01*
X0176134Y0185502D02*
X0175953Y0185502D01*
X0175953Y0184503D02*
X0176134Y0184503D01*
X0183000Y0218453D02*
X0134184Y0218453D01*
X0134411Y0218547D02*
X0135111Y0219247D01*
X0135491Y0220163D01*
X0135491Y0221154D01*
X0135111Y0222069D01*
X0134411Y0222770D01*
X0133495Y0223149D01*
X0132505Y0223149D01*
X0131589Y0222770D01*
X0130889Y0222069D01*
X0130509Y0221154D01*
X0130509Y0220163D01*
X0130889Y0219247D01*
X0131589Y0218547D01*
X0132505Y0218168D01*
X0133495Y0218168D01*
X0134411Y0218547D01*
X0135196Y0219451D02*
X0183000Y0219451D01*
X0183000Y0220450D02*
X0135491Y0220450D01*
X0135368Y0221448D02*
X0183000Y0221448D01*
X0183000Y0222447D02*
X0134734Y0222447D01*
X0131816Y0218453D02*
X0104067Y0218453D01*
X0104799Y0219451D02*
X0130804Y0219451D01*
X0130509Y0220450D02*
X0104991Y0220450D01*
X0104765Y0221448D02*
X0130632Y0221448D01*
X0131266Y0222447D02*
X0103984Y0222447D01*
X0101016Y0222447D02*
X0100491Y0222447D01*
X0100473Y0223445D02*
X0183000Y0223445D01*
X0183000Y0224444D02*
X0099987Y0224444D01*
X0100062Y0221448D02*
X0100235Y0221448D01*
X0100009Y0220450D02*
X0098573Y0220450D01*
X0089950Y0202477D02*
X0058741Y0202477D01*
X0058560Y0201478D02*
X0089798Y0201478D01*
X0067615Y0248408D02*
X0067076Y0248408D01*
X0007319Y0149555D02*
X0004000Y0149555D01*
X0004000Y0148557D02*
X0007406Y0148557D01*
X0007534Y0147558D02*
X0004000Y0147558D01*
X0004000Y0146560D02*
X0007710Y0146560D01*
X0007952Y0145561D02*
X0004000Y0145561D01*
X0004000Y0144563D02*
X0008221Y0144563D01*
X0008585Y0143564D02*
X0004000Y0143564D01*
X0004000Y0142566D02*
X0008984Y0142566D01*
X0009450Y0141567D02*
X0004000Y0141567D01*
X0004000Y0140569D02*
X0009999Y0140569D01*
X0010603Y0139570D02*
X0004000Y0139570D01*
X0004000Y0138572D02*
X0011302Y0138572D01*
X0012109Y0137573D02*
X0004000Y0137573D01*
X0004000Y0136575D02*
X0013015Y0136575D01*
X0014047Y0135576D02*
X0004000Y0135576D01*
X0004000Y0134578D02*
X0015246Y0134578D01*
X0016680Y0133579D02*
X0004000Y0133579D01*
X0004000Y0132581D02*
X0018468Y0132581D01*
X0017405Y0129585D02*
X0004000Y0129585D01*
X0004000Y0128587D02*
X0017009Y0128587D01*
X0017040Y0127588D02*
X0004000Y0127588D01*
X0004000Y0126590D02*
X0017546Y0126590D01*
X0030307Y0116158D02*
X0036000Y0116158D01*
X0037972Y0114608D02*
X0043300Y0114608D01*
X0043300Y0115606D02*
X0038467Y0115606D01*
X0038491Y0116605D02*
X0043300Y0116605D01*
X0043300Y0117603D02*
X0038077Y0117603D01*
X0036609Y0118602D02*
X0043300Y0118602D01*
X0042742Y0119600D02*
X0035099Y0119600D01*
X0035099Y0118602D02*
X0035391Y0118602D01*
X0035099Y0120599D02*
X0042509Y0120599D01*
X0042693Y0121597D02*
X0035099Y0121597D01*
X0035099Y0113609D02*
X0043300Y0113609D01*
X0043300Y0112611D02*
X0035099Y0112611D01*
X0034584Y0111612D02*
X0043050Y0111612D01*
X0030201Y0107618D02*
X0027472Y0107618D01*
X0026983Y0106619D02*
X0028890Y0106619D01*
X0028108Y0105621D02*
X0004000Y0105621D01*
X0004000Y0106619D02*
X0023017Y0106619D01*
X0022528Y0107618D02*
X0004000Y0107618D01*
X0004000Y0108616D02*
X0022509Y0108616D01*
X0022935Y0109615D02*
X0004000Y0109615D01*
X0004000Y0104622D02*
X0027695Y0104622D01*
X0027500Y0103624D02*
X0004000Y0103624D01*
X0004000Y0102625D02*
X0027500Y0102625D01*
X0027722Y0101627D02*
X0004000Y0101627D01*
X0004000Y0100628D02*
X0028136Y0100628D01*
X0028957Y0099630D02*
X0004000Y0099630D01*
X0004000Y0082655D02*
X0201000Y0082655D01*
X0187561Y0095636D02*
X0179059Y0095636D01*
X0178657Y0094637D02*
X0186563Y0094637D01*
X0201000Y0111612D02*
X0150489Y0111612D01*
X0151488Y0112611D02*
X0201000Y0112611D01*
X0201000Y0113609D02*
X0152486Y0113609D01*
X0153485Y0114608D02*
X0201000Y0114608D01*
X0201000Y0115606D02*
X0171470Y0115606D01*
X0171611Y0115747D02*
X0171991Y0116663D01*
X0171991Y0117654D01*
X0171611Y0118569D01*
X0170911Y0119270D01*
X0169995Y0119649D01*
X0169005Y0119649D01*
X0168089Y0119270D01*
X0167389Y0118569D01*
X0167009Y0117654D01*
X0167009Y0116663D01*
X0167389Y0115747D01*
X0168089Y0115047D01*
X0169005Y0114668D01*
X0169995Y0114668D01*
X0170911Y0115047D01*
X0171611Y0115747D01*
X0171966Y0116605D02*
X0201000Y0116605D01*
X0201000Y0117603D02*
X0171991Y0117603D01*
X0171579Y0118602D02*
X0201000Y0118602D01*
X0201000Y0119600D02*
X0170113Y0119600D01*
X0168887Y0119600D02*
X0158477Y0119600D01*
X0157479Y0118602D02*
X0167421Y0118602D01*
X0167009Y0117603D02*
X0156480Y0117603D01*
X0155482Y0116605D02*
X0167034Y0116605D01*
X0167530Y0115606D02*
X0154483Y0115606D01*
X0159476Y0120599D02*
X0201000Y0120599D01*
X0201000Y0121597D02*
X0160474Y0121597D01*
X0161473Y0122596D02*
X0201000Y0122596D01*
X0201000Y0123594D02*
X0162265Y0123594D01*
X0162500Y0124593D02*
X0201000Y0124593D01*
X0201000Y0125591D02*
X0162500Y0125591D01*
X0162500Y0126590D02*
X0201000Y0126590D01*
X0201000Y0127588D02*
X0162500Y0127588D01*
X0162500Y0128587D02*
X0201000Y0128587D01*
X0201000Y0129585D02*
X0162500Y0129585D01*
X0162500Y0130584D02*
X0194552Y0130584D01*
X0194043Y0131582D02*
X0162500Y0131582D01*
X0162500Y0132581D02*
X0194009Y0132581D01*
X0194399Y0133579D02*
X0162500Y0133579D01*
X0175939Y0136575D02*
X0201000Y0136575D01*
X0201000Y0137573D02*
X0176453Y0137573D01*
X0198601Y0133579D02*
X0201000Y0133579D01*
X0201000Y0132581D02*
X0198991Y0132581D01*
X0198957Y0131582D02*
X0201000Y0131582D01*
X0201000Y0130584D02*
X0198448Y0130584D01*
X0153000Y0102625D02*
X0152000Y0102625D01*
X0152000Y0101627D02*
X0153000Y0101627D01*
X0153000Y0100628D02*
X0152000Y0100628D01*
X0152000Y0099630D02*
X0153000Y0099630D01*
X0153000Y0098631D02*
X0152000Y0098631D01*
X0149930Y0098631D02*
X0144637Y0098631D01*
X0146043Y0099630D02*
X0148674Y0099630D01*
X0147953Y0100628D02*
X0146864Y0100628D01*
X0147278Y0101627D02*
X0147530Y0101627D01*
X0147508Y0104622D02*
X0147305Y0104622D01*
X0146892Y0105621D02*
X0147919Y0105621D01*
X0148607Y0106619D02*
X0146110Y0106619D01*
X0144799Y0107618D02*
X0149799Y0107618D01*
D18*
X0132500Y0108158D03*
X0132500Y0118158D03*
X0132500Y0136658D03*
X0137500Y0143158D03*
X0154750Y0153158D03*
X0163750Y0158158D03*
X0168500Y0162658D03*
X0178750Y0169658D03*
X0178750Y0174158D03*
X0168750Y0182658D03*
X0167250Y0176408D03*
X0163750Y0185158D03*
X0157250Y0185158D03*
X0152250Y0171158D03*
X0133000Y0179908D03*
X0123000Y0179658D03*
X0120500Y0170658D03*
X0112500Y0165908D03*
X0112500Y0155658D03*
X0097500Y0137158D03*
X0087250Y0122908D03*
X0096000Y0114658D03*
X0110500Y0122658D03*
X0114500Y0122658D03*
X0114500Y0128658D03*
X0110500Y0128658D03*
X0087500Y0155908D03*
X0083500Y0149158D03*
X0085000Y0168658D03*
X0087750Y0183158D03*
X0084750Y0185658D03*
X0091750Y0199908D03*
X0102500Y0198158D03*
X0102500Y0180658D03*
X0123000Y0197158D03*
X0133000Y0220658D03*
X0133000Y0228158D03*
X0133000Y0235658D03*
X0133000Y0242158D03*
X0151000Y0234408D03*
X0152500Y0250658D03*
X0174750Y0243408D03*
X0185500Y0224658D03*
X0193500Y0216158D03*
X0197000Y0198158D03*
X0185500Y0196158D03*
X0156500Y0204658D03*
X0192750Y0247658D03*
X0174500Y0145658D03*
X0174000Y0138158D03*
X0165000Y0137658D03*
X0160000Y0137658D03*
X0155500Y0129158D03*
X0169500Y0117158D03*
X0176000Y0124658D03*
X0191000Y0140658D03*
X0196500Y0132158D03*
X0102500Y0220408D03*
X0098000Y0222908D03*
X0091750Y0222658D03*
X0087500Y0220408D03*
X0083500Y0224658D03*
X0078000Y0223658D03*
X0069750Y0220658D03*
X0069000Y0215658D03*
X0065000Y0213658D03*
X0068000Y0210908D03*
X0064000Y0207908D03*
X0060000Y0205158D03*
X0056250Y0202408D03*
X0054500Y0192158D03*
X0043500Y0182658D03*
X0037500Y0180658D03*
X0026750Y0196658D03*
X0023500Y0204658D03*
X0031250Y0208408D03*
X0034250Y0217908D03*
X0028000Y0217908D03*
X0023750Y0217908D03*
X0024250Y0225408D03*
X0021750Y0229908D03*
X0017750Y0233158D03*
X0021750Y0236408D03*
X0017750Y0239408D03*
X0020000Y0248658D03*
X0025000Y0248658D03*
X0030000Y0248658D03*
X0035000Y0248658D03*
X0040000Y0248658D03*
X0045000Y0248658D03*
X0050000Y0248658D03*
X0055000Y0248658D03*
X0053500Y0236408D03*
X0057000Y0233158D03*
X0066250Y0233158D03*
X0072000Y0240408D03*
X0075000Y0244158D03*
X0070000Y0247658D03*
X0066000Y0250658D03*
X0045000Y0233158D03*
X0037500Y0233158D03*
X0030000Y0233158D03*
X0040750Y0217908D03*
X0049250Y0218658D03*
X0055000Y0218658D03*
X0071500Y0195658D03*
X0074000Y0213408D03*
X0092250Y0235658D03*
X0090500Y0244658D03*
X0047500Y0162908D03*
X0052500Y0152658D03*
X0049250Y0146658D03*
X0055000Y0136158D03*
X0055000Y0120658D03*
X0045000Y0120658D03*
X0040000Y0125158D03*
X0036000Y0116158D03*
X0025000Y0108158D03*
X0009000Y0114908D03*
X0019500Y0128158D03*
X0027000Y0128408D03*
X0005500Y0157408D03*
X0011250Y0189158D03*
X0014250Y0209158D03*
X0007500Y0217658D03*
X0017750Y0223658D03*
X0007500Y0233158D03*
X0007500Y0252158D03*
X0060000Y0157908D03*
D19*
X0087250Y0122908D02*
X0092000Y0118158D01*
X0132500Y0118158D01*
X0149000Y0113658D02*
X0160000Y0124658D01*
X0160000Y0137658D01*
X0160000Y0140158D01*
X0168500Y0148658D01*
X0168500Y0162658D01*
X0168500Y0175158D01*
X0167250Y0176408D01*
X0185500Y0196158D02*
X0185500Y0224658D01*
X0135750Y0177158D02*
X0133000Y0179908D01*
X0135750Y0177158D02*
X0135750Y0144908D01*
X0137500Y0143158D01*
X0149000Y0113658D02*
X0097000Y0113658D01*
X0096000Y0114658D01*
X0092250Y0235658D02*
X0070250Y0235658D01*
X0061250Y0244658D01*
X0013250Y0244658D01*
X0007500Y0238908D01*
X0007500Y0233158D01*
D20*
X0024250Y0225408D02*
X0046250Y0225408D01*
X0050000Y0229158D01*
X0091750Y0229158D01*
X0098000Y0222908D01*
X0074000Y0222408D02*
X0074000Y0213408D01*
X0074000Y0222408D02*
X0071250Y0225158D01*
X0052250Y0225158D01*
X0049250Y0222158D01*
X0049250Y0218658D01*
X0087750Y0183158D02*
X0105000Y0165908D01*
X0112500Y0165908D01*
X0055000Y0110658D02*
X0062500Y0103158D01*
X0055000Y0110658D02*
X0055000Y0120658D01*
X0045000Y0120658D02*
X0045000Y0111158D01*
X0042500Y0108658D01*
X0042500Y0103158D01*
X0030307Y0116158D02*
X0027500Y0118965D01*
X0178750Y0169658D02*
X0178750Y0174158D01*
D21*
X0055000Y0150158D02*
X0055000Y0136158D01*
X0055000Y0150158D02*
X0052500Y0152658D01*
X0043500Y0182658D02*
X0043500Y0204158D01*
X0034500Y0213158D01*
X0023500Y0213158D01*
X0023500Y0204658D01*
X0023500Y0213158D02*
X0019500Y0213158D01*
X0010250Y0222408D01*
X0010250Y0230408D01*
X0007500Y0233158D01*
M02*
