G75*
%MOIN*%
%OFA0B0*%
%FSLAX25Y25*%
%IPPOS*%
%LPD*%
%AMOC8*
5,1,8,0,0,1.08239X$1,22.5*
%
%ADD10C,0.00000*%
%ADD11R,0.04331X0.03937*%
%ADD12R,0.03937X0.04331*%
%ADD13R,0.03543X0.03150*%
%ADD14R,0.03543X0.04724*%
%ADD15R,0.02362X0.03150*%
%ADD16R,0.03150X0.02362*%
%ADD17C,0.04362*%
%ADD18R,0.04528X0.02362*%
%ADD19R,0.04528X0.01181*%
%ADD20C,0.07400*%
%ADD21R,0.03150X0.03543*%
%ADD22R,0.05157X0.02362*%
%ADD23R,0.08268X0.12992*%
%ADD24C,0.00591*%
%ADD25R,0.09000X0.13000*%
%ADD26C,0.00039*%
%ADD27R,0.03150X0.01575*%
%ADD28R,0.02756X0.02756*%
%ADD29R,0.01575X0.03150*%
%ADD30R,0.05709X0.05709*%
%ADD31R,0.01969X0.01969*%
%ADD32R,0.03937X0.02165*%
%ADD33R,0.05118X0.05118*%
%ADD34OC8,0.05118*%
%ADD35R,0.03898X0.01181*%
%ADD36R,0.07087X0.04606*%
%ADD37R,0.05315X0.06102*%
%ADD38R,0.04331X0.03346*%
%ADD39R,0.04331X0.02953*%
%ADD40R,0.05315X0.07480*%
%ADD41R,0.03937X0.04724*%
%ADD42R,0.03937X0.03937*%
%ADD43R,0.03150X0.01969*%
%ADD44R,0.03937X0.05906*%
%ADD45R,0.07874X0.05906*%
%ADD46R,0.09843X0.09843*%
%ADD47R,0.01575X0.03543*%
%ADD48R,0.04921X0.01811*%
%ADD49R,0.07087X0.04331*%
%ADD50C,0.02381*%
%ADD51C,0.02400*%
%ADD52C,0.01600*%
%ADD53C,0.01000*%
%ADD54C,0.00800*%
%ADD55C,0.03200*%
D10*
X0002500Y0080658D02*
X0202500Y0080658D01*
X0202500Y0255658D01*
X0002500Y0255658D01*
X0002500Y0080658D01*
X0006988Y0090658D02*
X0006990Y0090806D01*
X0006996Y0090954D01*
X0007006Y0091102D01*
X0007020Y0091249D01*
X0007038Y0091396D01*
X0007059Y0091542D01*
X0007085Y0091688D01*
X0007115Y0091833D01*
X0007148Y0091977D01*
X0007186Y0092120D01*
X0007227Y0092262D01*
X0007272Y0092403D01*
X0007320Y0092543D01*
X0007373Y0092682D01*
X0007429Y0092819D01*
X0007489Y0092954D01*
X0007552Y0093088D01*
X0007619Y0093220D01*
X0007690Y0093350D01*
X0007764Y0093478D01*
X0007841Y0093604D01*
X0007922Y0093728D01*
X0008006Y0093850D01*
X0008093Y0093969D01*
X0008184Y0094086D01*
X0008278Y0094201D01*
X0008374Y0094313D01*
X0008474Y0094423D01*
X0008576Y0094529D01*
X0008682Y0094633D01*
X0008790Y0094734D01*
X0008901Y0094832D01*
X0009014Y0094928D01*
X0009130Y0095020D01*
X0009248Y0095109D01*
X0009369Y0095194D01*
X0009492Y0095277D01*
X0009617Y0095356D01*
X0009744Y0095432D01*
X0009873Y0095504D01*
X0010004Y0095573D01*
X0010137Y0095638D01*
X0010272Y0095699D01*
X0010408Y0095757D01*
X0010545Y0095812D01*
X0010684Y0095862D01*
X0010825Y0095909D01*
X0010966Y0095952D01*
X0011109Y0095992D01*
X0011253Y0096027D01*
X0011397Y0096059D01*
X0011543Y0096086D01*
X0011689Y0096110D01*
X0011836Y0096130D01*
X0011983Y0096146D01*
X0012130Y0096158D01*
X0012278Y0096166D01*
X0012426Y0096170D01*
X0012574Y0096170D01*
X0012722Y0096166D01*
X0012870Y0096158D01*
X0013017Y0096146D01*
X0013164Y0096130D01*
X0013311Y0096110D01*
X0013457Y0096086D01*
X0013603Y0096059D01*
X0013747Y0096027D01*
X0013891Y0095992D01*
X0014034Y0095952D01*
X0014175Y0095909D01*
X0014316Y0095862D01*
X0014455Y0095812D01*
X0014592Y0095757D01*
X0014728Y0095699D01*
X0014863Y0095638D01*
X0014996Y0095573D01*
X0015127Y0095504D01*
X0015256Y0095432D01*
X0015383Y0095356D01*
X0015508Y0095277D01*
X0015631Y0095194D01*
X0015752Y0095109D01*
X0015870Y0095020D01*
X0015986Y0094928D01*
X0016099Y0094832D01*
X0016210Y0094734D01*
X0016318Y0094633D01*
X0016424Y0094529D01*
X0016526Y0094423D01*
X0016626Y0094313D01*
X0016722Y0094201D01*
X0016816Y0094086D01*
X0016907Y0093969D01*
X0016994Y0093850D01*
X0017078Y0093728D01*
X0017159Y0093604D01*
X0017236Y0093478D01*
X0017310Y0093350D01*
X0017381Y0093220D01*
X0017448Y0093088D01*
X0017511Y0092954D01*
X0017571Y0092819D01*
X0017627Y0092682D01*
X0017680Y0092543D01*
X0017728Y0092403D01*
X0017773Y0092262D01*
X0017814Y0092120D01*
X0017852Y0091977D01*
X0017885Y0091833D01*
X0017915Y0091688D01*
X0017941Y0091542D01*
X0017962Y0091396D01*
X0017980Y0091249D01*
X0017994Y0091102D01*
X0018004Y0090954D01*
X0018010Y0090806D01*
X0018012Y0090658D01*
X0018010Y0090510D01*
X0018004Y0090362D01*
X0017994Y0090214D01*
X0017980Y0090067D01*
X0017962Y0089920D01*
X0017941Y0089774D01*
X0017915Y0089628D01*
X0017885Y0089483D01*
X0017852Y0089339D01*
X0017814Y0089196D01*
X0017773Y0089054D01*
X0017728Y0088913D01*
X0017680Y0088773D01*
X0017627Y0088634D01*
X0017571Y0088497D01*
X0017511Y0088362D01*
X0017448Y0088228D01*
X0017381Y0088096D01*
X0017310Y0087966D01*
X0017236Y0087838D01*
X0017159Y0087712D01*
X0017078Y0087588D01*
X0016994Y0087466D01*
X0016907Y0087347D01*
X0016816Y0087230D01*
X0016722Y0087115D01*
X0016626Y0087003D01*
X0016526Y0086893D01*
X0016424Y0086787D01*
X0016318Y0086683D01*
X0016210Y0086582D01*
X0016099Y0086484D01*
X0015986Y0086388D01*
X0015870Y0086296D01*
X0015752Y0086207D01*
X0015631Y0086122D01*
X0015508Y0086039D01*
X0015383Y0085960D01*
X0015256Y0085884D01*
X0015127Y0085812D01*
X0014996Y0085743D01*
X0014863Y0085678D01*
X0014728Y0085617D01*
X0014592Y0085559D01*
X0014455Y0085504D01*
X0014316Y0085454D01*
X0014175Y0085407D01*
X0014034Y0085364D01*
X0013891Y0085324D01*
X0013747Y0085289D01*
X0013603Y0085257D01*
X0013457Y0085230D01*
X0013311Y0085206D01*
X0013164Y0085186D01*
X0013017Y0085170D01*
X0012870Y0085158D01*
X0012722Y0085150D01*
X0012574Y0085146D01*
X0012426Y0085146D01*
X0012278Y0085150D01*
X0012130Y0085158D01*
X0011983Y0085170D01*
X0011836Y0085186D01*
X0011689Y0085206D01*
X0011543Y0085230D01*
X0011397Y0085257D01*
X0011253Y0085289D01*
X0011109Y0085324D01*
X0010966Y0085364D01*
X0010825Y0085407D01*
X0010684Y0085454D01*
X0010545Y0085504D01*
X0010408Y0085559D01*
X0010272Y0085617D01*
X0010137Y0085678D01*
X0010004Y0085743D01*
X0009873Y0085812D01*
X0009744Y0085884D01*
X0009617Y0085960D01*
X0009492Y0086039D01*
X0009369Y0086122D01*
X0009248Y0086207D01*
X0009130Y0086296D01*
X0009014Y0086388D01*
X0008901Y0086484D01*
X0008790Y0086582D01*
X0008682Y0086683D01*
X0008576Y0086787D01*
X0008474Y0086893D01*
X0008374Y0087003D01*
X0008278Y0087115D01*
X0008184Y0087230D01*
X0008093Y0087347D01*
X0008006Y0087466D01*
X0007922Y0087588D01*
X0007841Y0087712D01*
X0007764Y0087838D01*
X0007690Y0087966D01*
X0007619Y0088096D01*
X0007552Y0088228D01*
X0007489Y0088362D01*
X0007429Y0088497D01*
X0007373Y0088634D01*
X0007320Y0088773D01*
X0007272Y0088913D01*
X0007227Y0089054D01*
X0007186Y0089196D01*
X0007148Y0089339D01*
X0007115Y0089483D01*
X0007085Y0089628D01*
X0007059Y0089774D01*
X0007038Y0089920D01*
X0007020Y0090067D01*
X0007006Y0090214D01*
X0006996Y0090362D01*
X0006990Y0090510D01*
X0006988Y0090658D01*
X0096988Y0245658D02*
X0096990Y0245806D01*
X0096996Y0245954D01*
X0097006Y0246102D01*
X0097020Y0246249D01*
X0097038Y0246396D01*
X0097059Y0246542D01*
X0097085Y0246688D01*
X0097115Y0246833D01*
X0097148Y0246977D01*
X0097186Y0247120D01*
X0097227Y0247262D01*
X0097272Y0247403D01*
X0097320Y0247543D01*
X0097373Y0247682D01*
X0097429Y0247819D01*
X0097489Y0247954D01*
X0097552Y0248088D01*
X0097619Y0248220D01*
X0097690Y0248350D01*
X0097764Y0248478D01*
X0097841Y0248604D01*
X0097922Y0248728D01*
X0098006Y0248850D01*
X0098093Y0248969D01*
X0098184Y0249086D01*
X0098278Y0249201D01*
X0098374Y0249313D01*
X0098474Y0249423D01*
X0098576Y0249529D01*
X0098682Y0249633D01*
X0098790Y0249734D01*
X0098901Y0249832D01*
X0099014Y0249928D01*
X0099130Y0250020D01*
X0099248Y0250109D01*
X0099369Y0250194D01*
X0099492Y0250277D01*
X0099617Y0250356D01*
X0099744Y0250432D01*
X0099873Y0250504D01*
X0100004Y0250573D01*
X0100137Y0250638D01*
X0100272Y0250699D01*
X0100408Y0250757D01*
X0100545Y0250812D01*
X0100684Y0250862D01*
X0100825Y0250909D01*
X0100966Y0250952D01*
X0101109Y0250992D01*
X0101253Y0251027D01*
X0101397Y0251059D01*
X0101543Y0251086D01*
X0101689Y0251110D01*
X0101836Y0251130D01*
X0101983Y0251146D01*
X0102130Y0251158D01*
X0102278Y0251166D01*
X0102426Y0251170D01*
X0102574Y0251170D01*
X0102722Y0251166D01*
X0102870Y0251158D01*
X0103017Y0251146D01*
X0103164Y0251130D01*
X0103311Y0251110D01*
X0103457Y0251086D01*
X0103603Y0251059D01*
X0103747Y0251027D01*
X0103891Y0250992D01*
X0104034Y0250952D01*
X0104175Y0250909D01*
X0104316Y0250862D01*
X0104455Y0250812D01*
X0104592Y0250757D01*
X0104728Y0250699D01*
X0104863Y0250638D01*
X0104996Y0250573D01*
X0105127Y0250504D01*
X0105256Y0250432D01*
X0105383Y0250356D01*
X0105508Y0250277D01*
X0105631Y0250194D01*
X0105752Y0250109D01*
X0105870Y0250020D01*
X0105986Y0249928D01*
X0106099Y0249832D01*
X0106210Y0249734D01*
X0106318Y0249633D01*
X0106424Y0249529D01*
X0106526Y0249423D01*
X0106626Y0249313D01*
X0106722Y0249201D01*
X0106816Y0249086D01*
X0106907Y0248969D01*
X0106994Y0248850D01*
X0107078Y0248728D01*
X0107159Y0248604D01*
X0107236Y0248478D01*
X0107310Y0248350D01*
X0107381Y0248220D01*
X0107448Y0248088D01*
X0107511Y0247954D01*
X0107571Y0247819D01*
X0107627Y0247682D01*
X0107680Y0247543D01*
X0107728Y0247403D01*
X0107773Y0247262D01*
X0107814Y0247120D01*
X0107852Y0246977D01*
X0107885Y0246833D01*
X0107915Y0246688D01*
X0107941Y0246542D01*
X0107962Y0246396D01*
X0107980Y0246249D01*
X0107994Y0246102D01*
X0108004Y0245954D01*
X0108010Y0245806D01*
X0108012Y0245658D01*
X0108010Y0245510D01*
X0108004Y0245362D01*
X0107994Y0245214D01*
X0107980Y0245067D01*
X0107962Y0244920D01*
X0107941Y0244774D01*
X0107915Y0244628D01*
X0107885Y0244483D01*
X0107852Y0244339D01*
X0107814Y0244196D01*
X0107773Y0244054D01*
X0107728Y0243913D01*
X0107680Y0243773D01*
X0107627Y0243634D01*
X0107571Y0243497D01*
X0107511Y0243362D01*
X0107448Y0243228D01*
X0107381Y0243096D01*
X0107310Y0242966D01*
X0107236Y0242838D01*
X0107159Y0242712D01*
X0107078Y0242588D01*
X0106994Y0242466D01*
X0106907Y0242347D01*
X0106816Y0242230D01*
X0106722Y0242115D01*
X0106626Y0242003D01*
X0106526Y0241893D01*
X0106424Y0241787D01*
X0106318Y0241683D01*
X0106210Y0241582D01*
X0106099Y0241484D01*
X0105986Y0241388D01*
X0105870Y0241296D01*
X0105752Y0241207D01*
X0105631Y0241122D01*
X0105508Y0241039D01*
X0105383Y0240960D01*
X0105256Y0240884D01*
X0105127Y0240812D01*
X0104996Y0240743D01*
X0104863Y0240678D01*
X0104728Y0240617D01*
X0104592Y0240559D01*
X0104455Y0240504D01*
X0104316Y0240454D01*
X0104175Y0240407D01*
X0104034Y0240364D01*
X0103891Y0240324D01*
X0103747Y0240289D01*
X0103603Y0240257D01*
X0103457Y0240230D01*
X0103311Y0240206D01*
X0103164Y0240186D01*
X0103017Y0240170D01*
X0102870Y0240158D01*
X0102722Y0240150D01*
X0102574Y0240146D01*
X0102426Y0240146D01*
X0102278Y0240150D01*
X0102130Y0240158D01*
X0101983Y0240170D01*
X0101836Y0240186D01*
X0101689Y0240206D01*
X0101543Y0240230D01*
X0101397Y0240257D01*
X0101253Y0240289D01*
X0101109Y0240324D01*
X0100966Y0240364D01*
X0100825Y0240407D01*
X0100684Y0240454D01*
X0100545Y0240504D01*
X0100408Y0240559D01*
X0100272Y0240617D01*
X0100137Y0240678D01*
X0100004Y0240743D01*
X0099873Y0240812D01*
X0099744Y0240884D01*
X0099617Y0240960D01*
X0099492Y0241039D01*
X0099369Y0241122D01*
X0099248Y0241207D01*
X0099130Y0241296D01*
X0099014Y0241388D01*
X0098901Y0241484D01*
X0098790Y0241582D01*
X0098682Y0241683D01*
X0098576Y0241787D01*
X0098474Y0241893D01*
X0098374Y0242003D01*
X0098278Y0242115D01*
X0098184Y0242230D01*
X0098093Y0242347D01*
X0098006Y0242466D01*
X0097922Y0242588D01*
X0097841Y0242712D01*
X0097764Y0242838D01*
X0097690Y0242966D01*
X0097619Y0243096D01*
X0097552Y0243228D01*
X0097489Y0243362D01*
X0097429Y0243497D01*
X0097373Y0243634D01*
X0097320Y0243773D01*
X0097272Y0243913D01*
X0097227Y0244054D01*
X0097186Y0244196D01*
X0097148Y0244339D01*
X0097115Y0244483D01*
X0097085Y0244628D01*
X0097059Y0244774D01*
X0097038Y0244920D01*
X0097020Y0245067D01*
X0097006Y0245214D01*
X0096996Y0245362D01*
X0096990Y0245510D01*
X0096988Y0245658D01*
X0176732Y0182036D02*
X0176734Y0182107D01*
X0176740Y0182178D01*
X0176750Y0182249D01*
X0176764Y0182318D01*
X0176781Y0182387D01*
X0176803Y0182455D01*
X0176828Y0182522D01*
X0176857Y0182587D01*
X0176889Y0182650D01*
X0176925Y0182712D01*
X0176964Y0182771D01*
X0177007Y0182828D01*
X0177052Y0182883D01*
X0177101Y0182935D01*
X0177152Y0182984D01*
X0177206Y0183030D01*
X0177263Y0183074D01*
X0177321Y0183114D01*
X0177382Y0183150D01*
X0177445Y0183184D01*
X0177510Y0183213D01*
X0177576Y0183239D01*
X0177644Y0183262D01*
X0177712Y0183280D01*
X0177782Y0183295D01*
X0177852Y0183306D01*
X0177923Y0183313D01*
X0177994Y0183316D01*
X0178065Y0183315D01*
X0178136Y0183310D01*
X0178207Y0183301D01*
X0178277Y0183288D01*
X0178346Y0183272D01*
X0178414Y0183251D01*
X0178481Y0183227D01*
X0178547Y0183199D01*
X0178610Y0183167D01*
X0178672Y0183132D01*
X0178732Y0183094D01*
X0178790Y0183052D01*
X0178845Y0183008D01*
X0178898Y0182960D01*
X0178948Y0182909D01*
X0178995Y0182856D01*
X0179039Y0182800D01*
X0179080Y0182742D01*
X0179118Y0182681D01*
X0179152Y0182619D01*
X0179182Y0182554D01*
X0179209Y0182489D01*
X0179233Y0182421D01*
X0179252Y0182353D01*
X0179268Y0182284D01*
X0179280Y0182213D01*
X0179288Y0182143D01*
X0179292Y0182072D01*
X0179292Y0182000D01*
X0179288Y0181929D01*
X0179280Y0181859D01*
X0179268Y0181788D01*
X0179252Y0181719D01*
X0179233Y0181651D01*
X0179209Y0181583D01*
X0179182Y0181518D01*
X0179152Y0181453D01*
X0179118Y0181391D01*
X0179080Y0181330D01*
X0179039Y0181272D01*
X0178995Y0181216D01*
X0178948Y0181163D01*
X0178898Y0181112D01*
X0178845Y0181064D01*
X0178790Y0181020D01*
X0178732Y0180978D01*
X0178672Y0180940D01*
X0178610Y0180905D01*
X0178547Y0180873D01*
X0178481Y0180845D01*
X0178414Y0180821D01*
X0178346Y0180800D01*
X0178277Y0180784D01*
X0178207Y0180771D01*
X0178136Y0180762D01*
X0178065Y0180757D01*
X0177994Y0180756D01*
X0177923Y0180759D01*
X0177852Y0180766D01*
X0177782Y0180777D01*
X0177712Y0180792D01*
X0177644Y0180810D01*
X0177576Y0180833D01*
X0177510Y0180859D01*
X0177445Y0180888D01*
X0177382Y0180922D01*
X0177321Y0180958D01*
X0177263Y0180998D01*
X0177206Y0181042D01*
X0177152Y0181088D01*
X0177101Y0181137D01*
X0177052Y0181189D01*
X0177007Y0181244D01*
X0176964Y0181301D01*
X0176925Y0181360D01*
X0176889Y0181422D01*
X0176857Y0181485D01*
X0176828Y0181550D01*
X0176803Y0181617D01*
X0176781Y0181685D01*
X0176764Y0181754D01*
X0176750Y0181823D01*
X0176740Y0181894D01*
X0176734Y0181965D01*
X0176732Y0182036D01*
X0176732Y0159280D02*
X0176734Y0159351D01*
X0176740Y0159422D01*
X0176750Y0159493D01*
X0176764Y0159562D01*
X0176781Y0159631D01*
X0176803Y0159699D01*
X0176828Y0159766D01*
X0176857Y0159831D01*
X0176889Y0159894D01*
X0176925Y0159956D01*
X0176964Y0160015D01*
X0177007Y0160072D01*
X0177052Y0160127D01*
X0177101Y0160179D01*
X0177152Y0160228D01*
X0177206Y0160274D01*
X0177263Y0160318D01*
X0177321Y0160358D01*
X0177382Y0160394D01*
X0177445Y0160428D01*
X0177510Y0160457D01*
X0177576Y0160483D01*
X0177644Y0160506D01*
X0177712Y0160524D01*
X0177782Y0160539D01*
X0177852Y0160550D01*
X0177923Y0160557D01*
X0177994Y0160560D01*
X0178065Y0160559D01*
X0178136Y0160554D01*
X0178207Y0160545D01*
X0178277Y0160532D01*
X0178346Y0160516D01*
X0178414Y0160495D01*
X0178481Y0160471D01*
X0178547Y0160443D01*
X0178610Y0160411D01*
X0178672Y0160376D01*
X0178732Y0160338D01*
X0178790Y0160296D01*
X0178845Y0160252D01*
X0178898Y0160204D01*
X0178948Y0160153D01*
X0178995Y0160100D01*
X0179039Y0160044D01*
X0179080Y0159986D01*
X0179118Y0159925D01*
X0179152Y0159863D01*
X0179182Y0159798D01*
X0179209Y0159733D01*
X0179233Y0159665D01*
X0179252Y0159597D01*
X0179268Y0159528D01*
X0179280Y0159457D01*
X0179288Y0159387D01*
X0179292Y0159316D01*
X0179292Y0159244D01*
X0179288Y0159173D01*
X0179280Y0159103D01*
X0179268Y0159032D01*
X0179252Y0158963D01*
X0179233Y0158895D01*
X0179209Y0158827D01*
X0179182Y0158762D01*
X0179152Y0158697D01*
X0179118Y0158635D01*
X0179080Y0158574D01*
X0179039Y0158516D01*
X0178995Y0158460D01*
X0178948Y0158407D01*
X0178898Y0158356D01*
X0178845Y0158308D01*
X0178790Y0158264D01*
X0178732Y0158222D01*
X0178672Y0158184D01*
X0178610Y0158149D01*
X0178547Y0158117D01*
X0178481Y0158089D01*
X0178414Y0158065D01*
X0178346Y0158044D01*
X0178277Y0158028D01*
X0178207Y0158015D01*
X0178136Y0158006D01*
X0178065Y0158001D01*
X0177994Y0158000D01*
X0177923Y0158003D01*
X0177852Y0158010D01*
X0177782Y0158021D01*
X0177712Y0158036D01*
X0177644Y0158054D01*
X0177576Y0158077D01*
X0177510Y0158103D01*
X0177445Y0158132D01*
X0177382Y0158166D01*
X0177321Y0158202D01*
X0177263Y0158242D01*
X0177206Y0158286D01*
X0177152Y0158332D01*
X0177101Y0158381D01*
X0177052Y0158433D01*
X0177007Y0158488D01*
X0176964Y0158545D01*
X0176925Y0158604D01*
X0176889Y0158666D01*
X0176857Y0158729D01*
X0176828Y0158794D01*
X0176803Y0158861D01*
X0176781Y0158929D01*
X0176764Y0158998D01*
X0176750Y0159067D01*
X0176740Y0159138D01*
X0176734Y0159209D01*
X0176732Y0159280D01*
X0186988Y0090658D02*
X0186990Y0090806D01*
X0186996Y0090954D01*
X0187006Y0091102D01*
X0187020Y0091249D01*
X0187038Y0091396D01*
X0187059Y0091542D01*
X0187085Y0091688D01*
X0187115Y0091833D01*
X0187148Y0091977D01*
X0187186Y0092120D01*
X0187227Y0092262D01*
X0187272Y0092403D01*
X0187320Y0092543D01*
X0187373Y0092682D01*
X0187429Y0092819D01*
X0187489Y0092954D01*
X0187552Y0093088D01*
X0187619Y0093220D01*
X0187690Y0093350D01*
X0187764Y0093478D01*
X0187841Y0093604D01*
X0187922Y0093728D01*
X0188006Y0093850D01*
X0188093Y0093969D01*
X0188184Y0094086D01*
X0188278Y0094201D01*
X0188374Y0094313D01*
X0188474Y0094423D01*
X0188576Y0094529D01*
X0188682Y0094633D01*
X0188790Y0094734D01*
X0188901Y0094832D01*
X0189014Y0094928D01*
X0189130Y0095020D01*
X0189248Y0095109D01*
X0189369Y0095194D01*
X0189492Y0095277D01*
X0189617Y0095356D01*
X0189744Y0095432D01*
X0189873Y0095504D01*
X0190004Y0095573D01*
X0190137Y0095638D01*
X0190272Y0095699D01*
X0190408Y0095757D01*
X0190545Y0095812D01*
X0190684Y0095862D01*
X0190825Y0095909D01*
X0190966Y0095952D01*
X0191109Y0095992D01*
X0191253Y0096027D01*
X0191397Y0096059D01*
X0191543Y0096086D01*
X0191689Y0096110D01*
X0191836Y0096130D01*
X0191983Y0096146D01*
X0192130Y0096158D01*
X0192278Y0096166D01*
X0192426Y0096170D01*
X0192574Y0096170D01*
X0192722Y0096166D01*
X0192870Y0096158D01*
X0193017Y0096146D01*
X0193164Y0096130D01*
X0193311Y0096110D01*
X0193457Y0096086D01*
X0193603Y0096059D01*
X0193747Y0096027D01*
X0193891Y0095992D01*
X0194034Y0095952D01*
X0194175Y0095909D01*
X0194316Y0095862D01*
X0194455Y0095812D01*
X0194592Y0095757D01*
X0194728Y0095699D01*
X0194863Y0095638D01*
X0194996Y0095573D01*
X0195127Y0095504D01*
X0195256Y0095432D01*
X0195383Y0095356D01*
X0195508Y0095277D01*
X0195631Y0095194D01*
X0195752Y0095109D01*
X0195870Y0095020D01*
X0195986Y0094928D01*
X0196099Y0094832D01*
X0196210Y0094734D01*
X0196318Y0094633D01*
X0196424Y0094529D01*
X0196526Y0094423D01*
X0196626Y0094313D01*
X0196722Y0094201D01*
X0196816Y0094086D01*
X0196907Y0093969D01*
X0196994Y0093850D01*
X0197078Y0093728D01*
X0197159Y0093604D01*
X0197236Y0093478D01*
X0197310Y0093350D01*
X0197381Y0093220D01*
X0197448Y0093088D01*
X0197511Y0092954D01*
X0197571Y0092819D01*
X0197627Y0092682D01*
X0197680Y0092543D01*
X0197728Y0092403D01*
X0197773Y0092262D01*
X0197814Y0092120D01*
X0197852Y0091977D01*
X0197885Y0091833D01*
X0197915Y0091688D01*
X0197941Y0091542D01*
X0197962Y0091396D01*
X0197980Y0091249D01*
X0197994Y0091102D01*
X0198004Y0090954D01*
X0198010Y0090806D01*
X0198012Y0090658D01*
X0198010Y0090510D01*
X0198004Y0090362D01*
X0197994Y0090214D01*
X0197980Y0090067D01*
X0197962Y0089920D01*
X0197941Y0089774D01*
X0197915Y0089628D01*
X0197885Y0089483D01*
X0197852Y0089339D01*
X0197814Y0089196D01*
X0197773Y0089054D01*
X0197728Y0088913D01*
X0197680Y0088773D01*
X0197627Y0088634D01*
X0197571Y0088497D01*
X0197511Y0088362D01*
X0197448Y0088228D01*
X0197381Y0088096D01*
X0197310Y0087966D01*
X0197236Y0087838D01*
X0197159Y0087712D01*
X0197078Y0087588D01*
X0196994Y0087466D01*
X0196907Y0087347D01*
X0196816Y0087230D01*
X0196722Y0087115D01*
X0196626Y0087003D01*
X0196526Y0086893D01*
X0196424Y0086787D01*
X0196318Y0086683D01*
X0196210Y0086582D01*
X0196099Y0086484D01*
X0195986Y0086388D01*
X0195870Y0086296D01*
X0195752Y0086207D01*
X0195631Y0086122D01*
X0195508Y0086039D01*
X0195383Y0085960D01*
X0195256Y0085884D01*
X0195127Y0085812D01*
X0194996Y0085743D01*
X0194863Y0085678D01*
X0194728Y0085617D01*
X0194592Y0085559D01*
X0194455Y0085504D01*
X0194316Y0085454D01*
X0194175Y0085407D01*
X0194034Y0085364D01*
X0193891Y0085324D01*
X0193747Y0085289D01*
X0193603Y0085257D01*
X0193457Y0085230D01*
X0193311Y0085206D01*
X0193164Y0085186D01*
X0193017Y0085170D01*
X0192870Y0085158D01*
X0192722Y0085150D01*
X0192574Y0085146D01*
X0192426Y0085146D01*
X0192278Y0085150D01*
X0192130Y0085158D01*
X0191983Y0085170D01*
X0191836Y0085186D01*
X0191689Y0085206D01*
X0191543Y0085230D01*
X0191397Y0085257D01*
X0191253Y0085289D01*
X0191109Y0085324D01*
X0190966Y0085364D01*
X0190825Y0085407D01*
X0190684Y0085454D01*
X0190545Y0085504D01*
X0190408Y0085559D01*
X0190272Y0085617D01*
X0190137Y0085678D01*
X0190004Y0085743D01*
X0189873Y0085812D01*
X0189744Y0085884D01*
X0189617Y0085960D01*
X0189492Y0086039D01*
X0189369Y0086122D01*
X0189248Y0086207D01*
X0189130Y0086296D01*
X0189014Y0086388D01*
X0188901Y0086484D01*
X0188790Y0086582D01*
X0188682Y0086683D01*
X0188576Y0086787D01*
X0188474Y0086893D01*
X0188374Y0087003D01*
X0188278Y0087115D01*
X0188184Y0087230D01*
X0188093Y0087347D01*
X0188006Y0087466D01*
X0187922Y0087588D01*
X0187841Y0087712D01*
X0187764Y0087838D01*
X0187690Y0087966D01*
X0187619Y0088096D01*
X0187552Y0088228D01*
X0187489Y0088362D01*
X0187429Y0088497D01*
X0187373Y0088634D01*
X0187320Y0088773D01*
X0187272Y0088913D01*
X0187227Y0089054D01*
X0187186Y0089196D01*
X0187148Y0089339D01*
X0187115Y0089483D01*
X0187085Y0089628D01*
X0187059Y0089774D01*
X0187038Y0089920D01*
X0187020Y0090067D01*
X0187006Y0090214D01*
X0186996Y0090362D01*
X0186990Y0090510D01*
X0186988Y0090658D01*
D11*
X0185846Y0138158D03*
X0179154Y0138158D03*
X0179154Y0145658D03*
X0185846Y0145658D03*
X0165846Y0153158D03*
X0159154Y0153158D03*
X0156654Y0143158D03*
X0163346Y0143158D03*
X0163346Y0180658D03*
X0156654Y0180658D03*
X0128346Y0213158D03*
X0121654Y0213158D03*
X0121654Y0220658D03*
X0121654Y0228158D03*
X0128346Y0228158D03*
X0128346Y0220658D03*
X0128346Y0235658D03*
X0121654Y0235658D03*
X0121654Y0243158D03*
X0121654Y0250658D03*
X0128346Y0250658D03*
X0128346Y0243158D03*
X0141654Y0250658D03*
X0148346Y0250658D03*
X0115846Y0170658D03*
X0109154Y0170658D03*
X0093346Y0163158D03*
X0086654Y0163158D03*
X0075846Y0165658D03*
X0069154Y0165658D03*
X0065846Y0188158D03*
X0059154Y0188158D03*
X0059154Y0198158D03*
X0065846Y0198158D03*
X0074154Y0200658D03*
X0080846Y0200658D03*
X0079154Y0233158D03*
X0085846Y0233158D03*
X0085846Y0240658D03*
X0079154Y0240658D03*
X0079154Y0248158D03*
X0085846Y0248158D03*
X0023346Y0200658D03*
X0016654Y0200658D03*
X0016654Y0193158D03*
X0023346Y0193158D03*
X0029154Y0143158D03*
X0035846Y0143158D03*
X0109154Y0140658D03*
X0115846Y0140658D03*
D12*
X0132500Y0131505D03*
X0132500Y0124812D03*
X0157500Y0124005D03*
X0157500Y0117312D03*
X0127500Y0179812D03*
X0127500Y0186505D03*
X0127500Y0197312D03*
X0127500Y0204005D03*
X0107500Y0212312D03*
X0107500Y0219005D03*
X0097500Y0204005D03*
X0097500Y0197312D03*
X0097500Y0186505D03*
X0097500Y0179812D03*
X0085000Y0179005D03*
X0085000Y0172312D03*
X0060000Y0172312D03*
X0060000Y0179005D03*
X0050000Y0192312D03*
X0050000Y0199005D03*
X0042500Y0199005D03*
X0042500Y0192312D03*
X0035000Y0192312D03*
X0035000Y0199005D03*
X0032500Y0176505D03*
X0032500Y0169812D03*
X0040000Y0169812D03*
X0040000Y0176505D03*
X0047500Y0159005D03*
X0047500Y0152312D03*
X0060000Y0154005D03*
X0060000Y0147312D03*
X0055000Y0131505D03*
X0055000Y0124812D03*
X0045000Y0124812D03*
X0045000Y0131505D03*
X0035000Y0131505D03*
X0035000Y0124812D03*
X0092500Y0121505D03*
X0092500Y0114812D03*
X0092500Y0129812D03*
X0092500Y0136505D03*
X0082500Y0212312D03*
X0082500Y0219005D03*
X0157500Y0196505D03*
X0157500Y0189812D03*
X0165000Y0189812D03*
X0165000Y0196505D03*
X0007500Y0222312D03*
X0007500Y0229005D03*
X0007500Y0237312D03*
X0007500Y0244005D03*
D13*
X0156063Y0164221D03*
X0163937Y0164221D03*
X0163937Y0172095D03*
D14*
X0156063Y0171308D03*
D15*
X0082500Y0127489D03*
X0082500Y0118827D03*
X0072500Y0118827D03*
X0072500Y0127489D03*
X0062500Y0127489D03*
X0062500Y0118827D03*
D16*
X0049331Y0116158D03*
X0040669Y0116158D03*
X0068169Y0138158D03*
X0076831Y0138158D03*
X0083169Y0155658D03*
X0091831Y0155658D03*
X0175669Y0130658D03*
X0184331Y0130658D03*
D17*
X0190319Y0153650D02*
X0194681Y0153650D01*
X0178224Y0153650D02*
X0173862Y0153650D01*
X0173862Y0187666D02*
X0178224Y0187666D01*
X0190319Y0187666D02*
X0194681Y0187666D01*
D18*
X0173780Y0183257D03*
X0173780Y0180107D03*
X0173780Y0161209D03*
X0173780Y0158060D03*
D19*
X0173780Y0163768D03*
X0173780Y0165737D03*
X0173780Y0167705D03*
X0173780Y0169674D03*
X0173780Y0171642D03*
X0173780Y0173611D03*
X0173780Y0175579D03*
X0173780Y0177548D03*
D20*
X0145000Y0173158D03*
X0145000Y0183158D03*
X0145000Y0193158D03*
X0145000Y0203158D03*
X0145000Y0213158D03*
X0145000Y0163158D03*
X0145000Y0153158D03*
X0145000Y0143158D03*
X0145000Y0133158D03*
X0145000Y0123158D03*
X0142500Y0103158D03*
X0152500Y0103158D03*
X0122500Y0103158D03*
X0112500Y0103158D03*
X0102500Y0103158D03*
X0082500Y0103158D03*
X0072500Y0103158D03*
X0062500Y0103158D03*
X0052500Y0103158D03*
X0042500Y0103158D03*
X0032500Y0103158D03*
D21*
X0068760Y0146721D03*
X0072500Y0154989D03*
X0076240Y0146721D03*
X0076240Y0171721D03*
X0072500Y0179989D03*
X0068760Y0171721D03*
D22*
X0101673Y0163532D03*
X0101673Y0159595D03*
X0101673Y0155658D03*
X0101673Y0151721D03*
X0101673Y0147784D03*
X0123327Y0147784D03*
X0123327Y0151721D03*
X0123327Y0155658D03*
X0123327Y0159595D03*
X0123327Y0163532D03*
D23*
X0112500Y0155658D03*
D24*
X0106339Y0132272D02*
X0099173Y0132272D01*
X0099173Y0134044D01*
X0106339Y0134044D01*
X0106339Y0132272D01*
X0106339Y0132862D02*
X0099173Y0132862D01*
X0099173Y0133452D02*
X0106339Y0133452D01*
X0106339Y0134042D02*
X0099173Y0134042D01*
X0099173Y0127272D02*
X0106339Y0127272D01*
X0099173Y0127272D02*
X0099173Y0129044D01*
X0106339Y0129044D01*
X0106339Y0127272D01*
X0106339Y0127862D02*
X0099173Y0127862D01*
X0099173Y0128452D02*
X0106339Y0128452D01*
X0106339Y0129042D02*
X0099173Y0129042D01*
X0099173Y0122272D02*
X0106339Y0122272D01*
X0099173Y0122272D02*
X0099173Y0124044D01*
X0106339Y0124044D01*
X0106339Y0122272D01*
X0106339Y0122862D02*
X0099173Y0122862D01*
X0099173Y0123452D02*
X0106339Y0123452D01*
X0106339Y0124042D02*
X0099173Y0124042D01*
X0099173Y0117272D02*
X0106339Y0117272D01*
X0099173Y0117272D02*
X0099173Y0119044D01*
X0106339Y0119044D01*
X0106339Y0117272D01*
X0106339Y0117862D02*
X0099173Y0117862D01*
X0099173Y0118452D02*
X0106339Y0118452D01*
X0106339Y0119042D02*
X0099173Y0119042D01*
X0118661Y0117272D02*
X0125827Y0117272D01*
X0118661Y0117272D02*
X0118661Y0119044D01*
X0125827Y0119044D01*
X0125827Y0117272D01*
X0125827Y0117862D02*
X0118661Y0117862D01*
X0118661Y0118452D02*
X0125827Y0118452D01*
X0125827Y0119042D02*
X0118661Y0119042D01*
X0118661Y0122272D02*
X0125827Y0122272D01*
X0118661Y0122272D02*
X0118661Y0124044D01*
X0125827Y0124044D01*
X0125827Y0122272D01*
X0125827Y0122862D02*
X0118661Y0122862D01*
X0118661Y0123452D02*
X0125827Y0123452D01*
X0125827Y0124042D02*
X0118661Y0124042D01*
X0118661Y0127272D02*
X0125827Y0127272D01*
X0118661Y0127272D02*
X0118661Y0129044D01*
X0125827Y0129044D01*
X0125827Y0127272D01*
X0125827Y0127862D02*
X0118661Y0127862D01*
X0118661Y0128452D02*
X0125827Y0128452D01*
X0125827Y0129042D02*
X0118661Y0129042D01*
X0118661Y0132272D02*
X0125827Y0132272D01*
X0118661Y0132272D02*
X0118661Y0134044D01*
X0125827Y0134044D01*
X0125827Y0132272D01*
X0125827Y0132862D02*
X0118661Y0132862D01*
X0118661Y0133452D02*
X0125827Y0133452D01*
X0125827Y0134042D02*
X0118661Y0134042D01*
D25*
X0112500Y0125658D03*
D26*
X0032677Y0237981D02*
X0026969Y0237981D01*
X0026969Y0241327D01*
X0029331Y0243690D01*
X0032677Y0243690D01*
X0032677Y0237981D01*
X0032677Y0238017D02*
X0026969Y0238017D01*
X0026969Y0238055D02*
X0032677Y0238055D01*
X0032677Y0238093D02*
X0026969Y0238093D01*
X0026969Y0238131D02*
X0032677Y0238131D01*
X0032677Y0238169D02*
X0026969Y0238169D01*
X0026969Y0238207D02*
X0032677Y0238207D01*
X0032677Y0238245D02*
X0026969Y0238245D01*
X0026969Y0238283D02*
X0032677Y0238283D01*
X0032677Y0238321D02*
X0026969Y0238321D01*
X0026969Y0238358D02*
X0032677Y0238358D01*
X0032677Y0238396D02*
X0026969Y0238396D01*
X0026969Y0238434D02*
X0032677Y0238434D01*
X0032677Y0238472D02*
X0026969Y0238472D01*
X0026969Y0238510D02*
X0032677Y0238510D01*
X0032677Y0238548D02*
X0026969Y0238548D01*
X0026969Y0238586D02*
X0032677Y0238586D01*
X0032677Y0238624D02*
X0026969Y0238624D01*
X0026969Y0238661D02*
X0032677Y0238661D01*
X0032677Y0238699D02*
X0026969Y0238699D01*
X0026969Y0238737D02*
X0032677Y0238737D01*
X0032677Y0238775D02*
X0026969Y0238775D01*
X0026969Y0238813D02*
X0032677Y0238813D01*
X0032677Y0238851D02*
X0026969Y0238851D01*
X0026969Y0238889D02*
X0032677Y0238889D01*
X0032677Y0238927D02*
X0026969Y0238927D01*
X0026969Y0238965D02*
X0032677Y0238965D01*
X0032677Y0239002D02*
X0026969Y0239002D01*
X0026969Y0239040D02*
X0032677Y0239040D01*
X0032677Y0239078D02*
X0026969Y0239078D01*
X0026969Y0239116D02*
X0032677Y0239116D01*
X0032677Y0239154D02*
X0026969Y0239154D01*
X0026969Y0239192D02*
X0032677Y0239192D01*
X0032677Y0239230D02*
X0026969Y0239230D01*
X0026969Y0239268D02*
X0032677Y0239268D01*
X0032677Y0239305D02*
X0026969Y0239305D01*
X0026969Y0239343D02*
X0032677Y0239343D01*
X0032677Y0239381D02*
X0026969Y0239381D01*
X0026969Y0239419D02*
X0032677Y0239419D01*
X0032677Y0239457D02*
X0026969Y0239457D01*
X0026969Y0239495D02*
X0032677Y0239495D01*
X0032677Y0239533D02*
X0026969Y0239533D01*
X0026969Y0239571D02*
X0032677Y0239571D01*
X0032677Y0239608D02*
X0026969Y0239608D01*
X0026969Y0239646D02*
X0032677Y0239646D01*
X0032677Y0239684D02*
X0026969Y0239684D01*
X0026969Y0239722D02*
X0032677Y0239722D01*
X0032677Y0239760D02*
X0026969Y0239760D01*
X0026969Y0239798D02*
X0032677Y0239798D01*
X0032677Y0239836D02*
X0026969Y0239836D01*
X0026969Y0239874D02*
X0032677Y0239874D01*
X0032677Y0239912D02*
X0026969Y0239912D01*
X0026969Y0239949D02*
X0032677Y0239949D01*
X0032677Y0239987D02*
X0026969Y0239987D01*
X0026969Y0240025D02*
X0032677Y0240025D01*
X0032677Y0240063D02*
X0026969Y0240063D01*
X0026969Y0240101D02*
X0032677Y0240101D01*
X0032677Y0240139D02*
X0026969Y0240139D01*
X0026969Y0240177D02*
X0032677Y0240177D01*
X0032677Y0240215D02*
X0026969Y0240215D01*
X0026969Y0240252D02*
X0032677Y0240252D01*
X0032677Y0240290D02*
X0026969Y0240290D01*
X0026969Y0240328D02*
X0032677Y0240328D01*
X0032677Y0240366D02*
X0026969Y0240366D01*
X0026969Y0240404D02*
X0032677Y0240404D01*
X0032677Y0240442D02*
X0026969Y0240442D01*
X0026969Y0240480D02*
X0032677Y0240480D01*
X0032677Y0240518D02*
X0026969Y0240518D01*
X0026969Y0240556D02*
X0032677Y0240556D01*
X0032677Y0240593D02*
X0026969Y0240593D01*
X0026969Y0240631D02*
X0032677Y0240631D01*
X0032677Y0240669D02*
X0026969Y0240669D01*
X0026969Y0240707D02*
X0032677Y0240707D01*
X0032677Y0240745D02*
X0026969Y0240745D01*
X0026969Y0240783D02*
X0032677Y0240783D01*
X0032677Y0240821D02*
X0026969Y0240821D01*
X0026969Y0240859D02*
X0032677Y0240859D01*
X0032677Y0240896D02*
X0026969Y0240896D01*
X0026969Y0240934D02*
X0032677Y0240934D01*
X0032677Y0240972D02*
X0026969Y0240972D01*
X0026969Y0241010D02*
X0032677Y0241010D01*
X0032677Y0241048D02*
X0026969Y0241048D01*
X0026969Y0241086D02*
X0032677Y0241086D01*
X0032677Y0241124D02*
X0026969Y0241124D01*
X0026969Y0241162D02*
X0032677Y0241162D01*
X0032677Y0241200D02*
X0026969Y0241200D01*
X0026969Y0241237D02*
X0032677Y0241237D01*
X0032677Y0241275D02*
X0026969Y0241275D01*
X0026969Y0241313D02*
X0032677Y0241313D01*
X0032677Y0241351D02*
X0026992Y0241351D01*
X0027030Y0241389D02*
X0032677Y0241389D01*
X0032677Y0241427D02*
X0027068Y0241427D01*
X0027106Y0241465D02*
X0032677Y0241465D01*
X0032677Y0241503D02*
X0027144Y0241503D01*
X0027182Y0241540D02*
X0032677Y0241540D01*
X0032677Y0241578D02*
X0027219Y0241578D01*
X0027257Y0241616D02*
X0032677Y0241616D01*
X0032677Y0241654D02*
X0027295Y0241654D01*
X0027333Y0241692D02*
X0032677Y0241692D01*
X0032677Y0241730D02*
X0027371Y0241730D01*
X0027409Y0241768D02*
X0032677Y0241768D01*
X0032677Y0241806D02*
X0027447Y0241806D01*
X0027485Y0241843D02*
X0032677Y0241843D01*
X0032677Y0241881D02*
X0027522Y0241881D01*
X0027560Y0241919D02*
X0032677Y0241919D01*
X0032677Y0241957D02*
X0027598Y0241957D01*
X0027636Y0241995D02*
X0032677Y0241995D01*
X0032677Y0242033D02*
X0027674Y0242033D01*
X0027712Y0242071D02*
X0032677Y0242071D01*
X0032677Y0242109D02*
X0027750Y0242109D01*
X0027788Y0242147D02*
X0032677Y0242147D01*
X0032677Y0242184D02*
X0027825Y0242184D01*
X0027863Y0242222D02*
X0032677Y0242222D01*
X0032677Y0242260D02*
X0027901Y0242260D01*
X0027939Y0242298D02*
X0032677Y0242298D01*
X0032677Y0242336D02*
X0027977Y0242336D01*
X0028015Y0242374D02*
X0032677Y0242374D01*
X0032677Y0242412D02*
X0028053Y0242412D01*
X0028091Y0242450D02*
X0032677Y0242450D01*
X0032677Y0242487D02*
X0028129Y0242487D01*
X0028166Y0242525D02*
X0032677Y0242525D01*
X0032677Y0242563D02*
X0028204Y0242563D01*
X0028242Y0242601D02*
X0032677Y0242601D01*
X0032677Y0242639D02*
X0028280Y0242639D01*
X0028318Y0242677D02*
X0032677Y0242677D01*
X0032677Y0242715D02*
X0028356Y0242715D01*
X0028394Y0242753D02*
X0032677Y0242753D01*
X0032677Y0242791D02*
X0028432Y0242791D01*
X0028469Y0242828D02*
X0032677Y0242828D01*
X0032677Y0242866D02*
X0028507Y0242866D01*
X0028545Y0242904D02*
X0032677Y0242904D01*
X0032677Y0242942D02*
X0028583Y0242942D01*
X0028621Y0242980D02*
X0032677Y0242980D01*
X0032677Y0243018D02*
X0028659Y0243018D01*
X0028697Y0243056D02*
X0032677Y0243056D01*
X0032677Y0243094D02*
X0028735Y0243094D01*
X0028773Y0243131D02*
X0032677Y0243131D01*
X0032677Y0243169D02*
X0028810Y0243169D01*
X0028848Y0243207D02*
X0032677Y0243207D01*
X0032677Y0243245D02*
X0028886Y0243245D01*
X0028924Y0243283D02*
X0032677Y0243283D01*
X0032677Y0243321D02*
X0028962Y0243321D01*
X0029000Y0243359D02*
X0032677Y0243359D01*
X0032677Y0243397D02*
X0029038Y0243397D01*
X0029076Y0243435D02*
X0032677Y0243435D01*
X0032677Y0243472D02*
X0029113Y0243472D01*
X0029151Y0243510D02*
X0032677Y0243510D01*
X0032677Y0243548D02*
X0029189Y0243548D01*
X0029227Y0243586D02*
X0032677Y0243586D01*
X0032677Y0243624D02*
X0029265Y0243624D01*
X0029303Y0243662D02*
X0032677Y0243662D01*
D27*
X0014272Y0242607D03*
X0014272Y0245757D03*
X0014272Y0248906D03*
X0014272Y0239457D03*
X0014272Y0236308D03*
X0014272Y0233158D03*
X0014272Y0230009D03*
X0014272Y0226859D03*
X0014272Y0223709D03*
X0014272Y0220560D03*
X0014272Y0217410D03*
X0060728Y0217410D03*
X0060728Y0220560D03*
X0060728Y0223709D03*
X0060728Y0226859D03*
X0060728Y0230009D03*
X0060728Y0233158D03*
X0060728Y0236308D03*
X0060728Y0239457D03*
X0060728Y0242607D03*
X0060728Y0245757D03*
X0060728Y0248906D03*
D28*
X0060925Y0252646D03*
X0060925Y0213670D03*
X0014075Y0213670D03*
X0014075Y0252646D03*
D29*
X0018602Y0252449D03*
X0021752Y0252449D03*
X0024902Y0252449D03*
X0028051Y0252449D03*
X0031201Y0252449D03*
X0034350Y0252449D03*
X0037500Y0252449D03*
X0040650Y0252449D03*
X0043799Y0252449D03*
X0046949Y0252449D03*
X0050098Y0252449D03*
X0053248Y0252449D03*
X0056398Y0252449D03*
X0056398Y0213867D03*
X0053248Y0213867D03*
X0050098Y0213867D03*
X0046949Y0213867D03*
X0043799Y0213867D03*
X0040650Y0213867D03*
X0037500Y0213867D03*
X0034350Y0213867D03*
X0031201Y0213867D03*
X0028051Y0213867D03*
X0024902Y0213867D03*
X0021752Y0213867D03*
X0018602Y0213867D03*
D30*
X0029823Y0225481D03*
X0029823Y0233158D03*
X0037500Y0233158D03*
X0037500Y0225481D03*
X0045177Y0225481D03*
X0045177Y0233158D03*
X0045177Y0240835D03*
X0037500Y0240835D03*
D31*
X0029823Y0240835D03*
D32*
X0107382Y0204398D03*
X0107382Y0200658D03*
X0107382Y0196918D03*
X0107382Y0186898D03*
X0107382Y0183158D03*
X0107382Y0179418D03*
X0117618Y0179418D03*
X0117618Y0186898D03*
X0117618Y0196918D03*
X0117618Y0204398D03*
D33*
X0175000Y0104595D03*
D34*
X0175000Y0096721D03*
D35*
X0098150Y0213099D03*
X0098150Y0215658D03*
X0098150Y0218217D03*
X0091811Y0218217D03*
X0091811Y0215658D03*
X0091811Y0213099D03*
X0080650Y0193217D03*
X0080650Y0190658D03*
X0080650Y0188099D03*
X0074311Y0188099D03*
X0074311Y0190658D03*
X0074311Y0193217D03*
D36*
X0197047Y0203001D03*
D37*
X0197933Y0247568D03*
D38*
X0198425Y0237883D03*
X0198425Y0233552D03*
X0198425Y0229221D03*
X0198425Y0224890D03*
X0198425Y0220560D03*
X0198425Y0216229D03*
X0198425Y0211898D03*
D39*
X0198425Y0207764D03*
D40*
X0156398Y0210973D03*
X0156398Y0234477D03*
D41*
X0160236Y0248257D03*
X0174803Y0248257D03*
D42*
X0195000Y0144398D03*
X0195000Y0136918D03*
D43*
X0009272Y0196583D03*
X0009272Y0199733D03*
D44*
X0007500Y0205048D03*
X0007500Y0191268D03*
D45*
X0025000Y0175501D03*
X0025000Y0155816D03*
X0025000Y0133001D03*
X0025000Y0113316D03*
D46*
X0008858Y0108394D03*
X0008858Y0137922D03*
X0008858Y0150894D03*
X0008858Y0180422D03*
D47*
X0034941Y0159989D03*
X0037500Y0159989D03*
X0040059Y0159989D03*
X0040059Y0151327D03*
X0037500Y0151327D03*
X0034941Y0151327D03*
D48*
X0164193Y0124497D03*
X0164193Y0121938D03*
X0164193Y0119379D03*
X0164193Y0116820D03*
X0180807Y0116820D03*
X0180807Y0119379D03*
X0180807Y0121938D03*
X0180807Y0124497D03*
D49*
X0192500Y0123079D03*
X0192500Y0113237D03*
D50*
X0196500Y0132158D03*
X0191000Y0140658D03*
X0176000Y0124658D03*
X0169500Y0117158D03*
X0155500Y0129158D03*
X0160000Y0137658D03*
X0165000Y0137658D03*
X0174000Y0138158D03*
X0174500Y0145658D03*
X0163750Y0158158D03*
X0168500Y0162658D03*
X0178750Y0169658D03*
X0178750Y0174158D03*
X0168750Y0182658D03*
X0167250Y0176408D03*
X0163750Y0185158D03*
X0157250Y0185158D03*
X0152250Y0171158D03*
X0154750Y0153158D03*
X0137500Y0143158D03*
X0132500Y0136658D03*
X0132500Y0118158D03*
X0132500Y0108158D03*
X0114500Y0122658D03*
X0110500Y0122658D03*
X0110500Y0128658D03*
X0114500Y0128658D03*
X0097500Y0137158D03*
X0087250Y0122908D03*
X0096000Y0114658D03*
X0083500Y0149158D03*
X0087500Y0155908D03*
X0085000Y0168658D03*
X0087750Y0183158D03*
X0084750Y0185658D03*
X0091750Y0199908D03*
X0102500Y0198158D03*
X0102500Y0180658D03*
X0112500Y0165908D03*
X0120500Y0170658D03*
X0123000Y0179658D03*
X0133000Y0179908D03*
X0123000Y0197158D03*
X0133000Y0220658D03*
X0133000Y0228158D03*
X0133000Y0235658D03*
X0133000Y0242158D03*
X0151000Y0234408D03*
X0152500Y0250658D03*
X0174750Y0243408D03*
X0185500Y0224658D03*
X0193500Y0216158D03*
X0197000Y0198158D03*
X0185500Y0196158D03*
X0156500Y0204658D03*
X0192750Y0247658D03*
X0112500Y0155658D03*
X0071500Y0195658D03*
X0064000Y0207908D03*
X0060000Y0205158D03*
X0056250Y0202408D03*
X0054500Y0192158D03*
X0043500Y0182658D03*
X0037500Y0180658D03*
X0026750Y0196658D03*
X0023500Y0204658D03*
X0031250Y0208408D03*
X0034250Y0217908D03*
X0028000Y0217908D03*
X0023750Y0217908D03*
X0024250Y0225408D03*
X0021750Y0229908D03*
X0017750Y0233158D03*
X0021750Y0236408D03*
X0017750Y0239408D03*
X0020000Y0248658D03*
X0025000Y0248658D03*
X0030000Y0248658D03*
X0035000Y0248658D03*
X0040000Y0248658D03*
X0045000Y0248658D03*
X0050000Y0248658D03*
X0055000Y0248658D03*
X0053500Y0236408D03*
X0057000Y0233158D03*
X0066250Y0233158D03*
X0072000Y0240408D03*
X0075000Y0244158D03*
X0070000Y0247658D03*
X0066000Y0250658D03*
X0078000Y0223658D03*
X0083500Y0224658D03*
X0087500Y0220408D03*
X0091750Y0222658D03*
X0098000Y0222908D03*
X0102500Y0220408D03*
X0092250Y0235658D03*
X0090500Y0244658D03*
X0069750Y0220658D03*
X0069000Y0215658D03*
X0065000Y0213658D03*
X0068000Y0210908D03*
X0074000Y0213408D03*
X0055000Y0218658D03*
X0049250Y0218658D03*
X0040750Y0217908D03*
X0037500Y0233158D03*
X0045000Y0233158D03*
X0030000Y0233158D03*
X0017750Y0223658D03*
X0007500Y0217658D03*
X0014250Y0209158D03*
X0011250Y0189158D03*
X0005500Y0157408D03*
X0019500Y0128158D03*
X0027000Y0128408D03*
X0036000Y0116158D03*
X0040000Y0125158D03*
X0045000Y0120658D03*
X0055000Y0120658D03*
X0055000Y0136158D03*
X0049250Y0146658D03*
X0052500Y0152658D03*
X0060000Y0157908D03*
X0047500Y0162908D03*
X0009000Y0114908D03*
X0025000Y0108158D03*
X0007500Y0233158D03*
X0007500Y0252158D03*
D51*
X0072500Y0179989D02*
X0084016Y0179989D01*
X0085000Y0179005D01*
X0086000Y0180005D01*
X0090096Y0180005D01*
X0091750Y0181658D01*
X0091750Y0186658D01*
X0091904Y0186505D01*
X0097500Y0186505D01*
X0097894Y0186898D01*
X0107382Y0186898D01*
X0107382Y0183158D02*
X0105000Y0183158D01*
X0102500Y0180658D01*
X0098346Y0180658D01*
X0097500Y0179812D01*
X0091750Y0186658D02*
X0091750Y0199908D01*
X0091750Y0202158D01*
X0093596Y0204005D01*
X0097500Y0204005D01*
X0097894Y0204398D01*
X0107382Y0204398D01*
X0107382Y0200658D02*
X0105000Y0200658D01*
X0102500Y0198158D01*
X0098346Y0198158D01*
X0097500Y0197312D01*
X0085000Y0172312D02*
X0085000Y0168658D01*
X0078250Y0163255D02*
X0078250Y0160158D01*
X0078250Y0148408D01*
X0076563Y0146721D01*
X0076240Y0146721D01*
X0076240Y0138749D01*
X0076831Y0138158D01*
X0074250Y0133908D02*
X0072500Y0135658D01*
X0072500Y0154989D01*
X0068760Y0146721D02*
X0068760Y0138749D01*
X0068169Y0138158D01*
X0068169Y0134989D01*
X0072500Y0130658D01*
X0072500Y0127489D01*
X0082500Y0127489D01*
X0087250Y0131408D02*
X0084750Y0133908D01*
X0074250Y0133908D01*
X0072500Y0127489D02*
X0062500Y0127489D01*
X0062500Y0118827D02*
X0062500Y0114158D01*
X0059500Y0111158D01*
X0035000Y0111158D01*
X0032500Y0108658D01*
X0032500Y0103158D01*
X0072500Y0114658D02*
X0072500Y0118827D01*
X0072500Y0114658D02*
X0077000Y0110158D01*
X0085500Y0110158D01*
X0092500Y0103158D01*
X0102500Y0103158D01*
X0096000Y0114658D02*
X0092654Y0114658D01*
X0092500Y0114812D01*
X0089346Y0114812D01*
X0088000Y0116158D01*
X0088000Y0117658D01*
X0086831Y0118827D01*
X0082500Y0118827D01*
X0087250Y0122908D02*
X0087250Y0131408D01*
X0094154Y0123158D02*
X0092500Y0121505D01*
X0094154Y0123158D02*
X0102756Y0123158D01*
X0110000Y0123158D01*
X0110500Y0122658D01*
X0112500Y0124658D01*
X0112500Y0125658D01*
X0102756Y0118158D02*
X0099500Y0118158D01*
X0096000Y0114658D01*
X0076313Y0146721D02*
X0076240Y0146721D01*
X0078250Y0163255D02*
X0075846Y0165658D01*
X0076240Y0166052D01*
X0076240Y0171721D01*
X0117618Y0186898D02*
X0127106Y0186898D01*
X0127500Y0186505D01*
X0131154Y0186505D01*
X0133000Y0184658D01*
X0133000Y0179908D01*
X0127500Y0179812D02*
X0127346Y0179658D01*
X0123000Y0179658D01*
X0123000Y0197158D02*
X0127346Y0197158D01*
X0127500Y0197312D01*
X0127500Y0204005D02*
X0127106Y0204398D01*
X0117618Y0204398D01*
X0122500Y0208658D02*
X0121654Y0209505D01*
X0121654Y0213158D01*
X0121654Y0220658D01*
X0121654Y0228158D01*
X0121654Y0235658D01*
X0092250Y0235658D01*
X0121654Y0235658D02*
X0121654Y0243158D01*
X0121654Y0250658D01*
X0141500Y0219658D02*
X0138500Y0216658D01*
X0138500Y0208658D01*
X0133846Y0204005D01*
X0127500Y0204005D01*
X0127500Y0207658D01*
X0126500Y0208658D01*
X0122500Y0208658D01*
X0141500Y0219658D02*
X0159000Y0219658D01*
X0163500Y0215158D01*
X0163500Y0204658D01*
X0157500Y0198658D01*
X0157500Y0196505D01*
X0165000Y0196505D01*
X0165346Y0196158D01*
X0185500Y0196158D01*
X0185500Y0145158D01*
X0185846Y0145505D01*
X0185846Y0145658D01*
X0185500Y0145158D02*
X0185500Y0138158D01*
X0185846Y0138158D01*
X0185500Y0138158D02*
X0185500Y0131827D01*
X0184331Y0130658D01*
X0175000Y0104595D02*
X0165063Y0104595D01*
X0158000Y0111658D01*
X0139000Y0111658D01*
X0132500Y0118158D01*
X0122244Y0118158D01*
X0132500Y0118158D02*
X0132500Y0124812D01*
X0132500Y0131505D02*
X0132500Y0136658D01*
X0137500Y0143158D02*
X0145000Y0143158D01*
X0163750Y0158158D02*
X0163848Y0158060D01*
X0173780Y0158060D01*
X0163937Y0172095D02*
X0163937Y0173095D01*
X0167250Y0176408D01*
X0168750Y0182658D02*
X0169348Y0183257D01*
X0173780Y0183257D01*
X0165000Y0189812D02*
X0163750Y0188562D01*
X0163750Y0185158D01*
X0157250Y0185158D02*
X0157250Y0189562D01*
X0157500Y0189812D01*
X0156500Y0204658D02*
X0156500Y0210871D01*
X0156398Y0210973D01*
X0156329Y0234408D02*
X0151000Y0234408D01*
X0156329Y0234408D02*
X0156398Y0234477D01*
X0174750Y0243408D02*
X0174750Y0248203D01*
X0174803Y0248257D01*
X0192750Y0247658D02*
X0197933Y0247658D01*
X0197933Y0247568D01*
X0198425Y0224890D02*
X0198193Y0224658D01*
X0185500Y0224658D01*
X0193571Y0216229D02*
X0193500Y0216158D01*
X0193571Y0216229D02*
X0198425Y0216229D01*
X0197047Y0203001D02*
X0197000Y0202953D01*
X0197000Y0198158D01*
X0156063Y0171308D02*
X0155913Y0171158D01*
X0152250Y0171158D01*
D52*
X0156654Y0180658D02*
X0157250Y0181255D01*
X0157250Y0185158D01*
X0167250Y0176408D02*
X0170949Y0180107D01*
X0173780Y0180107D01*
X0168500Y0162658D02*
X0169949Y0161209D01*
X0173780Y0161209D01*
X0159154Y0153158D02*
X0154750Y0153158D01*
X0155500Y0129158D02*
X0157500Y0127158D01*
X0157500Y0124005D01*
X0157500Y0117312D02*
X0157992Y0116820D01*
X0164193Y0116820D01*
X0176000Y0124658D02*
X0180646Y0124658D01*
X0180807Y0124497D01*
X0123327Y0155658D02*
X0112500Y0155658D01*
X0112500Y0147158D01*
X0115846Y0143812D01*
X0115846Y0140658D01*
X0109154Y0140658D02*
X0104500Y0140658D01*
X0101673Y0143485D01*
X0101673Y0147784D01*
X0097500Y0137158D02*
X0093154Y0137158D01*
X0092500Y0136505D01*
X0097500Y0137158D02*
X0097500Y0133658D01*
X0098000Y0133158D01*
X0102756Y0133158D01*
X0102756Y0128158D02*
X0094154Y0128158D01*
X0092500Y0129812D01*
X0068760Y0146721D02*
X0060591Y0146721D01*
X0060000Y0147312D01*
X0060000Y0154005D02*
X0060000Y0157908D01*
X0052500Y0152658D02*
X0047846Y0152658D01*
X0047500Y0152312D01*
X0046516Y0151327D01*
X0040059Y0151327D01*
X0038500Y0156158D02*
X0044654Y0156158D01*
X0047500Y0159005D01*
X0047500Y0162908D01*
X0050000Y0167658D02*
X0052500Y0165158D01*
X0052500Y0152658D01*
X0050000Y0167658D02*
X0050000Y0176158D01*
X0043500Y0182658D01*
X0037500Y0159989D02*
X0037500Y0157158D01*
X0038500Y0156158D01*
X0055000Y0136158D02*
X0055000Y0131505D01*
X0045000Y0131505D01*
X0035000Y0131505D01*
X0027000Y0132658D02*
X0027000Y0128408D01*
X0027000Y0132658D02*
X0026657Y0133001D01*
X0025000Y0133001D01*
X0025093Y0132908D01*
X0009000Y0114908D02*
X0009000Y0108536D01*
X0008858Y0108394D01*
X0008858Y0150894D02*
X0005500Y0153536D01*
X0005500Y0157408D01*
X0014250Y0209158D02*
X0014250Y0213495D01*
X0014075Y0213670D01*
X0014075Y0217213D01*
X0014272Y0217410D01*
X0023750Y0217908D02*
X0024902Y0216757D01*
X0024902Y0213867D01*
X0029823Y0225481D02*
X0037500Y0233158D01*
X0045177Y0225481D01*
X0045177Y0233158D02*
X0045000Y0233158D01*
X0040000Y0233158D01*
X0037500Y0235658D01*
X0035000Y0233158D01*
X0029823Y0233158D01*
X0029823Y0240835D02*
X0037500Y0233158D01*
X0045177Y0240835D01*
X0037500Y0240835D02*
X0037500Y0235658D01*
X0037500Y0233158D01*
X0037500Y0225481D01*
X0060925Y0213670D02*
X0064988Y0213670D01*
X0065000Y0213658D01*
X0079154Y0233158D02*
X0079154Y0240658D01*
X0079154Y0244158D01*
X0079154Y0248158D01*
X0085846Y0248158D02*
X0087000Y0248158D01*
X0090500Y0244658D01*
X0086500Y0240658D01*
X0085846Y0240658D01*
X0115846Y0170658D02*
X0120500Y0170658D01*
X0014272Y0242607D02*
X0011449Y0242607D01*
X0011000Y0242158D01*
X0011000Y0238158D01*
X0010154Y0237312D01*
X0007500Y0237312D01*
D53*
X0031201Y0213867D02*
X0031250Y0213818D01*
X0031250Y0208408D01*
X0023500Y0204658D02*
X0023500Y0200812D01*
X0023346Y0200658D01*
X0026750Y0196658D02*
X0026750Y0196562D01*
X0023346Y0193158D01*
X0011250Y0189158D02*
X0009610Y0189158D01*
X0007500Y0191268D01*
X0009272Y0193040D01*
X0009272Y0196583D01*
X0032500Y0169812D02*
X0037500Y0164812D01*
X0037500Y0159989D01*
X0034941Y0151327D02*
X0034941Y0144064D01*
X0035846Y0143158D01*
X0029154Y0143158D02*
X0018500Y0143158D01*
X0016500Y0141158D01*
X0016500Y0101658D01*
X0025000Y0093158D01*
X0102500Y0093158D01*
X0112500Y0103158D01*
X0131000Y0109658D02*
X0132500Y0108158D01*
X0131000Y0109658D02*
X0090500Y0109658D01*
X0086500Y0113658D01*
X0079000Y0113658D01*
X0077500Y0115158D01*
X0077500Y0121658D01*
X0076000Y0123158D01*
X0061000Y0123158D01*
X0059000Y0121158D01*
X0059000Y0118158D01*
X0057000Y0116158D01*
X0049331Y0116158D01*
X0040669Y0116158D02*
X0036000Y0116158D01*
X0069154Y0165658D02*
X0068760Y0166052D01*
X0068760Y0171721D01*
X0060591Y0171721D01*
X0060000Y0172312D01*
X0056596Y0172312D01*
X0055500Y0173408D01*
X0055500Y0182158D01*
X0056750Y0183408D01*
X0072250Y0183408D01*
X0074311Y0185469D01*
X0074311Y0188099D01*
X0074311Y0190658D02*
X0072500Y0190658D01*
X0070000Y0188158D01*
X0065846Y0188158D01*
X0071500Y0193658D02*
X0071941Y0193217D01*
X0074311Y0193217D01*
X0071500Y0193658D02*
X0071500Y0195658D01*
X0080650Y0190658D02*
X0083750Y0190658D01*
X0084750Y0191658D01*
X0084750Y0196755D01*
X0080846Y0200658D01*
X0080650Y0188099D02*
X0084059Y0188099D01*
X0084750Y0187408D01*
X0084750Y0185658D01*
X0072500Y0179989D02*
X0071516Y0179005D01*
X0060000Y0179005D01*
X0054500Y0192158D02*
X0050154Y0192158D01*
X0050000Y0192312D01*
X0037500Y0180658D02*
X0037500Y0179005D01*
X0040000Y0176505D01*
X0091750Y0227255D02*
X0085846Y0233158D01*
X0091750Y0227255D02*
X0091750Y0222658D01*
X0107382Y0204398D02*
X0110510Y0204398D01*
X0111250Y0203658D01*
X0111250Y0197658D01*
X0110510Y0196918D01*
X0107382Y0196918D01*
X0107382Y0186898D02*
X0110510Y0186898D01*
X0111250Y0186158D01*
X0111250Y0180158D01*
X0110510Y0179418D01*
X0107382Y0179418D01*
X0109154Y0170658D02*
X0106500Y0168005D01*
X0106500Y0160408D01*
X0105687Y0159595D01*
X0101673Y0159595D01*
X0164193Y0116820D02*
X0164531Y0117158D01*
X0169500Y0117158D01*
X0172500Y0120158D01*
X0172500Y0127489D01*
X0175669Y0130658D01*
X0180807Y0119379D02*
X0188799Y0119379D01*
X0192500Y0123079D01*
X0188917Y0116820D02*
X0192500Y0113237D01*
X0188917Y0116820D02*
X0180807Y0116820D01*
X0196500Y0132158D02*
X0196500Y0135418D01*
X0195000Y0136918D01*
D54*
X0191000Y0140658D02*
X0194740Y0144398D01*
X0195000Y0144398D01*
X0182750Y0151408D02*
X0182750Y0162408D01*
X0180000Y0165158D01*
X0177000Y0165158D01*
X0176421Y0165737D01*
X0173780Y0165737D01*
X0173827Y0167658D02*
X0173780Y0167705D01*
X0173827Y0167658D02*
X0177000Y0167658D01*
X0177750Y0166908D01*
X0180250Y0166908D01*
X0181500Y0168158D01*
X0181500Y0170908D01*
X0180500Y0171908D01*
X0177000Y0171908D01*
X0176734Y0171642D01*
X0173780Y0171642D01*
X0173764Y0171658D01*
X0169000Y0171658D01*
X0165500Y0168158D01*
X0160000Y0168158D01*
X0156063Y0164221D01*
X0152126Y0168158D01*
X0139500Y0168158D01*
X0137250Y0165908D01*
X0137250Y0160408D01*
X0128563Y0151721D01*
X0123327Y0151721D01*
X0123327Y0147784D02*
X0129626Y0147784D01*
X0140250Y0158408D01*
X0151000Y0158408D01*
X0153000Y0160408D01*
X0160124Y0160408D01*
X0163937Y0164221D01*
X0164063Y0164221D01*
X0169516Y0169674D01*
X0173780Y0169674D01*
X0177734Y0169674D01*
X0178750Y0169658D01*
X0178750Y0174158D02*
X0177000Y0174158D01*
X0176500Y0173658D01*
X0173827Y0173658D01*
X0173780Y0173611D01*
X0173780Y0177548D02*
X0179390Y0177548D01*
X0182750Y0180908D01*
X0182750Y0190908D01*
X0180750Y0192908D01*
X0170750Y0192908D01*
X0169000Y0191158D01*
X0169000Y0186312D01*
X0163346Y0180658D01*
X0160250Y0175658D02*
X0151750Y0175658D01*
X0149250Y0178158D01*
X0137250Y0178158D01*
X0134250Y0175158D01*
X0113654Y0175158D01*
X0109154Y0170658D01*
X0112500Y0165908D02*
X0117250Y0165908D01*
X0118750Y0164408D01*
X0118750Y0160408D01*
X0119563Y0159595D01*
X0123327Y0159595D01*
X0135000Y0148158D02*
X0122244Y0135402D01*
X0122244Y0133158D01*
X0122244Y0128158D02*
X0135500Y0128158D01*
X0137000Y0129658D01*
X0137000Y0135658D01*
X0139500Y0138158D01*
X0148500Y0138158D01*
X0153500Y0143158D01*
X0156654Y0143158D01*
X0160000Y0146658D02*
X0160000Y0137658D01*
X0157000Y0133158D02*
X0160500Y0129658D01*
X0160500Y0125158D01*
X0161161Y0124497D01*
X0164193Y0124497D01*
X0167339Y0124497D01*
X0168500Y0125658D01*
X0168500Y0139658D01*
X0174500Y0145658D01*
X0179154Y0145658D01*
X0180250Y0148908D02*
X0182750Y0151408D01*
X0180250Y0148908D02*
X0167500Y0148908D01*
X0165846Y0150562D01*
X0165846Y0153158D01*
X0160000Y0146658D02*
X0158500Y0148158D01*
X0135000Y0148158D01*
X0145000Y0133158D02*
X0157000Y0133158D01*
X0151000Y0123158D02*
X0153500Y0120658D01*
X0160000Y0120658D01*
X0161280Y0121938D01*
X0164193Y0121938D01*
X0168780Y0121938D01*
X0170500Y0123658D01*
X0170500Y0134658D01*
X0174000Y0138158D01*
X0179154Y0138158D01*
X0165000Y0137658D02*
X0165000Y0141505D01*
X0163346Y0143158D01*
X0151000Y0123158D02*
X0145000Y0123158D01*
X0163813Y0172095D02*
X0160250Y0175658D01*
X0163813Y0172095D02*
X0163937Y0172095D01*
X0175394Y0207764D02*
X0160000Y0223158D01*
X0140500Y0223158D01*
X0135000Y0217658D01*
X0135000Y0215158D01*
X0133000Y0213158D01*
X0128346Y0213158D01*
X0128346Y0220658D02*
X0133000Y0220658D01*
X0138000Y0225658D01*
X0161500Y0225658D01*
X0175260Y0211898D01*
X0198425Y0211898D01*
X0198425Y0207764D02*
X0175394Y0207764D01*
X0172598Y0220560D02*
X0165000Y0228158D01*
X0133000Y0228158D01*
X0128346Y0228158D01*
X0128346Y0235658D02*
X0133000Y0235658D01*
X0137500Y0240158D01*
X0160500Y0240158D01*
X0171437Y0229221D01*
X0198425Y0229221D01*
X0198425Y0233552D02*
X0171106Y0233552D01*
X0162500Y0242158D01*
X0133000Y0242158D01*
X0130000Y0242158D01*
X0129000Y0243158D01*
X0128346Y0243158D01*
X0128346Y0250658D02*
X0132500Y0250658D01*
X0139000Y0244158D01*
X0164500Y0244158D01*
X0170776Y0237883D01*
X0198425Y0237883D01*
X0198425Y0220560D02*
X0172598Y0220560D01*
X0160236Y0248257D02*
X0157835Y0250658D01*
X0152500Y0250658D01*
X0148346Y0250658D01*
X0141654Y0250658D02*
X0138154Y0254158D01*
X0122500Y0254158D01*
X0121654Y0253312D01*
X0121654Y0250658D01*
X0106096Y0220408D02*
X0102500Y0220408D01*
X0106096Y0220408D02*
X0107500Y0219005D01*
X0113750Y0212755D01*
X0113750Y0178158D01*
X0112000Y0176408D01*
X0105750Y0176408D01*
X0101673Y0172331D01*
X0101673Y0163532D01*
X0101673Y0155658D02*
X0091831Y0155658D01*
X0087500Y0155908D02*
X0087500Y0157312D01*
X0093346Y0163158D01*
X0086654Y0163158D02*
X0081000Y0168812D01*
X0081000Y0174658D01*
X0080000Y0175658D01*
X0074000Y0175658D01*
X0072500Y0174158D01*
X0072500Y0162658D01*
X0072000Y0162158D01*
X0066000Y0162158D01*
X0063000Y0165158D01*
X0052500Y0165158D01*
X0057500Y0160158D02*
X0056000Y0158658D01*
X0056000Y0149158D01*
X0046500Y0139658D01*
X0033500Y0139658D01*
X0032500Y0140658D01*
X0032500Y0148316D01*
X0025000Y0155816D01*
X0037500Y0151327D02*
X0037500Y0148158D01*
X0039000Y0146658D01*
X0049250Y0146658D01*
X0057500Y0160158D02*
X0078250Y0160158D01*
X0083169Y0155658D02*
X0083419Y0155908D01*
X0087500Y0155908D01*
X0083500Y0149158D02*
X0093500Y0149158D01*
X0096063Y0151721D01*
X0101673Y0151721D01*
X0101610Y0151658D01*
X0087750Y0183158D02*
X0087750Y0207062D01*
X0093904Y0207062D01*
X0098150Y0211308D01*
X0098150Y0213099D01*
X0098150Y0215658D02*
X0101250Y0215658D01*
X0104596Y0212312D01*
X0107500Y0212312D01*
X0098150Y0218217D02*
X0098000Y0218367D01*
X0098000Y0222908D01*
X0091811Y0218217D02*
X0089691Y0218217D01*
X0087500Y0220408D01*
X0085404Y0219005D02*
X0082500Y0219005D01*
X0085404Y0219005D02*
X0088750Y0215658D01*
X0091811Y0215658D01*
X0091811Y0213099D02*
X0087809Y0213099D01*
X0085250Y0215658D01*
X0069000Y0215658D01*
X0068000Y0210908D02*
X0047750Y0210908D01*
X0046949Y0211709D01*
X0046949Y0213867D01*
X0043799Y0213867D02*
X0043799Y0211609D01*
X0046500Y0208908D01*
X0051750Y0208908D01*
X0052750Y0207908D01*
X0064000Y0207908D01*
X0060000Y0205158D02*
X0052500Y0205158D01*
X0050750Y0206908D01*
X0045750Y0206908D01*
X0043250Y0209408D01*
X0042000Y0209408D01*
X0040650Y0210759D01*
X0040650Y0213867D01*
X0037500Y0213867D02*
X0037500Y0209408D01*
X0039250Y0207658D01*
X0042250Y0207658D01*
X0045000Y0204908D01*
X0049750Y0204908D01*
X0051500Y0203158D01*
X0055500Y0203158D01*
X0056250Y0202408D01*
X0059154Y0198158D02*
X0050846Y0198158D01*
X0050000Y0199005D01*
X0046654Y0195658D01*
X0032500Y0195658D01*
X0026500Y0189658D01*
X0021000Y0189658D01*
X0020000Y0190658D01*
X0020000Y0204158D01*
X0016750Y0207408D01*
X0016750Y0215908D01*
X0017500Y0216658D01*
X0017500Y0219658D01*
X0016598Y0220560D01*
X0014272Y0220560D01*
X0014323Y0223658D02*
X0014272Y0223709D01*
X0014323Y0223658D02*
X0017750Y0223658D01*
X0014272Y0226859D02*
X0011951Y0226859D01*
X0011250Y0226158D01*
X0011250Y0206062D01*
X0016654Y0200658D01*
X0016654Y0193158D01*
X0013000Y0191158D02*
X0013000Y0198658D01*
X0011925Y0199733D01*
X0009272Y0199733D01*
X0007500Y0204158D02*
X0004000Y0200658D01*
X0004000Y0188158D01*
X0005500Y0186658D01*
X0014500Y0186658D01*
X0016500Y0184658D01*
X0030500Y0184658D01*
X0034000Y0188158D01*
X0038346Y0188158D01*
X0042500Y0192312D01*
X0042500Y0199005D02*
X0042500Y0204158D01*
X0041000Y0205658D01*
X0029500Y0205658D01*
X0025000Y0210158D01*
X0023000Y0210158D01*
X0021752Y0211406D01*
X0021752Y0213867D01*
X0018602Y0213867D02*
X0018602Y0211056D01*
X0021500Y0208158D01*
X0024000Y0208158D01*
X0028500Y0203658D01*
X0033500Y0203658D01*
X0035000Y0202158D01*
X0035000Y0199005D01*
X0035000Y0192312D02*
X0029846Y0187158D01*
X0017000Y0187158D01*
X0013000Y0191158D01*
X0007500Y0204158D02*
X0007500Y0205048D01*
X0014272Y0226859D02*
X0022799Y0226859D01*
X0024250Y0225408D01*
X0021750Y0229908D02*
X0014372Y0229908D01*
X0014272Y0230009D01*
X0014272Y0233158D02*
X0017750Y0233158D01*
X0014372Y0236408D02*
X0014272Y0236308D01*
X0014372Y0236408D02*
X0021750Y0236408D01*
X0017750Y0239408D02*
X0014321Y0239408D01*
X0014272Y0239457D01*
X0014272Y0245756D02*
X0011297Y0245756D01*
X0011297Y0245658D01*
X0010868Y0245658D01*
X0010868Y0246354D01*
X0010773Y0246710D01*
X0010589Y0247030D01*
X0010328Y0247290D01*
X0010009Y0247475D01*
X0009653Y0247570D01*
X0007900Y0247570D01*
X0007900Y0244405D01*
X0007100Y0244405D01*
X0007100Y0247570D01*
X0005347Y0247570D01*
X0004991Y0247475D01*
X0004672Y0247290D01*
X0004411Y0247030D01*
X0004227Y0246710D01*
X0004131Y0246354D01*
X0004131Y0244405D01*
X0007100Y0244405D01*
X0007100Y0243605D01*
X0004131Y0243605D01*
X0004131Y0242158D01*
X0004000Y0242158D01*
X0004000Y0254258D01*
X0011310Y0254258D01*
X0011297Y0254209D01*
X0011297Y0252935D01*
X0013786Y0252935D01*
X0013786Y0252357D01*
X0014364Y0252357D01*
X0014364Y0251094D01*
X0014272Y0251094D01*
X0014272Y0248906D01*
X0014272Y0248906D01*
X0017246Y0248906D01*
X0017246Y0247934D01*
X0017151Y0247578D01*
X0017008Y0247331D01*
X0017151Y0247084D01*
X0017246Y0246728D01*
X0017246Y0245757D01*
X0014272Y0245757D01*
X0014272Y0245757D01*
X0014272Y0248906D01*
X0014272Y0248906D01*
X0017246Y0248906D01*
X0017246Y0249586D01*
X0017275Y0249570D01*
X0017631Y0249475D01*
X0018602Y0249475D01*
X0018602Y0252449D01*
X0018602Y0252449D01*
X0016415Y0252449D01*
X0016415Y0252357D01*
X0014364Y0252357D01*
X0014364Y0252935D01*
X0016415Y0252935D01*
X0016415Y0252450D01*
X0018602Y0252450D01*
X0018602Y0252449D01*
X0018602Y0249475D01*
X0019574Y0249475D01*
X0019930Y0249570D01*
X0020177Y0249713D01*
X0020424Y0249570D01*
X0020780Y0249475D01*
X0021752Y0249475D01*
X0022724Y0249475D01*
X0023080Y0249570D01*
X0023327Y0249713D01*
X0023574Y0249570D01*
X0023930Y0249475D01*
X0024902Y0249475D01*
X0025873Y0249475D01*
X0026229Y0249570D01*
X0026476Y0249713D01*
X0026723Y0249570D01*
X0027079Y0249475D01*
X0028051Y0249475D01*
X0028051Y0252449D01*
X0028051Y0252449D01*
X0024902Y0252449D01*
X0024902Y0252450D01*
X0027089Y0252450D01*
X0028051Y0252450D01*
X0028051Y0252449D01*
X0028051Y0249475D01*
X0029023Y0249475D01*
X0029379Y0249570D01*
X0029626Y0249713D01*
X0029873Y0249570D01*
X0030229Y0249475D01*
X0031201Y0249475D01*
X0032173Y0249475D01*
X0032529Y0249570D01*
X0032776Y0249713D01*
X0033023Y0249570D01*
X0033379Y0249475D01*
X0034350Y0249475D01*
X0034350Y0252449D01*
X0034350Y0252449D01*
X0031201Y0252449D01*
X0031201Y0249475D01*
X0031201Y0252449D01*
X0031201Y0252449D01*
X0031201Y0252450D01*
X0032163Y0252450D01*
X0034350Y0252450D01*
X0034350Y0252449D01*
X0034350Y0249475D01*
X0035322Y0249475D01*
X0035678Y0249570D01*
X0035925Y0249713D01*
X0036172Y0249570D01*
X0036528Y0249475D01*
X0037500Y0249475D01*
X0038472Y0249475D01*
X0038828Y0249570D01*
X0039075Y0249713D01*
X0039322Y0249570D01*
X0039678Y0249475D01*
X0040650Y0249475D01*
X0041621Y0249475D01*
X0041977Y0249570D01*
X0042224Y0249713D01*
X0042471Y0249570D01*
X0042827Y0249475D01*
X0043799Y0249475D01*
X0043799Y0252449D01*
X0043799Y0252449D01*
X0040650Y0252449D01*
X0040650Y0252450D01*
X0042837Y0252450D01*
X0043799Y0252450D01*
X0043799Y0252449D01*
X0043799Y0249475D01*
X0044771Y0249475D01*
X0045127Y0249570D01*
X0045374Y0249713D01*
X0045621Y0249570D01*
X0045977Y0249475D01*
X0046949Y0249475D01*
X0047921Y0249475D01*
X0048277Y0249570D01*
X0048524Y0249713D01*
X0048771Y0249570D01*
X0049127Y0249475D01*
X0050098Y0249475D01*
X0050098Y0252449D01*
X0046949Y0252449D01*
X0046949Y0249475D01*
X0046949Y0252449D01*
X0046949Y0252449D01*
X0046949Y0252450D01*
X0049136Y0252450D01*
X0050098Y0252450D01*
X0050098Y0252449D01*
X0050098Y0252449D01*
X0050098Y0249475D01*
X0051070Y0249475D01*
X0051426Y0249570D01*
X0051673Y0249713D01*
X0051920Y0249570D01*
X0052276Y0249475D01*
X0053248Y0249475D01*
X0054220Y0249475D01*
X0054576Y0249570D01*
X0054823Y0249713D01*
X0055070Y0249570D01*
X0055426Y0249475D01*
X0056398Y0249475D01*
X0057000Y0249475D01*
X0057000Y0248158D01*
X0056000Y0247158D01*
X0019000Y0247158D01*
X0017500Y0245658D01*
X0017246Y0245658D01*
X0017246Y0245756D01*
X0014272Y0245756D01*
X0014272Y0245757D01*
X0014272Y0246719D01*
X0014272Y0248906D01*
X0014272Y0248906D01*
X0011297Y0248906D01*
X0011297Y0247934D01*
X0011392Y0247578D01*
X0011535Y0247331D01*
X0011392Y0247084D01*
X0011297Y0246728D01*
X0011297Y0245757D01*
X0014272Y0245757D01*
X0014272Y0245756D01*
X0014272Y0245950D02*
X0014272Y0245950D01*
X0014272Y0246748D02*
X0014272Y0246748D01*
X0014272Y0247547D02*
X0014272Y0247547D01*
X0014272Y0248346D02*
X0014272Y0248346D01*
X0014272Y0248906D02*
X0014272Y0248906D01*
X0014272Y0251094D01*
X0013786Y0251094D01*
X0013786Y0252357D01*
X0011297Y0252357D01*
X0011297Y0251084D01*
X0011392Y0250728D01*
X0011535Y0250481D01*
X0011392Y0250234D01*
X0011297Y0249878D01*
X0011297Y0248906D01*
X0014272Y0248906D01*
X0014272Y0249144D02*
X0014272Y0249144D01*
X0014272Y0249943D02*
X0014272Y0249943D01*
X0014272Y0250741D02*
X0014272Y0250741D01*
X0014364Y0251540D02*
X0013786Y0251540D01*
X0013786Y0252338D02*
X0014364Y0252338D01*
X0011297Y0252338D02*
X0004000Y0252338D01*
X0004000Y0251540D02*
X0011297Y0251540D01*
X0011389Y0250741D02*
X0004000Y0250741D01*
X0004000Y0249943D02*
X0011314Y0249943D01*
X0011297Y0249144D02*
X0004000Y0249144D01*
X0004000Y0248346D02*
X0011297Y0248346D01*
X0011410Y0247547D02*
X0009738Y0247547D01*
X0010751Y0246748D02*
X0011302Y0246748D01*
X0011297Y0245950D02*
X0010868Y0245950D01*
X0007900Y0245950D02*
X0007100Y0245950D01*
X0007100Y0246748D02*
X0007900Y0246748D01*
X0007900Y0247547D02*
X0007100Y0247547D01*
X0005262Y0247547D02*
X0004000Y0247547D01*
X0004000Y0246748D02*
X0004249Y0246748D01*
X0004131Y0245950D02*
X0004000Y0245950D01*
X0004000Y0245151D02*
X0004131Y0245151D01*
X0004000Y0244353D02*
X0007100Y0244353D01*
X0007100Y0245151D02*
X0007900Y0245151D01*
X0004131Y0243554D02*
X0004000Y0243554D01*
X0004000Y0242756D02*
X0004131Y0242756D01*
X0004000Y0253137D02*
X0011297Y0253137D01*
X0011297Y0253935D02*
X0004000Y0253935D01*
X0017246Y0249144D02*
X0057000Y0249144D01*
X0056398Y0249475D02*
X0056398Y0252449D01*
X0056398Y0252449D01*
X0056398Y0252450D01*
X0058585Y0252450D01*
X0058585Y0252935D01*
X0060636Y0252935D01*
X0060636Y0252357D01*
X0058585Y0252357D01*
X0058585Y0252449D01*
X0056398Y0252449D01*
X0056398Y0249475D01*
X0056398Y0249943D02*
X0056398Y0249943D01*
X0056398Y0250741D02*
X0056398Y0250741D01*
X0056398Y0251540D02*
X0056398Y0251540D01*
X0056398Y0252338D02*
X0056398Y0252338D01*
X0056398Y0252449D02*
X0053248Y0252449D01*
X0053248Y0249475D01*
X0053248Y0252449D01*
X0053248Y0252449D01*
X0050099Y0252449D01*
X0050099Y0252450D01*
X0052286Y0252450D01*
X0053248Y0252450D01*
X0053248Y0252449D01*
X0053248Y0252450D01*
X0054210Y0252450D01*
X0056398Y0252450D01*
X0056398Y0252449D01*
X0057000Y0248346D02*
X0017246Y0248346D01*
X0017133Y0247547D02*
X0056389Y0247547D01*
X0053248Y0249943D02*
X0053248Y0249943D01*
X0053248Y0250741D02*
X0053248Y0250741D01*
X0053248Y0251540D02*
X0053248Y0251540D01*
X0053248Y0252338D02*
X0053248Y0252338D01*
X0050098Y0252338D02*
X0050098Y0252338D01*
X0050098Y0251540D02*
X0050098Y0251540D01*
X0050098Y0250741D02*
X0050098Y0250741D01*
X0050098Y0249943D02*
X0050098Y0249943D01*
X0046949Y0249943D02*
X0046949Y0249943D01*
X0046949Y0250741D02*
X0046949Y0250741D01*
X0046949Y0251540D02*
X0046949Y0251540D01*
X0046949Y0252338D02*
X0046949Y0252338D01*
X0046949Y0252449D02*
X0043799Y0252449D01*
X0043799Y0252450D01*
X0045987Y0252450D01*
X0046949Y0252450D01*
X0046949Y0252449D01*
X0043799Y0252338D02*
X0043799Y0252338D01*
X0043799Y0251540D02*
X0043799Y0251540D01*
X0043799Y0250741D02*
X0043799Y0250741D01*
X0043799Y0249943D02*
X0043799Y0249943D01*
X0040650Y0249943D02*
X0040650Y0249943D01*
X0040650Y0249475D02*
X0040650Y0252449D01*
X0040650Y0252449D01*
X0040650Y0249475D01*
X0040650Y0250741D02*
X0040650Y0250741D01*
X0040650Y0251540D02*
X0040650Y0251540D01*
X0040650Y0252338D02*
X0040650Y0252338D01*
X0040649Y0252449D02*
X0037500Y0252449D01*
X0037500Y0249475D01*
X0037500Y0252449D01*
X0037500Y0252449D01*
X0037500Y0252450D01*
X0039687Y0252450D01*
X0040649Y0252450D01*
X0040649Y0252449D01*
X0037500Y0252449D02*
X0034351Y0252449D01*
X0034351Y0252450D01*
X0036538Y0252450D01*
X0037500Y0252450D01*
X0037500Y0252449D01*
X0037500Y0252338D02*
X0037500Y0252338D01*
X0037500Y0251540D02*
X0037500Y0251540D01*
X0037500Y0250741D02*
X0037500Y0250741D01*
X0037500Y0249943D02*
X0037500Y0249943D01*
X0034350Y0249943D02*
X0034350Y0249943D01*
X0034350Y0250741D02*
X0034350Y0250741D01*
X0034350Y0251540D02*
X0034350Y0251540D01*
X0034350Y0252338D02*
X0034350Y0252338D01*
X0031201Y0252338D02*
X0031201Y0252338D01*
X0031201Y0252449D02*
X0028051Y0252449D01*
X0028051Y0252450D01*
X0029013Y0252450D01*
X0031201Y0252450D01*
X0031201Y0252449D01*
X0031201Y0251540D02*
X0031201Y0251540D01*
X0031201Y0250741D02*
X0031201Y0250741D01*
X0031201Y0249943D02*
X0031201Y0249943D01*
X0028051Y0249943D02*
X0028051Y0249943D01*
X0028051Y0250741D02*
X0028051Y0250741D01*
X0028051Y0251540D02*
X0028051Y0251540D01*
X0028051Y0252338D02*
X0028051Y0252338D01*
X0024902Y0252338D02*
X0024902Y0252338D01*
X0024902Y0252449D02*
X0024902Y0249475D01*
X0024902Y0252449D01*
X0024902Y0252449D01*
X0024901Y0252449D02*
X0021752Y0252449D01*
X0021752Y0249475D01*
X0021752Y0252449D01*
X0021752Y0252449D01*
X0021752Y0252450D01*
X0023939Y0252450D01*
X0024901Y0252450D01*
X0024901Y0252449D01*
X0024902Y0251540D02*
X0024902Y0251540D01*
X0024902Y0250741D02*
X0024902Y0250741D01*
X0024902Y0249943D02*
X0024902Y0249943D01*
X0021752Y0249943D02*
X0021752Y0249943D01*
X0021752Y0250741D02*
X0021752Y0250741D01*
X0021752Y0251540D02*
X0021752Y0251540D01*
X0021752Y0252338D02*
X0021752Y0252338D01*
X0021752Y0252449D02*
X0018602Y0252449D01*
X0018602Y0252450D01*
X0020790Y0252450D01*
X0021752Y0252450D01*
X0021752Y0252449D01*
X0018602Y0252338D02*
X0018602Y0252338D01*
X0018602Y0251540D02*
X0018602Y0251540D01*
X0018602Y0250741D02*
X0018602Y0250741D01*
X0018602Y0249943D02*
X0018602Y0249943D01*
X0018590Y0246748D02*
X0017241Y0246748D01*
X0017246Y0245950D02*
X0017792Y0245950D01*
X0028000Y0217908D02*
X0028000Y0213918D01*
X0028051Y0213867D01*
X0034250Y0213967D02*
X0034350Y0213867D01*
X0034250Y0213967D02*
X0034250Y0217908D01*
X0040750Y0217908D02*
X0040750Y0220158D01*
X0042000Y0221408D01*
X0056500Y0221408D01*
X0057500Y0220408D01*
X0057500Y0216908D01*
X0056750Y0216158D01*
X0056750Y0214219D01*
X0056398Y0213867D01*
X0053248Y0213867D02*
X0053248Y0216906D01*
X0055000Y0218658D01*
X0050098Y0217810D02*
X0050098Y0213867D01*
X0050098Y0217810D02*
X0049250Y0218658D01*
X0057000Y0233158D02*
X0060728Y0233158D01*
X0060728Y0230009D02*
X0063100Y0230009D01*
X0066250Y0233158D01*
X0060728Y0236308D02*
X0060628Y0236408D01*
X0053500Y0236408D01*
X0060728Y0242607D02*
X0069801Y0242607D01*
X0072000Y0240408D01*
X0075000Y0244158D02*
X0079154Y0244158D01*
X0070000Y0247658D02*
X0068098Y0245757D01*
X0060728Y0245757D01*
X0060728Y0248906D02*
X0064248Y0248906D01*
X0066000Y0250658D01*
X0060728Y0226859D02*
X0081299Y0226859D01*
X0083500Y0224658D01*
X0078000Y0223658D02*
X0060780Y0223658D01*
X0060728Y0223709D01*
X0060827Y0220658D02*
X0060728Y0220560D01*
X0060827Y0220658D02*
X0069750Y0220658D01*
X0074000Y0213408D02*
X0074000Y0200812D01*
X0074154Y0200658D01*
X0078059Y0193217D02*
X0077500Y0192658D01*
X0077500Y0188658D01*
X0076941Y0188099D01*
X0074311Y0188099D01*
X0078059Y0193217D02*
X0080650Y0193217D01*
X0087750Y0207062D02*
X0082500Y0212312D01*
X0065846Y0198158D02*
X0065846Y0194505D01*
X0064500Y0193158D01*
X0060500Y0193158D01*
X0059154Y0191812D01*
X0059154Y0188158D01*
X0055500Y0188158D01*
X0053500Y0186158D01*
X0035000Y0186158D01*
X0028500Y0179658D01*
X0028500Y0177158D01*
X0026843Y0175501D01*
X0025000Y0175501D01*
X0032500Y0176505D02*
X0035654Y0176505D01*
X0036500Y0175658D01*
X0036500Y0170658D01*
X0037346Y0169812D01*
X0040000Y0169812D01*
X0040059Y0169753D01*
X0040059Y0159989D01*
X0058500Y0188158D02*
X0059154Y0188158D01*
X0051654Y0128158D02*
X0031000Y0128158D01*
X0028500Y0125658D01*
X0022000Y0125658D01*
X0019500Y0128158D01*
X0025000Y0118658D02*
X0025000Y0113316D01*
X0025000Y0108158D01*
X0025000Y0118658D02*
X0031154Y0124812D01*
X0035000Y0124812D01*
X0040000Y0125158D02*
X0044654Y0125158D01*
X0045000Y0124812D01*
X0045000Y0120658D01*
X0051654Y0128158D02*
X0055000Y0124812D01*
X0055000Y0120658D01*
D55*
X0007500Y0217658D02*
X0007500Y0222312D01*
X0007500Y0229005D02*
X0007500Y0233158D01*
X0007500Y0237312D01*
M02*
