%
M48
M72
T01C0.01181
T02C0.02362
T03C0.02559
T04C0.02953
T05C0.04000
T06C0.11024
%
T01
X25000Y108158
X36000Y116158
X40000Y125158
X45000Y120658
X55000Y120658
X55000Y136158
X49250Y146658
X52500Y152658
X60000Y157908
X47500Y162908
X37500Y180658
X43500Y182658
X54500Y192158
X56250Y202408
X60000Y205158
X64000Y207908
X68000Y210908
X65000Y213658
X69000Y215658
X69750Y220658
X74000Y213408
X78000Y223658
X83500Y224658
X87500Y220408
X91750Y222658
X98000Y222908
X102500Y220408
X92250Y235658
X90500Y244658
X75000Y244158
X72000Y240408
X70000Y247658
X66000Y250658
X55000Y248658
X50000Y248658
X45000Y248658
X40000Y248658
X35000Y248658
X30000Y248658
X25000Y248658
X20000Y248658
X17750Y239408
X21750Y236408
X17750Y233158
X21750Y229908
X24250Y225408
X23750Y217908
X28000Y217908
X34250Y217908
X40750Y217908
X49250Y218658
X55000Y218658
X57000Y233158
X53500Y236408
X45000Y233158
X37500Y233158
X30000Y233158
X17750Y223658
X7500Y217658
X14250Y209158
X23500Y204658
X26750Y196658
X31250Y208408
X11250Y189158
X5500Y157408
X19500Y128158
X27000Y128408
X9000Y114908
X71500Y195658
X84750Y185658
X87750Y183158
X85000Y168658
X87500Y155908
X83500Y149158
X97500Y137158
X87250Y122908
X96000Y114658
X110500Y122658
X114500Y122658
X114500Y128658
X110500Y128658
X112500Y155658
X112500Y165908
X120500Y170658
X123000Y179658
X133000Y179908
X123000Y197158
X133000Y220658
X133000Y228158
X133000Y235658
X133000Y242158
X151000Y234408
X152500Y250658
X174750Y243408
X185500Y224658
X193500Y216158
X197000Y198158
X185500Y196158
X168750Y182658
X167250Y176408
X163750Y185158
X157250Y185158
X152250Y171158
X163750Y158158
X168500Y162658
X178750Y169658
X178750Y174158
X174500Y145658
X174000Y138158
X165000Y137658
X160000Y137658
X155500Y129158
X169500Y117158
X176000Y124658
X191000Y140658
X196500Y132158
X154750Y153158
X137500Y143158
X132500Y136658
X132500Y118158
X132500Y108158
X102500Y180658
X102500Y198158
X91750Y199908
X66250Y233158
X7500Y233158
X7500Y252158
X156500Y204658
X192750Y247658
T02
X192500Y187666
X176043Y187666
X176043Y153650
X192500Y153650
T03
X178012Y159280
X178012Y182036
T04
X175000Y104595
X175000Y96721
T05
X152500Y103158
X142500Y103158
X145000Y123158
X145000Y133158
X145000Y143158
X145000Y153158
X145000Y163158
X145000Y173158
X145000Y183158
X145000Y193158
X145000Y203158
X145000Y213158
X122500Y103158
X112500Y103158
X102500Y103158
X82500Y103158
X72500Y103158
X62500Y103158
X52500Y103158
X42500Y103158
X32500Y103158
T06
X12500Y90658
X102500Y245658
X192500Y90658
M30
