G75*
%MOIN*%
%OFA0B0*%
%FSLAX25Y25*%
%IPPOS*%
%LPD*%
%AMOC8*
5,1,8,0,0,1.08239X$1,22.5*
%
%ADD10C,0.00000*%
%ADD11C,0.04362*%
%ADD12C,0.06000*%
%ADD13C,0.04953*%
%ADD14C,0.02381*%
%ADD15C,0.00800*%
%ADD16C,0.01000*%
D10*
X0002500Y0080658D02*
X0202500Y0080658D01*
X0202500Y0255658D01*
X0002500Y0255658D01*
X0002500Y0080658D01*
X0006988Y0090658D02*
X0006990Y0090806D01*
X0006996Y0090954D01*
X0007006Y0091102D01*
X0007020Y0091249D01*
X0007038Y0091396D01*
X0007059Y0091542D01*
X0007085Y0091688D01*
X0007115Y0091833D01*
X0007148Y0091977D01*
X0007186Y0092120D01*
X0007227Y0092262D01*
X0007272Y0092403D01*
X0007320Y0092543D01*
X0007373Y0092682D01*
X0007429Y0092819D01*
X0007489Y0092954D01*
X0007552Y0093088D01*
X0007619Y0093220D01*
X0007690Y0093350D01*
X0007764Y0093478D01*
X0007841Y0093604D01*
X0007922Y0093728D01*
X0008006Y0093850D01*
X0008093Y0093969D01*
X0008184Y0094086D01*
X0008278Y0094201D01*
X0008374Y0094313D01*
X0008474Y0094423D01*
X0008576Y0094529D01*
X0008682Y0094633D01*
X0008790Y0094734D01*
X0008901Y0094832D01*
X0009014Y0094928D01*
X0009130Y0095020D01*
X0009248Y0095109D01*
X0009369Y0095194D01*
X0009492Y0095277D01*
X0009617Y0095356D01*
X0009744Y0095432D01*
X0009873Y0095504D01*
X0010004Y0095573D01*
X0010137Y0095638D01*
X0010272Y0095699D01*
X0010408Y0095757D01*
X0010545Y0095812D01*
X0010684Y0095862D01*
X0010825Y0095909D01*
X0010966Y0095952D01*
X0011109Y0095992D01*
X0011253Y0096027D01*
X0011397Y0096059D01*
X0011543Y0096086D01*
X0011689Y0096110D01*
X0011836Y0096130D01*
X0011983Y0096146D01*
X0012130Y0096158D01*
X0012278Y0096166D01*
X0012426Y0096170D01*
X0012574Y0096170D01*
X0012722Y0096166D01*
X0012870Y0096158D01*
X0013017Y0096146D01*
X0013164Y0096130D01*
X0013311Y0096110D01*
X0013457Y0096086D01*
X0013603Y0096059D01*
X0013747Y0096027D01*
X0013891Y0095992D01*
X0014034Y0095952D01*
X0014175Y0095909D01*
X0014316Y0095862D01*
X0014455Y0095812D01*
X0014592Y0095757D01*
X0014728Y0095699D01*
X0014863Y0095638D01*
X0014996Y0095573D01*
X0015127Y0095504D01*
X0015256Y0095432D01*
X0015383Y0095356D01*
X0015508Y0095277D01*
X0015631Y0095194D01*
X0015752Y0095109D01*
X0015870Y0095020D01*
X0015986Y0094928D01*
X0016099Y0094832D01*
X0016210Y0094734D01*
X0016318Y0094633D01*
X0016424Y0094529D01*
X0016526Y0094423D01*
X0016626Y0094313D01*
X0016722Y0094201D01*
X0016816Y0094086D01*
X0016907Y0093969D01*
X0016994Y0093850D01*
X0017078Y0093728D01*
X0017159Y0093604D01*
X0017236Y0093478D01*
X0017310Y0093350D01*
X0017381Y0093220D01*
X0017448Y0093088D01*
X0017511Y0092954D01*
X0017571Y0092819D01*
X0017627Y0092682D01*
X0017680Y0092543D01*
X0017728Y0092403D01*
X0017773Y0092262D01*
X0017814Y0092120D01*
X0017852Y0091977D01*
X0017885Y0091833D01*
X0017915Y0091688D01*
X0017941Y0091542D01*
X0017962Y0091396D01*
X0017980Y0091249D01*
X0017994Y0091102D01*
X0018004Y0090954D01*
X0018010Y0090806D01*
X0018012Y0090658D01*
X0018010Y0090510D01*
X0018004Y0090362D01*
X0017994Y0090214D01*
X0017980Y0090067D01*
X0017962Y0089920D01*
X0017941Y0089774D01*
X0017915Y0089628D01*
X0017885Y0089483D01*
X0017852Y0089339D01*
X0017814Y0089196D01*
X0017773Y0089054D01*
X0017728Y0088913D01*
X0017680Y0088773D01*
X0017627Y0088634D01*
X0017571Y0088497D01*
X0017511Y0088362D01*
X0017448Y0088228D01*
X0017381Y0088096D01*
X0017310Y0087966D01*
X0017236Y0087838D01*
X0017159Y0087712D01*
X0017078Y0087588D01*
X0016994Y0087466D01*
X0016907Y0087347D01*
X0016816Y0087230D01*
X0016722Y0087115D01*
X0016626Y0087003D01*
X0016526Y0086893D01*
X0016424Y0086787D01*
X0016318Y0086683D01*
X0016210Y0086582D01*
X0016099Y0086484D01*
X0015986Y0086388D01*
X0015870Y0086296D01*
X0015752Y0086207D01*
X0015631Y0086122D01*
X0015508Y0086039D01*
X0015383Y0085960D01*
X0015256Y0085884D01*
X0015127Y0085812D01*
X0014996Y0085743D01*
X0014863Y0085678D01*
X0014728Y0085617D01*
X0014592Y0085559D01*
X0014455Y0085504D01*
X0014316Y0085454D01*
X0014175Y0085407D01*
X0014034Y0085364D01*
X0013891Y0085324D01*
X0013747Y0085289D01*
X0013603Y0085257D01*
X0013457Y0085230D01*
X0013311Y0085206D01*
X0013164Y0085186D01*
X0013017Y0085170D01*
X0012870Y0085158D01*
X0012722Y0085150D01*
X0012574Y0085146D01*
X0012426Y0085146D01*
X0012278Y0085150D01*
X0012130Y0085158D01*
X0011983Y0085170D01*
X0011836Y0085186D01*
X0011689Y0085206D01*
X0011543Y0085230D01*
X0011397Y0085257D01*
X0011253Y0085289D01*
X0011109Y0085324D01*
X0010966Y0085364D01*
X0010825Y0085407D01*
X0010684Y0085454D01*
X0010545Y0085504D01*
X0010408Y0085559D01*
X0010272Y0085617D01*
X0010137Y0085678D01*
X0010004Y0085743D01*
X0009873Y0085812D01*
X0009744Y0085884D01*
X0009617Y0085960D01*
X0009492Y0086039D01*
X0009369Y0086122D01*
X0009248Y0086207D01*
X0009130Y0086296D01*
X0009014Y0086388D01*
X0008901Y0086484D01*
X0008790Y0086582D01*
X0008682Y0086683D01*
X0008576Y0086787D01*
X0008474Y0086893D01*
X0008374Y0087003D01*
X0008278Y0087115D01*
X0008184Y0087230D01*
X0008093Y0087347D01*
X0008006Y0087466D01*
X0007922Y0087588D01*
X0007841Y0087712D01*
X0007764Y0087838D01*
X0007690Y0087966D01*
X0007619Y0088096D01*
X0007552Y0088228D01*
X0007489Y0088362D01*
X0007429Y0088497D01*
X0007373Y0088634D01*
X0007320Y0088773D01*
X0007272Y0088913D01*
X0007227Y0089054D01*
X0007186Y0089196D01*
X0007148Y0089339D01*
X0007115Y0089483D01*
X0007085Y0089628D01*
X0007059Y0089774D01*
X0007038Y0089920D01*
X0007020Y0090067D01*
X0007006Y0090214D01*
X0006996Y0090362D01*
X0006990Y0090510D01*
X0006988Y0090658D01*
X0096988Y0245658D02*
X0096990Y0245806D01*
X0096996Y0245954D01*
X0097006Y0246102D01*
X0097020Y0246249D01*
X0097038Y0246396D01*
X0097059Y0246542D01*
X0097085Y0246688D01*
X0097115Y0246833D01*
X0097148Y0246977D01*
X0097186Y0247120D01*
X0097227Y0247262D01*
X0097272Y0247403D01*
X0097320Y0247543D01*
X0097373Y0247682D01*
X0097429Y0247819D01*
X0097489Y0247954D01*
X0097552Y0248088D01*
X0097619Y0248220D01*
X0097690Y0248350D01*
X0097764Y0248478D01*
X0097841Y0248604D01*
X0097922Y0248728D01*
X0098006Y0248850D01*
X0098093Y0248969D01*
X0098184Y0249086D01*
X0098278Y0249201D01*
X0098374Y0249313D01*
X0098474Y0249423D01*
X0098576Y0249529D01*
X0098682Y0249633D01*
X0098790Y0249734D01*
X0098901Y0249832D01*
X0099014Y0249928D01*
X0099130Y0250020D01*
X0099248Y0250109D01*
X0099369Y0250194D01*
X0099492Y0250277D01*
X0099617Y0250356D01*
X0099744Y0250432D01*
X0099873Y0250504D01*
X0100004Y0250573D01*
X0100137Y0250638D01*
X0100272Y0250699D01*
X0100408Y0250757D01*
X0100545Y0250812D01*
X0100684Y0250862D01*
X0100825Y0250909D01*
X0100966Y0250952D01*
X0101109Y0250992D01*
X0101253Y0251027D01*
X0101397Y0251059D01*
X0101543Y0251086D01*
X0101689Y0251110D01*
X0101836Y0251130D01*
X0101983Y0251146D01*
X0102130Y0251158D01*
X0102278Y0251166D01*
X0102426Y0251170D01*
X0102574Y0251170D01*
X0102722Y0251166D01*
X0102870Y0251158D01*
X0103017Y0251146D01*
X0103164Y0251130D01*
X0103311Y0251110D01*
X0103457Y0251086D01*
X0103603Y0251059D01*
X0103747Y0251027D01*
X0103891Y0250992D01*
X0104034Y0250952D01*
X0104175Y0250909D01*
X0104316Y0250862D01*
X0104455Y0250812D01*
X0104592Y0250757D01*
X0104728Y0250699D01*
X0104863Y0250638D01*
X0104996Y0250573D01*
X0105127Y0250504D01*
X0105256Y0250432D01*
X0105383Y0250356D01*
X0105508Y0250277D01*
X0105631Y0250194D01*
X0105752Y0250109D01*
X0105870Y0250020D01*
X0105986Y0249928D01*
X0106099Y0249832D01*
X0106210Y0249734D01*
X0106318Y0249633D01*
X0106424Y0249529D01*
X0106526Y0249423D01*
X0106626Y0249313D01*
X0106722Y0249201D01*
X0106816Y0249086D01*
X0106907Y0248969D01*
X0106994Y0248850D01*
X0107078Y0248728D01*
X0107159Y0248604D01*
X0107236Y0248478D01*
X0107310Y0248350D01*
X0107381Y0248220D01*
X0107448Y0248088D01*
X0107511Y0247954D01*
X0107571Y0247819D01*
X0107627Y0247682D01*
X0107680Y0247543D01*
X0107728Y0247403D01*
X0107773Y0247262D01*
X0107814Y0247120D01*
X0107852Y0246977D01*
X0107885Y0246833D01*
X0107915Y0246688D01*
X0107941Y0246542D01*
X0107962Y0246396D01*
X0107980Y0246249D01*
X0107994Y0246102D01*
X0108004Y0245954D01*
X0108010Y0245806D01*
X0108012Y0245658D01*
X0108010Y0245510D01*
X0108004Y0245362D01*
X0107994Y0245214D01*
X0107980Y0245067D01*
X0107962Y0244920D01*
X0107941Y0244774D01*
X0107915Y0244628D01*
X0107885Y0244483D01*
X0107852Y0244339D01*
X0107814Y0244196D01*
X0107773Y0244054D01*
X0107728Y0243913D01*
X0107680Y0243773D01*
X0107627Y0243634D01*
X0107571Y0243497D01*
X0107511Y0243362D01*
X0107448Y0243228D01*
X0107381Y0243096D01*
X0107310Y0242966D01*
X0107236Y0242838D01*
X0107159Y0242712D01*
X0107078Y0242588D01*
X0106994Y0242466D01*
X0106907Y0242347D01*
X0106816Y0242230D01*
X0106722Y0242115D01*
X0106626Y0242003D01*
X0106526Y0241893D01*
X0106424Y0241787D01*
X0106318Y0241683D01*
X0106210Y0241582D01*
X0106099Y0241484D01*
X0105986Y0241388D01*
X0105870Y0241296D01*
X0105752Y0241207D01*
X0105631Y0241122D01*
X0105508Y0241039D01*
X0105383Y0240960D01*
X0105256Y0240884D01*
X0105127Y0240812D01*
X0104996Y0240743D01*
X0104863Y0240678D01*
X0104728Y0240617D01*
X0104592Y0240559D01*
X0104455Y0240504D01*
X0104316Y0240454D01*
X0104175Y0240407D01*
X0104034Y0240364D01*
X0103891Y0240324D01*
X0103747Y0240289D01*
X0103603Y0240257D01*
X0103457Y0240230D01*
X0103311Y0240206D01*
X0103164Y0240186D01*
X0103017Y0240170D01*
X0102870Y0240158D01*
X0102722Y0240150D01*
X0102574Y0240146D01*
X0102426Y0240146D01*
X0102278Y0240150D01*
X0102130Y0240158D01*
X0101983Y0240170D01*
X0101836Y0240186D01*
X0101689Y0240206D01*
X0101543Y0240230D01*
X0101397Y0240257D01*
X0101253Y0240289D01*
X0101109Y0240324D01*
X0100966Y0240364D01*
X0100825Y0240407D01*
X0100684Y0240454D01*
X0100545Y0240504D01*
X0100408Y0240559D01*
X0100272Y0240617D01*
X0100137Y0240678D01*
X0100004Y0240743D01*
X0099873Y0240812D01*
X0099744Y0240884D01*
X0099617Y0240960D01*
X0099492Y0241039D01*
X0099369Y0241122D01*
X0099248Y0241207D01*
X0099130Y0241296D01*
X0099014Y0241388D01*
X0098901Y0241484D01*
X0098790Y0241582D01*
X0098682Y0241683D01*
X0098576Y0241787D01*
X0098474Y0241893D01*
X0098374Y0242003D01*
X0098278Y0242115D01*
X0098184Y0242230D01*
X0098093Y0242347D01*
X0098006Y0242466D01*
X0097922Y0242588D01*
X0097841Y0242712D01*
X0097764Y0242838D01*
X0097690Y0242966D01*
X0097619Y0243096D01*
X0097552Y0243228D01*
X0097489Y0243362D01*
X0097429Y0243497D01*
X0097373Y0243634D01*
X0097320Y0243773D01*
X0097272Y0243913D01*
X0097227Y0244054D01*
X0097186Y0244196D01*
X0097148Y0244339D01*
X0097115Y0244483D01*
X0097085Y0244628D01*
X0097059Y0244774D01*
X0097038Y0244920D01*
X0097020Y0245067D01*
X0097006Y0245214D01*
X0096996Y0245362D01*
X0096990Y0245510D01*
X0096988Y0245658D01*
X0176732Y0182036D02*
X0176734Y0182107D01*
X0176740Y0182178D01*
X0176750Y0182249D01*
X0176764Y0182318D01*
X0176781Y0182387D01*
X0176803Y0182455D01*
X0176828Y0182522D01*
X0176857Y0182587D01*
X0176889Y0182650D01*
X0176925Y0182712D01*
X0176964Y0182771D01*
X0177007Y0182828D01*
X0177052Y0182883D01*
X0177101Y0182935D01*
X0177152Y0182984D01*
X0177206Y0183030D01*
X0177263Y0183074D01*
X0177321Y0183114D01*
X0177382Y0183150D01*
X0177445Y0183184D01*
X0177510Y0183213D01*
X0177576Y0183239D01*
X0177644Y0183262D01*
X0177712Y0183280D01*
X0177782Y0183295D01*
X0177852Y0183306D01*
X0177923Y0183313D01*
X0177994Y0183316D01*
X0178065Y0183315D01*
X0178136Y0183310D01*
X0178207Y0183301D01*
X0178277Y0183288D01*
X0178346Y0183272D01*
X0178414Y0183251D01*
X0178481Y0183227D01*
X0178547Y0183199D01*
X0178610Y0183167D01*
X0178672Y0183132D01*
X0178732Y0183094D01*
X0178790Y0183052D01*
X0178845Y0183008D01*
X0178898Y0182960D01*
X0178948Y0182909D01*
X0178995Y0182856D01*
X0179039Y0182800D01*
X0179080Y0182742D01*
X0179118Y0182681D01*
X0179152Y0182619D01*
X0179182Y0182554D01*
X0179209Y0182489D01*
X0179233Y0182421D01*
X0179252Y0182353D01*
X0179268Y0182284D01*
X0179280Y0182213D01*
X0179288Y0182143D01*
X0179292Y0182072D01*
X0179292Y0182000D01*
X0179288Y0181929D01*
X0179280Y0181859D01*
X0179268Y0181788D01*
X0179252Y0181719D01*
X0179233Y0181651D01*
X0179209Y0181583D01*
X0179182Y0181518D01*
X0179152Y0181453D01*
X0179118Y0181391D01*
X0179080Y0181330D01*
X0179039Y0181272D01*
X0178995Y0181216D01*
X0178948Y0181163D01*
X0178898Y0181112D01*
X0178845Y0181064D01*
X0178790Y0181020D01*
X0178732Y0180978D01*
X0178672Y0180940D01*
X0178610Y0180905D01*
X0178547Y0180873D01*
X0178481Y0180845D01*
X0178414Y0180821D01*
X0178346Y0180800D01*
X0178277Y0180784D01*
X0178207Y0180771D01*
X0178136Y0180762D01*
X0178065Y0180757D01*
X0177994Y0180756D01*
X0177923Y0180759D01*
X0177852Y0180766D01*
X0177782Y0180777D01*
X0177712Y0180792D01*
X0177644Y0180810D01*
X0177576Y0180833D01*
X0177510Y0180859D01*
X0177445Y0180888D01*
X0177382Y0180922D01*
X0177321Y0180958D01*
X0177263Y0180998D01*
X0177206Y0181042D01*
X0177152Y0181088D01*
X0177101Y0181137D01*
X0177052Y0181189D01*
X0177007Y0181244D01*
X0176964Y0181301D01*
X0176925Y0181360D01*
X0176889Y0181422D01*
X0176857Y0181485D01*
X0176828Y0181550D01*
X0176803Y0181617D01*
X0176781Y0181685D01*
X0176764Y0181754D01*
X0176750Y0181823D01*
X0176740Y0181894D01*
X0176734Y0181965D01*
X0176732Y0182036D01*
X0176732Y0159280D02*
X0176734Y0159351D01*
X0176740Y0159422D01*
X0176750Y0159493D01*
X0176764Y0159562D01*
X0176781Y0159631D01*
X0176803Y0159699D01*
X0176828Y0159766D01*
X0176857Y0159831D01*
X0176889Y0159894D01*
X0176925Y0159956D01*
X0176964Y0160015D01*
X0177007Y0160072D01*
X0177052Y0160127D01*
X0177101Y0160179D01*
X0177152Y0160228D01*
X0177206Y0160274D01*
X0177263Y0160318D01*
X0177321Y0160358D01*
X0177382Y0160394D01*
X0177445Y0160428D01*
X0177510Y0160457D01*
X0177576Y0160483D01*
X0177644Y0160506D01*
X0177712Y0160524D01*
X0177782Y0160539D01*
X0177852Y0160550D01*
X0177923Y0160557D01*
X0177994Y0160560D01*
X0178065Y0160559D01*
X0178136Y0160554D01*
X0178207Y0160545D01*
X0178277Y0160532D01*
X0178346Y0160516D01*
X0178414Y0160495D01*
X0178481Y0160471D01*
X0178547Y0160443D01*
X0178610Y0160411D01*
X0178672Y0160376D01*
X0178732Y0160338D01*
X0178790Y0160296D01*
X0178845Y0160252D01*
X0178898Y0160204D01*
X0178948Y0160153D01*
X0178995Y0160100D01*
X0179039Y0160044D01*
X0179080Y0159986D01*
X0179118Y0159925D01*
X0179152Y0159863D01*
X0179182Y0159798D01*
X0179209Y0159733D01*
X0179233Y0159665D01*
X0179252Y0159597D01*
X0179268Y0159528D01*
X0179280Y0159457D01*
X0179288Y0159387D01*
X0179292Y0159316D01*
X0179292Y0159244D01*
X0179288Y0159173D01*
X0179280Y0159103D01*
X0179268Y0159032D01*
X0179252Y0158963D01*
X0179233Y0158895D01*
X0179209Y0158827D01*
X0179182Y0158762D01*
X0179152Y0158697D01*
X0179118Y0158635D01*
X0179080Y0158574D01*
X0179039Y0158516D01*
X0178995Y0158460D01*
X0178948Y0158407D01*
X0178898Y0158356D01*
X0178845Y0158308D01*
X0178790Y0158264D01*
X0178732Y0158222D01*
X0178672Y0158184D01*
X0178610Y0158149D01*
X0178547Y0158117D01*
X0178481Y0158089D01*
X0178414Y0158065D01*
X0178346Y0158044D01*
X0178277Y0158028D01*
X0178207Y0158015D01*
X0178136Y0158006D01*
X0178065Y0158001D01*
X0177994Y0158000D01*
X0177923Y0158003D01*
X0177852Y0158010D01*
X0177782Y0158021D01*
X0177712Y0158036D01*
X0177644Y0158054D01*
X0177576Y0158077D01*
X0177510Y0158103D01*
X0177445Y0158132D01*
X0177382Y0158166D01*
X0177321Y0158202D01*
X0177263Y0158242D01*
X0177206Y0158286D01*
X0177152Y0158332D01*
X0177101Y0158381D01*
X0177052Y0158433D01*
X0177007Y0158488D01*
X0176964Y0158545D01*
X0176925Y0158604D01*
X0176889Y0158666D01*
X0176857Y0158729D01*
X0176828Y0158794D01*
X0176803Y0158861D01*
X0176781Y0158929D01*
X0176764Y0158998D01*
X0176750Y0159067D01*
X0176740Y0159138D01*
X0176734Y0159209D01*
X0176732Y0159280D01*
X0186988Y0090658D02*
X0186990Y0090806D01*
X0186996Y0090954D01*
X0187006Y0091102D01*
X0187020Y0091249D01*
X0187038Y0091396D01*
X0187059Y0091542D01*
X0187085Y0091688D01*
X0187115Y0091833D01*
X0187148Y0091977D01*
X0187186Y0092120D01*
X0187227Y0092262D01*
X0187272Y0092403D01*
X0187320Y0092543D01*
X0187373Y0092682D01*
X0187429Y0092819D01*
X0187489Y0092954D01*
X0187552Y0093088D01*
X0187619Y0093220D01*
X0187690Y0093350D01*
X0187764Y0093478D01*
X0187841Y0093604D01*
X0187922Y0093728D01*
X0188006Y0093850D01*
X0188093Y0093969D01*
X0188184Y0094086D01*
X0188278Y0094201D01*
X0188374Y0094313D01*
X0188474Y0094423D01*
X0188576Y0094529D01*
X0188682Y0094633D01*
X0188790Y0094734D01*
X0188901Y0094832D01*
X0189014Y0094928D01*
X0189130Y0095020D01*
X0189248Y0095109D01*
X0189369Y0095194D01*
X0189492Y0095277D01*
X0189617Y0095356D01*
X0189744Y0095432D01*
X0189873Y0095504D01*
X0190004Y0095573D01*
X0190137Y0095638D01*
X0190272Y0095699D01*
X0190408Y0095757D01*
X0190545Y0095812D01*
X0190684Y0095862D01*
X0190825Y0095909D01*
X0190966Y0095952D01*
X0191109Y0095992D01*
X0191253Y0096027D01*
X0191397Y0096059D01*
X0191543Y0096086D01*
X0191689Y0096110D01*
X0191836Y0096130D01*
X0191983Y0096146D01*
X0192130Y0096158D01*
X0192278Y0096166D01*
X0192426Y0096170D01*
X0192574Y0096170D01*
X0192722Y0096166D01*
X0192870Y0096158D01*
X0193017Y0096146D01*
X0193164Y0096130D01*
X0193311Y0096110D01*
X0193457Y0096086D01*
X0193603Y0096059D01*
X0193747Y0096027D01*
X0193891Y0095992D01*
X0194034Y0095952D01*
X0194175Y0095909D01*
X0194316Y0095862D01*
X0194455Y0095812D01*
X0194592Y0095757D01*
X0194728Y0095699D01*
X0194863Y0095638D01*
X0194996Y0095573D01*
X0195127Y0095504D01*
X0195256Y0095432D01*
X0195383Y0095356D01*
X0195508Y0095277D01*
X0195631Y0095194D01*
X0195752Y0095109D01*
X0195870Y0095020D01*
X0195986Y0094928D01*
X0196099Y0094832D01*
X0196210Y0094734D01*
X0196318Y0094633D01*
X0196424Y0094529D01*
X0196526Y0094423D01*
X0196626Y0094313D01*
X0196722Y0094201D01*
X0196816Y0094086D01*
X0196907Y0093969D01*
X0196994Y0093850D01*
X0197078Y0093728D01*
X0197159Y0093604D01*
X0197236Y0093478D01*
X0197310Y0093350D01*
X0197381Y0093220D01*
X0197448Y0093088D01*
X0197511Y0092954D01*
X0197571Y0092819D01*
X0197627Y0092682D01*
X0197680Y0092543D01*
X0197728Y0092403D01*
X0197773Y0092262D01*
X0197814Y0092120D01*
X0197852Y0091977D01*
X0197885Y0091833D01*
X0197915Y0091688D01*
X0197941Y0091542D01*
X0197962Y0091396D01*
X0197980Y0091249D01*
X0197994Y0091102D01*
X0198004Y0090954D01*
X0198010Y0090806D01*
X0198012Y0090658D01*
X0198010Y0090510D01*
X0198004Y0090362D01*
X0197994Y0090214D01*
X0197980Y0090067D01*
X0197962Y0089920D01*
X0197941Y0089774D01*
X0197915Y0089628D01*
X0197885Y0089483D01*
X0197852Y0089339D01*
X0197814Y0089196D01*
X0197773Y0089054D01*
X0197728Y0088913D01*
X0197680Y0088773D01*
X0197627Y0088634D01*
X0197571Y0088497D01*
X0197511Y0088362D01*
X0197448Y0088228D01*
X0197381Y0088096D01*
X0197310Y0087966D01*
X0197236Y0087838D01*
X0197159Y0087712D01*
X0197078Y0087588D01*
X0196994Y0087466D01*
X0196907Y0087347D01*
X0196816Y0087230D01*
X0196722Y0087115D01*
X0196626Y0087003D01*
X0196526Y0086893D01*
X0196424Y0086787D01*
X0196318Y0086683D01*
X0196210Y0086582D01*
X0196099Y0086484D01*
X0195986Y0086388D01*
X0195870Y0086296D01*
X0195752Y0086207D01*
X0195631Y0086122D01*
X0195508Y0086039D01*
X0195383Y0085960D01*
X0195256Y0085884D01*
X0195127Y0085812D01*
X0194996Y0085743D01*
X0194863Y0085678D01*
X0194728Y0085617D01*
X0194592Y0085559D01*
X0194455Y0085504D01*
X0194316Y0085454D01*
X0194175Y0085407D01*
X0194034Y0085364D01*
X0193891Y0085324D01*
X0193747Y0085289D01*
X0193603Y0085257D01*
X0193457Y0085230D01*
X0193311Y0085206D01*
X0193164Y0085186D01*
X0193017Y0085170D01*
X0192870Y0085158D01*
X0192722Y0085150D01*
X0192574Y0085146D01*
X0192426Y0085146D01*
X0192278Y0085150D01*
X0192130Y0085158D01*
X0191983Y0085170D01*
X0191836Y0085186D01*
X0191689Y0085206D01*
X0191543Y0085230D01*
X0191397Y0085257D01*
X0191253Y0085289D01*
X0191109Y0085324D01*
X0190966Y0085364D01*
X0190825Y0085407D01*
X0190684Y0085454D01*
X0190545Y0085504D01*
X0190408Y0085559D01*
X0190272Y0085617D01*
X0190137Y0085678D01*
X0190004Y0085743D01*
X0189873Y0085812D01*
X0189744Y0085884D01*
X0189617Y0085960D01*
X0189492Y0086039D01*
X0189369Y0086122D01*
X0189248Y0086207D01*
X0189130Y0086296D01*
X0189014Y0086388D01*
X0188901Y0086484D01*
X0188790Y0086582D01*
X0188682Y0086683D01*
X0188576Y0086787D01*
X0188474Y0086893D01*
X0188374Y0087003D01*
X0188278Y0087115D01*
X0188184Y0087230D01*
X0188093Y0087347D01*
X0188006Y0087466D01*
X0187922Y0087588D01*
X0187841Y0087712D01*
X0187764Y0087838D01*
X0187690Y0087966D01*
X0187619Y0088096D01*
X0187552Y0088228D01*
X0187489Y0088362D01*
X0187429Y0088497D01*
X0187373Y0088634D01*
X0187320Y0088773D01*
X0187272Y0088913D01*
X0187227Y0089054D01*
X0187186Y0089196D01*
X0187148Y0089339D01*
X0187115Y0089483D01*
X0187085Y0089628D01*
X0187059Y0089774D01*
X0187038Y0089920D01*
X0187020Y0090067D01*
X0187006Y0090214D01*
X0186996Y0090362D01*
X0186990Y0090510D01*
X0186988Y0090658D01*
D11*
X0192500Y0153650D03*
X0176043Y0153650D03*
X0176043Y0187666D03*
X0192500Y0187666D03*
D12*
X0145000Y0183158D03*
X0145000Y0173158D03*
X0145000Y0163158D03*
X0145000Y0153158D03*
X0145000Y0143158D03*
X0145000Y0133158D03*
X0145000Y0123158D03*
X0142500Y0103158D03*
X0152500Y0103158D03*
X0122500Y0103158D03*
X0112500Y0103158D03*
X0102500Y0103158D03*
X0082500Y0103158D03*
X0072500Y0103158D03*
X0062500Y0103158D03*
X0052500Y0103158D03*
X0042500Y0103158D03*
X0032500Y0103158D03*
X0145000Y0193158D03*
X0145000Y0203158D03*
X0145000Y0213158D03*
D13*
X0175000Y0104595D03*
X0175000Y0096721D03*
D14*
X0169500Y0117158D03*
X0176000Y0124658D03*
X0174000Y0138158D03*
X0174500Y0145658D03*
X0165000Y0137658D03*
X0160000Y0137658D03*
X0155500Y0129158D03*
X0154750Y0153158D03*
X0163750Y0158158D03*
X0168500Y0162658D03*
X0178750Y0169658D03*
X0178750Y0174158D03*
X0168750Y0182658D03*
X0167250Y0176408D03*
X0163750Y0185158D03*
X0157250Y0185158D03*
X0152250Y0171158D03*
X0133000Y0179908D03*
X0123000Y0179658D03*
X0120500Y0170658D03*
X0112500Y0165908D03*
X0112500Y0155658D03*
X0097500Y0137158D03*
X0087250Y0122908D03*
X0096000Y0114658D03*
X0110500Y0122658D03*
X0114500Y0122658D03*
X0114500Y0128658D03*
X0110500Y0128658D03*
X0132500Y0136658D03*
X0137500Y0143158D03*
X0132500Y0118158D03*
X0132500Y0108158D03*
X0087500Y0155908D03*
X0083500Y0149158D03*
X0085000Y0168658D03*
X0087750Y0183158D03*
X0084750Y0185658D03*
X0091750Y0199908D03*
X0102500Y0198158D03*
X0102500Y0180658D03*
X0123000Y0197158D03*
X0133000Y0220658D03*
X0133000Y0228158D03*
X0133000Y0235658D03*
X0133000Y0242158D03*
X0151000Y0234408D03*
X0152500Y0250658D03*
X0174750Y0243408D03*
X0185500Y0224658D03*
X0193500Y0216158D03*
X0197000Y0198158D03*
X0185500Y0196158D03*
X0156500Y0204658D03*
X0192750Y0247658D03*
X0191000Y0140658D03*
X0196500Y0132158D03*
X0102500Y0220408D03*
X0098000Y0222908D03*
X0091750Y0222658D03*
X0087500Y0220408D03*
X0083500Y0224658D03*
X0078000Y0223658D03*
X0069750Y0220658D03*
X0069000Y0215658D03*
X0065000Y0213658D03*
X0068000Y0210908D03*
X0064000Y0207908D03*
X0060000Y0205158D03*
X0056250Y0202408D03*
X0054500Y0192158D03*
X0043500Y0182658D03*
X0037500Y0180658D03*
X0026750Y0196658D03*
X0023500Y0204658D03*
X0031250Y0208408D03*
X0034250Y0217908D03*
X0028000Y0217908D03*
X0023750Y0217908D03*
X0024250Y0225408D03*
X0021750Y0229908D03*
X0017750Y0233158D03*
X0021750Y0236408D03*
X0017750Y0239408D03*
X0020000Y0248658D03*
X0025000Y0248658D03*
X0030000Y0248658D03*
X0035000Y0248658D03*
X0040000Y0248658D03*
X0045000Y0248658D03*
X0050000Y0248658D03*
X0055000Y0248658D03*
X0053500Y0236408D03*
X0057000Y0233158D03*
X0066250Y0233158D03*
X0072000Y0240408D03*
X0075000Y0244158D03*
X0070000Y0247658D03*
X0066000Y0250658D03*
X0045000Y0233158D03*
X0037500Y0233158D03*
X0030000Y0233158D03*
X0040750Y0217908D03*
X0049250Y0218658D03*
X0055000Y0218658D03*
X0071500Y0195658D03*
X0074000Y0213408D03*
X0092250Y0235658D03*
X0090500Y0244658D03*
X0047500Y0162908D03*
X0052500Y0152658D03*
X0049250Y0146658D03*
X0055000Y0136158D03*
X0055000Y0120658D03*
X0045000Y0120658D03*
X0040000Y0125158D03*
X0036000Y0116158D03*
X0025000Y0108158D03*
X0009000Y0114908D03*
X0019500Y0128158D03*
X0027000Y0128408D03*
X0005500Y0157408D03*
X0011250Y0189158D03*
X0014250Y0209158D03*
X0007500Y0217658D03*
X0017750Y0223658D03*
X0007500Y0233158D03*
X0007500Y0252158D03*
X0060000Y0157908D03*
D15*
X0049250Y0146658D02*
X0100750Y0095158D01*
X0134500Y0095158D01*
X0142500Y0103158D01*
X0165500Y0132158D02*
X0160000Y0137658D01*
X0165000Y0137658D02*
X0168000Y0134658D01*
X0188500Y0134658D01*
X0191000Y0137158D01*
X0191000Y0140658D01*
X0196500Y0132158D02*
X0165500Y0132158D01*
X0174000Y0138158D02*
X0171000Y0141158D01*
X0171000Y0147658D01*
X0172500Y0149158D01*
X0180500Y0149158D01*
X0182750Y0151408D01*
X0182750Y0191408D01*
X0178500Y0195658D01*
X0178500Y0222158D01*
X0155250Y0245408D01*
X0118000Y0245408D01*
X0108500Y0235908D01*
X0098000Y0235908D01*
X0094750Y0239158D01*
X0085750Y0239158D01*
X0077250Y0247658D01*
X0070000Y0247658D01*
X0066000Y0250658D02*
X0078750Y0250658D01*
X0087750Y0241658D01*
X0096000Y0241658D01*
X0099250Y0238408D01*
X0106500Y0238408D01*
X0116500Y0248408D01*
X0157000Y0248408D01*
X0181250Y0224158D01*
X0181250Y0196408D01*
X0186000Y0191658D01*
X0186000Y0149658D01*
X0182000Y0145658D01*
X0174500Y0145658D01*
X0145000Y0163158D02*
X0123500Y0163158D01*
X0084250Y0202408D01*
X0056250Y0202408D01*
X0060000Y0205158D02*
X0091000Y0205158D01*
X0123000Y0173158D01*
X0145000Y0173158D01*
X0145000Y0183158D02*
X0125750Y0183158D01*
X0101000Y0207908D01*
X0064000Y0207908D01*
X0068000Y0210908D02*
X0103500Y0210908D01*
X0121250Y0193158D01*
X0145000Y0193158D01*
X0145000Y0213158D02*
X0118500Y0213158D01*
X0117500Y0214158D01*
X0078000Y0214158D01*
X0071500Y0220658D01*
X0069750Y0220658D01*
X0066000Y0218658D02*
X0069000Y0215658D01*
X0066000Y0218658D02*
X0055000Y0218658D01*
X0052000Y0228158D02*
X0057000Y0233158D01*
X0053500Y0236408D02*
X0046250Y0229158D01*
X0046250Y0176908D01*
X0074000Y0149158D01*
X0083500Y0149158D01*
X0087500Y0155908D02*
X0078750Y0155908D01*
X0052000Y0182658D01*
X0052000Y0228158D01*
X0040750Y0217908D02*
X0040750Y0155158D01*
X0049250Y0146658D01*
X0050000Y0128158D02*
X0030000Y0148658D01*
X0030000Y0204658D01*
X0028000Y0206658D01*
X0028000Y0217908D01*
X0034250Y0217908D02*
X0034250Y0149658D01*
X0072500Y0111408D01*
X0072500Y0103158D01*
X0052500Y0103158D02*
X0052500Y0108158D01*
X0050000Y0110658D01*
X0050000Y0128158D01*
X0040000Y0125158D02*
X0025500Y0139658D01*
X0025500Y0191658D01*
X0019750Y0197408D01*
X0019750Y0218908D01*
X0021750Y0220908D01*
X0021750Y0229908D01*
X0017750Y0233158D02*
X0011500Y0226908D01*
X0011500Y0204658D01*
X0007500Y0200658D01*
X0007500Y0165658D01*
X0012500Y0160658D01*
X0012500Y0120658D01*
X0025000Y0108158D01*
X0019500Y0128158D02*
X0019500Y0190408D01*
X0016750Y0193158D01*
X0016750Y0222658D01*
X0017750Y0223658D01*
X0021750Y0236408D02*
X0029500Y0244158D01*
X0075000Y0244158D01*
X0072000Y0240408D02*
X0079750Y0232908D01*
X0112000Y0232908D01*
X0121250Y0242158D01*
X0133000Y0242158D01*
X0133000Y0235658D02*
X0120500Y0235658D01*
X0114250Y0229408D01*
X0070000Y0229408D01*
X0066250Y0233158D01*
X0078000Y0223658D02*
X0083750Y0217908D01*
X0117500Y0217908D01*
X0120250Y0220658D01*
X0133000Y0220658D01*
X0133000Y0228158D02*
X0120500Y0228158D01*
X0118750Y0226408D01*
X0085250Y0226408D01*
X0083500Y0224658D01*
X0087500Y0220408D02*
X0102500Y0220408D01*
X0064000Y0253658D02*
X0056750Y0246408D01*
X0024750Y0246408D01*
X0017750Y0239408D01*
X0064000Y0253658D02*
X0149500Y0253658D01*
X0152500Y0250658D01*
D16*
X0169500Y0117158D02*
X0169500Y0114158D01*
X0165000Y0109658D01*
X0134000Y0109658D01*
X0132500Y0108158D01*
M02*
