%
M48
M72
T01C0.01181
T02C0.04000
T03C0.07874
%
T01
X22143Y79000
X11643Y54000
X21643Y45000
X35643Y42000
X40143Y42000
X44143Y42500
X52143Y38750
X56893Y39750
X62393Y39750
X67143Y39750
X72643Y39000
X73143Y31500
X73143Y27000
X73143Y22500
X74143Y16000
X64143Y16000
X54143Y16000
X44143Y16000
X53143Y32000
X56143Y32000
X44143Y35500
X40143Y35500
X35643Y35500
X14143Y26500
X82143Y31500
X84643Y35000
X92643Y31500
X99393Y35250
X84643Y42500
X94643Y50000
X113643Y51250
X117643Y26000
X117643Y15500
X94643Y19000
X84893Y22750
T02
X29143Y9000
X19143Y9000
X39143Y9000
X49143Y9000
X59143Y9000
X69143Y9000
X79143Y9000
X89143Y9000
X99143Y9000
X109143Y9000
X120393Y36500
X120393Y46500
X120393Y56500
X120393Y66500
X120393Y76500
X120393Y86500
T03
X29893Y88410
X29893Y60850
X98393Y60850
X98393Y88410
M30
